<svg width="125" height="176" viewBox="0 0 125 176" fill="none" xmlns="http://www.w3.org/2000/svg">
<path d="M80.5269 37.4443C78.92 37.4443 77.5808 37.4443 75.7953 37.4443C75.7953 32.1093 75.8846 26.8632 75.7953 21.5281C75.706 14.9482 71.2422 9.61317 64.9929 8.54616C56.601 7.03456 49.2804 12.8142 48.9233 21.3503C48.7447 25.5294 48.9233 29.6196 48.9233 33.7987C48.9233 34.9546 48.9233 36.0217 48.9233 37.3554C47.3163 37.3554 45.9772 37.3554 43.9238 37.3554C44.2809 30.4199 43.9238 23.2175 45.263 16.4598C46.8699 8.27941 56.1546 2.76653 64.368 3.92245C73.9205 5.25621 80.5269 12.4585 80.6162 21.5281C80.6162 26.7742 80.5269 32.0204 80.5269 37.4443Z" fill="white"/>
<path d="M124.897 76.568C124.897 70.6995 122.219 66.2536 117.041 63.3193C116.148 62.7858 115.255 61.3632 115.255 60.2962C115.077 55.4057 115.166 50.5152 115.166 45.6248C115.166 39.4895 113.38 37.7111 107.131 37.7111C100.792 37.7111 94.3646 37.7111 88.026 37.7111C86.9547 37.7111 85.7941 37.5333 84.4549 37.4444C84.4549 31.6647 84.6335 26.1518 84.4549 20.639C83.83 8.72402 73.8311 -0.345559 61.6003 0.0101108C49.9945 0.276863 40.5312 9.87995 40.442 21.6171C40.442 26.7743 40.442 32.0204 40.442 37.7111H36.6924C30.2645 37.7111 23.7474 37.7111 17.2302 37.7111C11.5166 37.8 9.73107 39.6673 9.73107 45.1802C9.73107 50.2485 9.82034 55.4057 9.64179 60.474C9.64179 61.3632 8.92758 62.6969 8.21338 63.0526C2.32117 66.1647 0 71.0552 0 77.6351C0.0892759 101.998 0 126.273 0.0892759 150.636C0.0892759 165.041 9.90962 175.622 24.283 175.8C49.6374 176.067 74.9917 176.067 100.435 175.8C114.63 175.622 124.808 165.308 124.897 151.17C125.075 126.273 124.986 101.376 124.897 76.568ZM45.1736 16.5488C46.8698 8.27944 56.1545 2.76655 64.3679 3.92248C73.9204 5.25624 80.5268 12.4586 80.6161 21.5281C80.7054 26.7743 80.6161 32.1093 80.6161 37.5333H75.8845C75.8845 32.1982 75.9737 26.9521 75.8845 21.6171C75.7952 15.0372 71.3314 9.70211 65.0821 8.6351C56.6009 7.12351 49.2803 12.9031 48.9232 21.3503C48.7446 25.5294 48.9232 29.6196 48.8339 33.7987V37.3554H43.8344C44.2808 30.5088 43.8344 23.3065 45.1736 16.5488ZM71.8671 37.3554H53.0299C53.0299 31.398 52.6727 25.4405 53.1191 19.6609C53.4762 15.1261 58.1186 12.1029 62.9395 12.2807C67.5818 12.4586 71.5992 15.7485 71.8671 20.2833C72.1349 25.8851 71.8671 31.4869 71.8671 37.3554ZM16.7839 41.6235C47.1376 41.7124 77.4914 41.6235 107.845 41.6235C111.238 41.6235 111.327 41.8013 111.059 47.3142H89.8115V51.2266H110.97V56.4727H96.4179C96.3286 57.8954 96.3286 58.8735 96.2394 60.2962H111.059V65.4534H102.132C102.042 66.7871 102.042 67.7652 101.953 69.099H110.434C110.434 69.2768 110.434 69.3657 110.345 69.5436C109.631 74.434 104.899 84.6595 96.2394 91.0616C93.4718 93.1067 90.2579 94.7961 86.6868 96.041C79.4555 98.6196 70.7957 99.6866 61.7789 99.6866C40.9776 99.6866 31.6037 94.0848 29.1932 92.3064C29.1932 92.3064 29.1932 92.3064 29.1039 92.3064C28.7468 92.0397 28.5683 91.8618 28.479 91.8618L28.3897 91.9508C28.479 91.684 28.5683 91.4173 28.6575 91.0616H45.7985V87.1492H27.2291C22.5868 87.1492 22.2297 86.9714 19.6407 82.0809H39.1028V78.2575H20.9798C17.9444 78.2575 16.8731 78.2575 16.1589 76.7459C15.9804 76.3902 15.8911 76.0345 15.8018 75.501C15.6233 74.7897 15.4447 73.9894 15.2662 73.0113H34.1034V69.2768H14.1056C13.927 67.5874 13.5699 65.9869 13.5699 64.4753C13.5699 64.3864 13.5699 64.2974 13.5699 64.2085C13.4807 57.7175 13.5699 51.3155 13.4807 44.9134C13.4807 42.3348 14.4627 41.6235 16.7839 41.6235ZM120.969 151.17C120.969 162.996 112.13 171.976 100.257 171.976C75.081 172.065 49.9052 172.065 24.7294 171.976C12.945 171.976 4.01741 163.44 3.83886 151.614C3.66031 126.54 3.83886 101.554 3.83886 76.4791C3.83886 72.2111 5.44583 68.8322 9.73107 66.7871C11.4273 80.1247 15.2662 86.7046 25.8007 94.885C26.2471 95.2407 35.4425 103.866 61.7789 103.866C84.9906 103.866 93.8289 98.7085 96.775 96.041C96.775 96.1299 96.775 96.2188 96.775 96.2188C108.024 87.2381 113.38 79.7691 114.987 67.1428C119.005 68.7433 120.879 71.7665 120.879 76.7459C120.879 93.907 120.879 111.068 120.879 128.229C120.969 135.787 120.969 143.523 120.969 151.17Z" fill="#666666"/>
<path d="M120.969 151.17C120.969 162.996 112.13 171.976 100.257 171.976C75.0807 172.065 49.905 172.065 24.7292 171.976C12.9448 171.976 4.01719 163.44 3.83863 151.614C3.66008 126.54 3.83863 101.554 3.83863 76.4791C3.83863 72.2111 5.4456 68.8322 9.73084 66.7871C11.4271 80.1247 15.2659 86.7046 25.8005 94.885C26.2469 95.2407 35.4423 103.866 61.7786 103.866C84.9904 103.866 93.8287 98.7085 96.7748 96.041C96.7748 96.1299 96.7748 96.2188 96.7748 96.2188C108.024 87.2381 113.38 79.7691 114.987 67.1428C119.004 68.7433 120.879 71.7665 120.879 76.7459C120.879 93.9069 120.879 111.068 120.879 128.229C120.969 135.787 120.969 143.523 120.969 151.17Z" fill="white"/>
<path d="M107.935 41.6235C77.5808 41.6235 47.227 41.6235 16.8732 41.6235C14.4628 41.6235 13.4807 42.4238 13.57 44.8246C13.6593 51.2266 13.57 57.7176 13.6593 64.1197C13.6593 64.2086 13.6593 64.2975 13.6593 64.3864C13.7486 65.0977 13.9271 66.8761 14.3735 69.188C14.7306 71.0552 15.177 73.2782 15.8912 75.5011C15.9805 75.9457 16.159 76.3013 16.2483 76.7459C16.7839 78.4354 17.4981 80.0359 18.3016 81.5475C22.0512 88.2163 28.4791 91.9508 28.4791 92.1287C28.6576 92.2176 28.9255 92.3065 29.1933 92.3954C29.1933 92.3954 29.1933 92.3954 29.2826 92.3954C31.693 94.0848 41.067 99.7755 61.8682 99.7755C70.8851 99.7755 79.4556 98.7975 86.7762 96.1299C99.007 92.4843 109.184 81.2807 110.434 69.6325C110.434 69.4547 110.434 69.2769 110.524 69.188C110.524 68.2099 110.524 66.965 110.613 65.5423C110.702 64.0307 110.791 62.2524 110.791 60.3851C110.881 59.1403 110.881 57.8954 110.97 56.5617C110.97 55.5836 111.059 54.6055 111.059 53.6274C111.148 51.4934 111.148 49.4483 111.148 47.4032C111.416 41.8014 111.327 41.6235 107.935 41.6235Z" fill="white"/>
<path fill-rule="evenodd" clip-rule="evenodd" d="M47.8518 135.52C48.6553 136.143 49.7266 136.321 50.6194 136.054C49.6373 136.143 48.7446 136.143 47.8518 135.52C47.8518 135.52 47.8518 135.431 47.8518 135.52Z" fill="#1A1D1E"/>
<path fill-rule="evenodd" clip-rule="evenodd" d="M72.3135 127.429C71.51 126.806 71.7778 124.228 72.492 122.449C73.2955 120.671 74.4561 119.693 76.3309 119.96C78.2057 120.138 80.6161 121.56 80.7947 122.627C80.9732 123.694 79.0092 124.495 77.0451 125.65C75.081 126.717 73.1169 128.051 72.3135 127.429Z" fill="#1B1918"/>
<path fill-rule="evenodd" clip-rule="evenodd" d="M62.3144 122.183C62.5822 122.005 61.9573 120.582 61.6895 119.782C61.3323 118.804 60.9752 118.27 60.886 117.915C60.6181 117.47 60.4396 116.848 60.0825 112.757C59.9039 110.534 59.8147 108.934 60.5289 108.312C61.2431 107.689 61.868 108.756 62.85 109.023C63.7428 109.29 63.7428 109.556 64.5463 110.09C69.9028 113.202 78.5626 114.18 84.187 111.424C85.2583 110.89 87.3116 109.379 87.4009 109.112C87.758 108.045 89.2757 107.956 89.1864 108.312C88.9186 109.29 90.1684 111.157 89.9899 112.135C89.5435 115.069 89.2757 118.448 88.0258 121.205C88.0258 121.205 88.2044 121.382 88.2044 121.471C88.2937 121.56 91.329 126.006 89.9899 132.319C89.1864 136.054 87.3116 139.344 85.2583 142.545C81.2409 148.68 75.795 153.837 70.4385 158.817C67.7602 161.306 63.3857 165.93 63.3857 165.93C63.3857 165.93 54.6367 158.728 52.0477 156.594C46.0662 151.525 40.3525 146.101 35.3531 140.144C32.9426 137.299 30.8 134.809 30.1751 131.074C29.5501 127.696 29.9965 124.228 31.4249 121.116C31.9606 119.871 32.5855 118.982 32.8534 118.626C33.0319 118.359 34.8174 115.869 37.4064 114.269C40.3525 112.402 44.4592 111.335 48.2981 112.135C54.6367 113.558 60.3503 119.604 61.3323 121.027C61.2431 121.471 62.0466 122.36 62.3144 122.183Z" fill="white"/>
<path fill-rule="evenodd" clip-rule="evenodd" d="M37.3175 123.072C37.4067 123.072 37.496 122.983 37.496 122.894C37.5853 122.805 37.6746 122.716 37.6746 122.627C37.7638 122.449 37.9424 122.272 38.121 122.094C38.3888 121.738 38.7459 121.471 39.103 121.116C40.5314 119.96 42.2276 119.16 44.1024 118.804C46.0665 118.448 48.0306 118.448 49.9946 118.893C51.8694 119.248 53.7442 119.96 55.3512 120.849C56.8689 121.738 58.2973 122.805 59.3686 124.317C59.9043 125.028 60.3506 125.917 60.6185 126.717C60.8863 127.696 60.9756 128.674 60.8863 129.652C60.797 130.63 60.4399 131.697 60.4399 132.675C60.3506 133.475 61.1541 133.92 61.6898 134.542C61.9576 134.898 61.9576 135.076 62.404 135.254C62.8504 135.431 63.1182 135.342 63.5646 135.431C63.7431 135.431 64.1002 135.698 64.2788 135.52C64.3681 135.431 64.2788 135.787 64.1895 135.609C64.1002 135.431 64.0109 135.254 63.9217 135.165C63.7431 134.987 63.6538 134.72 63.4753 134.542C63.2075 134.187 63.2075 133.297 62.8504 133.031C62.4933 132.764 62.1362 132.497 61.779 132.23C61.5112 131.964 60.8863 132.141 60.8863 131.697C60.797 131.163 60.9756 130.719 61.0648 130.185C61.3327 129.207 61.5112 128.229 61.6898 127.162C61.7791 126.095 61.8683 125.117 61.8683 124.05C61.7791 122.005 61.422 119.96 60.9756 118.004C60.4399 116.047 59.815 114.18 59.6364 112.135C59.5472 111.157 59.5472 110.09 59.7257 109.112C59.815 108.845 59.815 108.578 59.9043 108.312C59.9935 108.045 60.0828 107.778 60.2614 107.689C60.5292 107.511 60.8863 107.6 61.0648 107.778C61.2434 107.867 61.4219 108.045 61.6898 108.223C61.8683 108.4 62.0469 108.489 62.3147 108.667C63.1182 109.201 64.0109 109.645 64.9037 110.09C66.6892 110.89 68.6533 111.424 70.6174 111.779C71.5994 111.957 72.6707 112.135 73.6527 112.224C74.724 112.313 75.7061 112.491 76.7774 112.58C77.8487 112.669 78.8307 112.669 79.9021 112.58C80.8841 112.491 81.8661 112.313 82.8482 111.957C83.7409 111.602 84.6337 111.246 85.3479 110.623C85.705 110.357 86.0621 110.09 86.4192 109.734C86.7763 109.379 87.0441 109.023 87.4012 108.667C87.669 108.4 88.0261 108.045 88.4725 107.956C88.9189 107.867 89.1867 108.223 89.3653 108.578C89.5438 109.023 89.6331 109.468 89.6331 109.823C89.7224 110.357 89.7224 110.801 89.8117 111.335C89.9902 113.38 89.8117 115.514 89.4546 117.47C89.276 118.448 89.0082 119.426 88.7404 120.404C88.6511 120.849 88.4725 121.294 88.2047 121.649C88.1154 121.827 87.9369 121.916 87.7583 122.005C87.669 122.094 87.4012 122.183 87.3119 122.094C87.1334 122.005 87.2227 121.738 87.3119 121.56C87.4012 121.294 87.4905 121.116 87.5798 120.849C87.7583 120.404 87.8476 119.871 87.9369 119.426C88.1154 118.448 88.294 117.381 88.4725 116.403C88.5618 115.87 88.6511 115.425 88.6511 114.891C88.7404 114.447 88.7404 113.913 88.6511 113.558C88.5618 113.38 88.4725 113.202 88.294 113.113C88.1154 113.024 87.9369 113.024 87.7583 113.024C87.3119 113.113 86.9548 113.291 86.5977 113.558C86.1514 113.824 85.7943 114.091 85.4371 114.447C85.2586 114.625 85.08 114.803 84.9015 114.891C84.7229 114.98 84.6337 115.158 84.5444 115.336C84.4551 115.514 84.4551 115.692 84.4551 115.87C84.5444 116.047 84.7229 116.225 84.8122 116.314C84.9908 116.492 85.08 116.67 85.1693 116.848C85.2586 117.114 85.2586 117.292 85.2586 117.559C85.2586 118.004 85.2586 118.448 85.5264 118.804C85.6157 118.893 85.705 118.893 85.7943 118.982C85.8835 118.982 85.9728 118.982 86.0621 119.071C86.2406 119.248 86.0621 119.426 86.0621 119.604C85.9728 120.049 86.2406 120.582 86.4192 120.938C86.687 121.294 86.9548 121.738 87.3119 122.005C87.669 122.361 87.9369 122.716 88.294 123.072C88.5618 123.428 88.8296 123.783 89.0975 124.228C89.6331 125.028 89.9902 125.917 90.258 126.806C90.7937 128.763 90.7937 130.808 90.3473 132.764C89.9902 134.72 89.276 136.498 88.3833 138.277C87.4905 140.055 86.5085 141.745 85.3479 143.345C84.1873 144.946 82.9374 146.546 81.5983 148.058C80.2592 149.569 78.8307 151.081 77.4023 152.504C75.8846 153.926 74.3669 155.349 72.8493 156.772C71.3316 158.194 69.8139 159.617 68.2962 161.04C67.582 161.751 66.7785 162.462 66.0643 163.174C65.3501 163.885 64.6359 164.596 63.9217 165.308C63.7431 165.486 63.5646 165.574 63.4753 165.752C63.4753 165.752 63.2967 165.93 63.386 166.019C63.386 166.108 63.5646 166.019 63.5646 165.93C63.9217 165.574 64.2788 165.308 64.6359 164.952C65.2608 164.241 65.975 163.529 66.5107 162.729C67.4927 161.129 68.0284 159.261 67.9391 157.394C67.9391 156.861 67.8498 156.416 67.7605 155.971C67.6713 155.438 67.582 154.993 67.4927 154.46C67.4927 154.371 67.4034 154.104 67.2249 154.193C67.1356 154.193 67.0463 154.282 67.0463 154.371C66.9571 154.46 66.8678 154.549 66.7785 154.638C66.4214 154.904 65.8857 154.904 65.5286 155.171C65.3501 155.26 65.2608 155.438 65.0823 155.616C64.993 155.705 64.8144 155.705 64.7252 155.527C64.6359 155.349 64.7252 155.171 64.7252 154.993C64.7252 154.727 64.7252 154.46 64.6359 154.282C64.6359 154.015 64.5466 153.748 64.5466 153.571C64.5466 153.393 64.6359 153.037 64.368 153.037C64.2788 153.037 64.1895 153.126 64.1002 153.215C64.011 153.304 63.9217 153.393 63.8324 153.482C63.6538 153.659 63.4753 153.748 63.2967 153.926C63.2075 154.015 63.0289 154.193 62.8504 154.193C62.6718 154.193 62.5825 154.015 62.4933 153.837C62.2254 153.393 61.8683 153.037 61.5112 152.77C61.3327 152.592 61.2434 152.504 61.0648 152.326C60.9756 152.237 60.797 152.148 60.7077 152.148C60.5292 152.148 60.6185 152.504 60.6185 152.592C60.6185 152.859 60.7077 153.126 60.7077 153.304C60.7077 153.837 60.7077 154.282 60.797 154.815C60.797 154.993 60.8863 155.26 60.8863 155.438C60.8863 155.527 60.8863 155.616 60.797 155.616C60.7077 155.616 60.6185 155.527 60.6185 155.527C60.5292 155.438 60.5292 155.349 60.4399 155.26C60.3506 155.171 60.3506 155.082 60.2614 154.993C60.0828 154.815 59.9935 154.638 59.815 154.549C59.6364 154.46 59.4579 154.282 59.2793 154.282C59.1008 154.282 59.0115 154.46 59.0115 154.638C59.0115 154.815 59.1008 154.993 59.0115 155.082C58.9222 155.349 58.7437 155.171 58.5651 155.082C58.3866 154.993 58.1187 154.815 57.9402 154.638C57.7616 154.549 57.4938 154.371 57.3153 154.282C56.8689 154.015 56.4225 153.837 56.0654 153.571C55.9761 153.482 55.7083 153.393 55.619 153.571C55.5297 153.748 55.5297 154.015 55.5297 154.193C55.5297 154.46 55.619 154.638 55.619 154.904C55.7083 155.171 55.7976 155.349 55.8868 155.527C55.8868 155.616 55.9761 155.705 55.9761 155.794C55.9761 155.882 55.7976 155.882 55.7083 155.882C55.619 155.882 55.5297 155.882 55.3512 155.882C55.2619 155.882 55.0834 155.971 54.9941 155.971C54.5477 156.149 54.1013 156.327 53.5657 156.505C53.2978 156.594 53.1193 156.683 52.8515 156.772C52.6729 156.861 52.4944 156.861 52.3158 156.949C52.1373 157.038 51.9587 157.127 52.048 157.305C52.048 157.483 52.3158 157.572 52.4051 157.661C52.8515 157.928 53.2086 158.283 53.5657 158.639C54.3692 159.35 55.0834 159.973 55.8868 160.684C57.4045 162.018 59.0115 163.351 60.6185 164.596C60.9756 164.863 61.4219 165.219 61.779 165.486C62.0469 165.663 62.3147 165.93 62.5825 166.019C62.6718 166.019 62.8504 166.108 62.7611 165.93C62.7611 165.841 62.6718 165.841 62.5825 165.752C62.4933 165.663 62.404 165.574 62.3147 165.574C61.8683 165.308 61.422 165.041 61.0648 164.685C60.2614 164.063 59.4579 163.44 58.5651 162.818C57.7616 162.196 56.9582 161.573 56.1547 160.862C54.5477 159.528 52.9407 158.283 51.3338 156.949C49.7268 155.616 48.2091 154.282 46.6022 152.948C45.0845 151.614 43.4775 150.192 41.9598 148.769C40.4421 147.346 38.9244 145.924 37.496 144.501C35.3534 142.367 33.4786 140.055 31.9609 137.477C31.5145 136.765 31.1574 136.054 30.8003 135.254C29.9968 133.475 29.4612 131.608 29.1934 129.652C28.9255 127.696 29.0148 125.65 29.5505 123.694C29.9968 121.916 30.8003 120.227 31.8716 118.715C32.943 117.203 34.2821 115.958 35.7998 114.98C37.3175 113.913 39.103 113.202 40.9778 112.846C42.9418 112.402 44.9952 112.491 47.0485 112.846C47.5842 112.935 48.0306 113.024 48.5662 113.202C48.9233 113.291 49.2804 113.38 49.6375 113.558C49.6375 113.558 49.9054 113.647 49.8161 113.736C49.7268 113.736 49.7268 113.736 49.6375 113.736C49.5483 113.736 49.5483 113.736 49.459 113.647C49.0126 113.469 48.4769 113.38 48.0306 113.291C46.0665 112.846 44.0132 112.846 42.0491 113.202C40.2636 113.558 38.4781 114.269 36.8711 115.247C35.3534 116.225 34.1035 117.47 33.1215 118.982C32.5858 119.782 32.2287 120.671 31.8716 121.56C31.6931 122.005 31.5145 122.449 31.4253 122.983C31.4253 123.072 31.336 123.161 31.4253 123.25C31.4253 123.339 31.5145 123.339 31.5145 123.25C31.6038 123.161 31.6038 123.072 31.6038 122.983C31.7824 122.538 31.9609 122.094 32.1395 121.649C32.318 121.205 32.5858 120.76 32.8537 120.404C33.3893 119.604 34.0143 118.893 34.6392 118.181C35.8891 116.848 37.496 115.781 39.103 114.98C40.8885 114.18 42.7633 113.558 44.7274 113.469C45.7094 113.38 46.7807 113.469 47.7627 113.558C47.852 113.558 47.9413 113.558 48.1198 113.558C48.2091 113.558 48.3877 113.558 48.3877 113.647C48.3877 113.736 48.2091 113.736 48.2091 113.736C48.1198 113.736 47.9413 113.736 47.852 113.736C47.3164 113.647 46.7807 113.647 46.3343 113.736C45.7987 113.736 45.3523 113.913 44.8166 114.002C44.281 114.091 43.8346 114.18 43.299 114.358C43.299 114.358 42.9418 114.447 43.0311 114.536C43.1204 114.536 43.2097 114.536 43.299 114.536C43.7453 114.447 44.1917 114.358 44.7274 114.358C45.7094 114.269 46.7807 114.358 47.7627 114.447C48.7448 114.536 49.7268 114.714 50.7088 114.98C52.5836 115.514 54.2799 116.225 55.9761 117.292C56.7796 117.826 57.5831 118.359 58.2973 118.982C59.1008 119.604 59.7257 120.404 60.3506 121.116C60.6185 121.471 60.9756 121.827 61.2434 122.272C61.2434 122.272 61.4219 122.449 61.3327 122.538C61.3327 122.627 61.1541 122.449 61.1541 122.449C60.9756 122.272 60.797 122.094 60.7077 121.916C60.0828 121.205 59.3686 120.493 58.6544 119.96C57.1367 118.804 55.5297 117.826 53.7442 117.114C53.2978 116.937 52.8515 116.759 52.3158 116.67C52.048 116.581 51.8694 116.492 51.6016 116.403C51.5123 116.403 51.5123 116.403 51.4231 116.403C51.3338 116.403 51.3338 116.492 51.4231 116.581C51.5123 116.67 51.5123 116.67 51.6016 116.67C51.6909 116.759 51.7802 116.759 51.8694 116.848C52.048 116.937 52.3158 117.114 52.4944 117.292C52.9407 117.559 53.2978 117.915 53.7442 118.181C54.1906 118.448 54.5477 118.804 54.9941 119.071C55.1726 119.16 55.4405 119.337 55.619 119.426C55.7083 119.515 55.7976 119.515 55.8868 119.604L55.9761 119.693C55.9761 119.782 55.8868 119.782 55.8868 119.693C55.7976 119.693 55.7083 119.604 55.619 119.604C55.5297 119.515 55.3512 119.515 55.2619 119.426C54.8155 119.16 54.3692 118.982 53.9228 118.804C52.048 118.093 49.9946 117.737 47.9413 117.737C47.4056 117.737 46.87 117.737 46.4236 117.826C45.888 117.826 45.4416 117.915 44.9059 118.004C44.6381 118.004 44.4595 118.004 44.1917 118.093C44.1024 118.093 43.8346 118.181 43.8346 118.27C43.8346 118.359 44.0132 118.359 44.1024 118.359C44.1917 118.359 44.3703 118.359 44.4595 118.359C44.7274 118.359 44.9952 118.27 45.263 118.27C45.7987 118.27 46.2451 118.27 46.7807 118.27C47.3164 118.27 47.7627 118.359 48.2984 118.448C49.2804 118.626 50.2625 118.804 51.2445 119.071C51.6909 119.248 52.2265 119.426 52.6729 119.604C53.1193 119.782 53.5657 120.049 54.1013 120.227C54.4584 120.404 54.9048 120.493 55.2619 120.76L55.3512 120.849C55.3512 120.938 55.2619 120.849 55.2619 120.849C55.1726 120.849 54.9941 120.76 54.9048 120.671C54.0121 120.227 53.1193 119.96 52.2265 119.693C51.2445 119.426 50.2625 119.16 49.2804 118.982C47.3164 118.626 45.3523 118.626 43.3882 119.16C41.692 119.604 40.085 120.404 38.8352 121.649C38.4781 122.005 38.2102 122.272 37.9424 122.627C37.7638 122.805 37.6746 122.983 37.496 123.25C37.496 122.627 37.1389 123.072 37.3175 123.072Z" fill="#FF7D00"/>
<path fill-rule="evenodd" clip-rule="evenodd" d="M61.1539 140.144C60.0826 139.344 58.922 138.721 57.6721 138.188C54.8153 136.854 51.7799 136.054 48.8338 135.342C47.0483 134.898 45.2628 134.453 43.7451 133.475C42.2274 132.497 40.9776 130.897 40.8883 129.118C40.8883 127.34 42.406 125.473 44.1915 125.562C42.4953 125.117 40.7097 126.717 40.5312 128.496C40.2634 131.252 42.5845 133.208 44.7272 134.275C47.0483 135.431 49.6373 136.054 52.1371 136.765C54.8153 137.476 57.4936 138.455 59.7255 140.055C64.0107 143.256 66.5105 148.413 67.4032 153.57C67.4925 153.926 67.4925 154.282 67.5818 154.726C67.5818 154.904 67.5818 155.082 67.671 155.26C67.671 155.171 68.0281 154.726 68.0281 154.549C68.1174 154.282 68.0281 153.926 68.0281 153.57C68.2067 151.081 70.3493 149.658 72.1348 148.235C74.2775 146.546 76.1522 144.323 77.6699 142.011C77.6699 141.922 77.7592 141.922 77.7592 141.833C79.3662 139.255 80.4375 136.143 79.7233 133.208C81.6874 132.141 84.0978 131.786 86.2404 132.319C86.1511 130.452 85.8833 128.318 84.3656 127.251C82.7587 126.095 80.5268 126.629 78.8305 127.607C74.8131 129.918 72.0456 134.275 67.671 135.876C71.0635 135.787 73.9204 133.119 77.3128 132.853C73.9204 134.898 70.3493 136.054 66.5997 136.943C65.1713 137.299 65.4391 138.632 65.2606 139.788C65.2606 141.033 64.9928 142.367 64.9035 143.612C63.9215 142.456 62.5823 141.211 61.1539 140.144ZM76.3308 125.384L76.2415 125.295C75.7059 125.028 75.1702 124.85 74.456 124.761C73.9204 124.761 73.2954 124.761 72.7598 125.028C72.5812 125.117 72.3134 125.295 72.1348 125.384C71.9563 125.562 71.7777 125.828 71.5992 126.006C71.4206 126.273 71.3314 126.54 71.1528 126.717C70.9742 126.984 70.885 127.251 70.7064 127.518C70.5279 127.784 70.3493 128.14 70.26 128.407C70.26 128.496 70.1708 128.585 70.26 128.674C70.4386 128.94 75.9737 125.473 76.063 125.384C76.2415 125.384 76.2415 125.384 76.3308 125.384ZM62.6716 120.938C62.4038 120.76 62.2252 120.849 62.2252 121.116C62.2252 121.382 62.7609 125.117 62.8502 125.117C63.118 124.85 63.3858 124.406 63.6536 123.783C63.8322 123.427 64.1893 122.449 64.1893 122.183C64.1893 122.094 64.1 122.005 64.1 121.916C64.1 121.827 64.0107 121.738 63.9215 121.649L62.6716 120.938ZM74.5453 126.095C74.1882 125.917 73.8311 125.828 73.474 125.739C73.2062 125.739 72.849 125.739 72.5812 125.917C72.4919 126.006 72.3134 126.006 72.2241 126.095C72.1348 126.184 72.0456 126.362 71.9563 126.451C71.867 126.629 71.7777 126.717 71.6885 126.895C71.5992 127.073 71.5099 127.162 71.4206 127.34C71.3314 127.518 71.2421 127.696 71.1528 127.873V127.962C71.3314 128.14 74.456 126.184 74.5453 126.095C74.5453 126.184 74.456 126.184 74.5453 126.095Z" fill="white"/>
<path fill-rule="evenodd" clip-rule="evenodd" d="M62.9392 121.827C62.7607 121.738 62.6714 121.738 62.6714 121.916C62.6714 122.094 62.9392 124.228 63.0285 124.228C63.207 124.05 63.3856 123.783 63.4749 123.517C63.5641 123.339 63.7427 122.805 63.7427 122.627C63.7427 122.538 63.7427 122.538 63.6534 122.45L63.5641 122.361L62.9392 121.827ZM74.7236 125.828C74.3665 125.651 74.0987 125.562 73.7416 125.562C73.4738 125.562 73.1167 125.562 72.8488 125.651C72.7596 125.739 72.581 125.739 72.4917 125.828C72.4025 125.917 72.3132 126.006 72.2239 126.184C72.1346 126.273 72.0453 126.451 72.0453 126.54C71.9561 126.718 71.8668 126.806 71.7775 126.984C71.6882 127.162 71.599 127.251 71.5097 127.429V127.518C71.6882 127.696 74.6343 125.828 74.7236 125.828C74.7236 125.828 74.6343 125.828 74.7236 125.828Z" fill="#151B19"/>
<path fill-rule="evenodd" clip-rule="evenodd" d="M62.4038 117.915C62.4038 118.092 62.4931 118.181 62.5824 118.359C62.7609 118.448 62.8502 118.448 63.0287 118.537C63.0287 118.537 63.118 118.537 63.118 118.448C63.2966 118.27 63.3858 118.092 63.4751 117.915C63.6537 117.559 63.9215 117.114 63.8322 116.759C63.7429 116.492 64.6357 115.336 64.5464 114.98C64.4572 114.536 64.1893 114.358 64.2786 114.18C64.3679 114.002 64.6357 114.091 64.9928 113.913C65.0821 113.824 65.2606 113.735 65.3499 113.469C65.4392 113.291 65.3499 113.113 65.2606 112.935C65.1714 112.757 65.0821 112.668 64.9035 112.491C64.725 112.313 64.5464 112.224 64.3679 112.046C64.0108 111.779 63.6537 111.513 63.2966 111.335C63.0287 111.157 62.6716 110.89 62.2253 110.89C62.0467 110.89 61.8681 110.89 61.7789 110.979C61.6003 111.068 61.5111 111.246 61.5111 111.424C61.4218 111.779 61.4218 112.224 61.5111 112.58C61.6003 113.024 61.6003 113.469 61.6896 113.913C61.7789 114.803 61.9574 115.692 62.136 116.581C62.2253 117.025 62.3145 117.47 62.4038 117.915Z" fill="white"/>
<path fill-rule="evenodd" clip-rule="evenodd" d="M65.35 134.72C65.1714 134.542 62.0468 131.964 61.7789 131.875C61.6897 131.786 61.6004 131.786 61.5111 131.697C61.4218 131.697 61.4218 131.697 61.3326 131.608C61.2433 131.608 61.2433 131.608 61.154 131.608C61.154 131.608 61.154 131.608 61.154 131.697V131.786C61.154 131.875 61.0647 131.875 61.0647 131.964C60.9755 132.052 60.9755 132.23 60.8862 132.319C60.7969 132.497 60.7076 132.764 60.7076 133.031C60.6184 133.475 60.7076 134.009 60.8862 134.364C61.154 134.898 61.6004 135.253 62.0468 135.52C62.3146 135.609 62.4932 135.698 62.761 135.787C63.0288 135.876 64.5465 135.965 64.6358 135.965C64.725 135.965 64.9036 135.965 64.9929 135.965C65.0821 135.965 65.2607 135.965 65.35 135.965C65.4392 135.965 65.6178 135.965 65.7071 135.876C65.7964 135.876 65.8856 135.787 65.8856 135.698C65.8856 135.609 65.8856 135.431 65.7964 135.342C65.7071 135.076 65.5285 134.898 65.35 134.72Z" fill="#1B201C"/>
</svg>
