<svg width="76" height="66" viewBox="0 0 76 66" fill="none" xmlns="http://www.w3.org/2000/svg">
<path d="M73.4613 24.9646C73.4613 24.1298 73.3679 23.2951 73.2278 22.5067C71.6864 13.7884 64.727 8.038 55.8058 8.038H52.7698V2.33398H2.13875C2.13875 2.75135 2.09204 3.07597 2.09204 3.35421C2.09204 20.7445 2.09204 38.1348 2.09204 55.5251C2.09204 60.5335 5.36158 63.9188 10.406 63.9652C21.756 64.0116 33.1059 64.0116 44.4559 63.9652C49.4536 63.9188 52.6764 60.5335 52.7698 55.6178C52.7698 55.015 52.7698 54.4121 52.7698 53.8556C54.9184 53.7629 56.8801 53.7629 58.8418 53.531C66.1749 52.6499 72.7607 46.0648 73.2745 38.7377C73.6014 34.1003 73.4146 29.5092 73.4613 24.9646ZM50.4344 5.95117C50.4344 22.3212 50.4344 38.7377 50.4344 55.1077C50.4344 59.4205 48.0991 61.6929 43.802 61.6929C32.8724 61.6929 21.9428 61.6929 11.0132 61.6929C6.80952 61.6929 4.42742 59.3741 4.42742 55.2469C4.42742 38.784 4.42742 22.3212 4.38071 5.85842C4.38071 4.79182 4.70767 4.55994 5.73524 4.55994C20.2146 4.60632 34.694 4.55994 49.1733 4.55994H50.4344V5.95117ZM52.7698 19.3533C54.4046 19.446 55.9927 19.3533 57.534 19.6315C60.1964 20.1416 61.8778 22.3676 61.9245 25.3355C61.9712 29.0455 62.0179 32.8018 61.9245 36.5117C61.8311 39.897 59.3556 42.2157 55.9459 42.2157H52.8165V19.3533H52.7698ZM71.0325 37.8102C70.6122 45.1837 64.1198 51.2123 56.6466 51.3514C55.3855 51.3978 54.1711 51.3514 52.8165 51.3514V44.5344C53.8908 44.5344 54.9184 44.5344 55.9927 44.5344C60.5233 44.4881 63.9797 41.5201 64.2132 37.0682C64.4467 32.7554 64.3533 28.4426 64.1198 24.1298C63.8862 20.2344 60.5233 17.2664 56.5999 17.1273C55.3855 17.081 54.1711 17.1273 52.8633 17.1273V10.4031C56.5999 10.0785 60.2431 10.3103 63.5593 12.3044C68.4636 15.1796 70.9391 19.5388 71.1259 25.1037C71.2193 29.3237 71.2661 33.5901 71.0325 37.8102Z" fill="#333333" stroke="#333333" stroke-width="3.2161"/>
<path d="M50.4346 4.60631V5.95116C50.4346 22.3212 50.4346 38.7377 50.4346 55.1077C50.4346 59.4205 48.0992 61.6929 43.8021 61.6929C32.8725 61.6929 21.9429 61.6929 11.0133 61.6929C6.80966 61.6929 4.42757 59.3741 4.42757 55.2469C4.42757 38.784 4.42756 22.3212 4.38086 5.85841C4.38086 4.79181 4.70781 4.55994 5.73538 4.55994C20.2148 4.60631 34.6941 4.55994 49.1735 4.55994H50.4346V4.60631Z" fill="#E1CDA0"/>
<path d="M52.8169 51.3978C52.8169 49.0791 52.8169 46.8532 52.8169 44.5808C53.8912 44.5808 54.9187 44.5808 55.993 44.5808C60.5237 44.5345 63.98 41.5665 64.2136 37.1146C64.4471 32.8018 64.3537 28.489 64.1201 24.1762C63.8866 20.2808 60.5237 17.3129 56.6002 17.1737C55.3858 17.1274 54.1714 17.1737 52.8636 17.1737C52.8636 14.9014 52.8636 12.7218 52.8636 10.4495C56.6002 10.1249 60.2434 10.3567 63.5597 12.3508C68.464 15.226 70.9395 19.5852 71.1263 25.1501C71.2664 29.4165 71.2664 33.6829 71.0329 37.903C70.6125 45.2765 64.1201 51.3051 56.6469 51.4442C55.3858 51.3978 54.1714 51.3978 52.8169 51.3978Z" fill="#E1CDA0"/>
</svg>
