<svg width="58" height="54" viewBox="0 0 58 54" fill="none" xmlns="http://www.w3.org/2000/svg">
<path fill-rule="evenodd" clip-rule="evenodd" d="M17.8794 25.039C18.58 25.6418 19.5142 25.8737 20.4016 25.6882V25.6418C19.5142 25.7346 18.6267 25.6418 17.8794 25.039C17.8794 25.039 17.8794 24.9926 17.8794 25.039Z" fill="#1A1D1E"/>
<path fill-rule="evenodd" clip-rule="evenodd" d="M40.7191 19.0103C39.9718 18.4074 40.3921 16.0424 41.1862 14.4656C41.9802 12.8889 43.1946 12.1006 44.8294 12.3788C46.5108 12.657 48.6594 14.0483 48.7995 15.0685C48.9396 16.0887 47.0246 16.6916 45.1563 17.6191C43.288 18.4538 41.4664 19.6132 40.7191 19.0103Z" fill="#1B1918"/>
<path fill-rule="evenodd" clip-rule="evenodd" d="M31.7982 13.6773C32.0318 13.5382 31.5647 12.1934 31.3312 11.4514C31.0509 10.5703 30.7707 10.0138 30.6772 9.68915C30.4904 9.22541 30.3036 8.66892 30.2102 4.91262C30.1635 2.82578 30.1635 1.43456 30.8174 0.924446C31.518 0.367957 32.0318 1.43456 32.8725 1.7128C33.7132 2.03742 33.6665 2.2693 34.4139 2.77941C39.1313 5.93285 47.0716 7.23133 52.3496 5.09812C53.3304 4.68075 55.2922 3.38227 55.3856 3.19677C55.806 2.22292 57.1605 2.26929 57.0671 2.59391C56.7868 3.42865 57.8144 5.28361 57.6276 6.16472C57.0671 8.85442 56.6 11.9151 55.2922 14.3266C55.2922 14.3266 55.4323 14.5121 55.4323 14.5584C55.479 14.6512 58.0479 18.8712 56.4599 24.5752C55.5257 27.9142 53.6107 30.8821 51.5556 33.6646C47.5854 39.044 42.2607 43.4495 37.0762 47.7159C34.4606 49.8491 30.2569 53.8373 30.2569 53.8373C30.2569 53.8373 22.5968 46.7884 20.4483 44.6552C15.2637 39.6932 10.3594 34.4529 6.06232 28.7489C4.00719 26.0128 2.18559 23.6014 1.76522 20.1697C1.39156 17.109 1.99876 13.9092 3.4467 11.1731C4.00719 10.1065 4.66109 9.31816 4.89463 8.99354C5.03475 8.80804 6.80965 6.62846 9.28515 5.28361C12.0876 3.75326 15.9176 2.96491 19.4207 3.93876C25.119 5.56186 30.07 11.4514 30.8641 12.7035C30.9108 12.9353 31.6114 13.8165 31.7982 13.6773Z" fill="white"/>
<path fill-rule="evenodd" clip-rule="evenodd" d="M8.8646 13.1672C8.95802 13.2135 9.00473 13.0744 9.05144 13.028C9.14485 12.9353 9.19156 12.8425 9.28497 12.7498C9.4251 12.6107 9.56522 12.4252 9.70534 12.2861C9.98559 12.0078 10.3593 11.7296 10.6862 11.4977C12.0874 10.5238 13.6755 9.92097 15.357 9.6891C17.1786 9.41086 19.0002 9.59635 20.775 10.0601C22.4565 10.5238 24.0913 11.2195 25.5859 12.1933C26.9405 13.0744 28.2016 14.1874 29.089 15.5322C29.5561 16.2279 29.883 17.0162 30.1166 17.8046C30.3501 18.6857 30.3501 19.6132 30.21 20.5406C30.0699 21.4681 29.7429 22.3492 29.6028 23.2767C29.5094 24.0187 30.1633 24.4361 30.6771 25.0389C30.9106 25.3636 30.8639 25.549 31.2376 25.6882C31.6579 25.8273 31.8448 25.7809 32.3118 25.8737C32.4987 25.92 32.8256 26.1055 32.9657 26.0128C33.0592 25.92 32.919 26.1983 32.8723 26.1055C32.8256 25.9664 32.7322 25.8273 32.6388 25.6882C32.5454 25.5027 32.4053 25.3172 32.2651 25.0853C32.0316 24.7143 32.0783 23.926 31.7513 23.6477C31.4244 23.3695 31.1441 23.1376 30.8172 22.8594C30.5369 22.5811 30.0232 22.7202 30.0232 22.3029C29.9765 21.8391 30.1166 21.3754 30.2567 20.958C30.5369 20.0769 30.8172 19.1958 30.9573 18.2683C31.1441 17.3408 31.2376 16.4134 31.2376 15.4395C31.2843 13.5845 31.0974 11.7296 30.7238 9.8746C30.3968 8.06601 29.883 6.30379 29.7896 4.44883C29.7429 3.52135 29.7896 2.59386 30.0232 1.71275C30.0699 1.48088 30.1166 1.24901 30.21 1.01714C30.3034 0.785272 30.3968 0.5534 30.6304 0.414278C30.8639 0.275155 31.1441 0.367906 31.3777 0.507028C31.5645 0.64615 31.7046 0.785273 31.8915 0.924396C32.0783 1.06352 32.2651 1.20264 32.4053 1.34176C33.1526 1.89825 33.8999 2.36199 34.6939 2.77936C36.3287 3.61409 38.0569 4.21696 39.8318 4.63433C40.7659 4.8662 41.7001 5.05169 42.6342 5.19081C43.5684 5.37631 44.5492 5.51543 45.4834 5.65455C46.4175 5.79368 47.3517 5.84005 48.3326 5.84005C49.2667 5.79368 50.1542 5.70093 51.0416 5.42268C51.8823 5.19081 52.6764 4.81982 53.4237 4.35608C53.7974 4.12421 54.1243 3.89234 54.4513 3.61409C54.7782 3.33585 55.1052 3.01123 55.3854 2.73298C55.6657 2.45474 55.9926 2.1765 56.413 2.13012C56.8333 2.08375 57.0669 2.40836 57.207 2.73298C57.3471 3.10398 57.3938 3.52135 57.3938 3.93871C57.4405 4.40245 57.4405 4.8662 57.4405 5.32994C57.4405 7.23128 57.2537 9.08624 56.7866 10.9412C56.5531 11.8223 56.2729 12.7034 55.9926 13.5845C55.8525 13.9555 55.7124 14.3729 55.4321 14.6511C55.3387 14.7903 55.1986 14.883 55.0117 14.9758C54.9183 15.0221 54.7315 15.1149 54.5914 15.0221C54.4513 14.9294 54.5447 14.6975 54.5914 14.5584C54.6848 14.3729 54.7782 14.141 54.8249 13.9555C54.965 13.5382 55.1052 13.0744 55.1986 12.657C55.4321 11.7296 55.6189 10.8021 55.8058 9.92097C55.8992 9.45723 55.9926 8.99349 56.086 8.52975C56.1794 8.11238 56.2262 7.69502 56.1327 7.27765C56.086 7.09215 55.9926 6.95303 55.8525 6.81391C55.7124 6.72116 55.5255 6.67479 55.3854 6.72116C55.0117 6.76754 54.6381 6.95303 54.2644 7.13853C53.8908 7.3704 53.4704 7.60227 53.1434 7.83414C52.9566 7.97326 52.7698 8.11239 52.583 8.25151C52.4428 8.34426 52.3027 8.48338 52.2093 8.66887C52.1159 8.80799 52.0692 8.99349 52.1159 9.17899C52.1626 9.36449 52.3027 9.50361 52.4428 9.59635C52.583 9.73548 52.6764 9.92098 52.7231 10.1065C52.7698 10.292 52.7698 10.5238 52.7698 10.7557C52.7698 11.1267 52.7231 11.5904 52.9566 11.9151C53.0033 12.0078 53.0967 12.0078 53.1902 12.0542C53.2836 12.1006 53.377 12.1006 53.4237 12.1469C53.5171 12.2861 53.4237 12.5179 53.377 12.657C53.2836 13.0744 53.4704 13.5382 53.6572 13.9091C53.8908 14.2801 54.1243 14.6511 54.4045 14.9758C54.6848 15.3004 54.965 15.625 55.2453 15.996C55.4788 16.3206 55.7124 16.6916 55.9459 17.0626C56.3663 17.8046 56.6465 18.6393 56.8334 19.5204C57.207 21.329 57.0669 23.184 56.5998 24.9462C56.1327 26.662 55.3854 28.3315 54.498 29.9082C53.6105 31.4849 52.5362 32.9689 51.4153 34.4065C50.2943 35.8441 49.0332 37.189 47.7721 38.4874C46.4643 39.7859 45.063 41.0844 43.6618 42.2901C42.2139 43.5422 40.7659 44.7479 39.2713 45.9537C37.7766 47.1594 36.3287 48.3651 34.834 49.5708C34.0867 50.1737 33.3861 50.7766 32.6388 51.4258C31.9382 52.0287 31.2843 52.6779 30.5369 53.2344C30.3968 53.3735 30.21 53.4663 30.0699 53.6054C30.0232 53.6518 29.9297 53.7445 29.9297 53.7909C29.9765 53.8836 30.1166 53.7445 30.1166 53.7445C30.4902 53.4663 30.7705 53.188 31.0974 52.8634C31.7513 52.2605 32.3585 51.6577 32.919 50.9157C33.9466 49.5245 34.4604 47.8086 34.5071 46.0928C34.5071 45.629 34.4604 45.2117 34.4137 44.7479C34.367 44.2842 34.2736 43.8204 34.2268 43.4031C34.2268 43.3103 34.1801 43.0785 33.9933 43.1248C33.8999 43.1712 33.8532 43.2176 33.8065 43.3103C33.7131 43.4031 33.6664 43.4495 33.5729 43.4958C33.1993 43.7277 32.7322 43.635 32.4053 43.8668C32.2651 43.9596 32.1717 44.0987 32.0316 44.2378C31.8915 44.3306 31.7981 44.2842 31.7513 44.1451C31.7046 44.006 31.7513 43.8205 31.7513 43.6813C31.7513 43.4495 31.7513 43.2176 31.7513 42.9857C31.7513 42.7538 31.7046 42.522 31.7046 42.2901C31.7046 42.151 31.7981 41.78 31.5645 41.78C31.4711 41.78 31.3777 41.8264 31.331 41.8727C31.2376 41.9191 31.1909 42.0119 31.0974 42.0582C30.9106 42.1974 30.7705 42.2901 30.5837 42.4292C30.4902 42.522 30.3501 42.6147 30.1633 42.6611C29.9765 42.6611 29.883 42.4756 29.8363 42.3365C29.6495 41.9655 29.3226 41.5945 29.0423 41.3162C28.9022 41.1771 28.8088 41.038 28.6686 40.8989C28.5752 40.8061 28.4818 40.667 28.3417 40.7134C28.1549 40.7134 28.2016 40.9916 28.2016 41.1308C28.2016 41.3626 28.2483 41.5945 28.2483 41.8264C28.2483 42.2901 28.2483 42.7538 28.295 43.2176C28.295 43.4031 28.3417 43.635 28.3417 43.8205C28.3417 43.8668 28.3417 43.9596 28.295 43.9596C28.2483 44.006 28.1549 43.8668 28.1549 43.8205C28.1081 43.7277 28.1082 43.635 28.0614 43.5422C28.0147 43.4495 27.968 43.3567 27.8746 43.264C27.7345 43.1248 27.5944 42.9393 27.4542 42.8466C27.3141 42.7075 27.1273 42.5684 26.9405 42.5684C26.7536 42.522 26.6602 42.7539 26.6602 42.893C26.6602 43.0321 26.7069 43.1712 26.6602 43.3567C26.6135 43.5886 26.38 43.4031 26.2866 43.3103C26.0997 43.1712 25.9129 43.0321 25.7261 42.893C25.5392 42.7539 25.3524 42.6611 25.1656 42.522C24.7919 42.2901 24.4182 42.0582 24.0913 41.78C23.9979 41.6872 23.8111 41.5481 23.6709 41.7336C23.5775 41.8727 23.5775 42.1046 23.5775 42.2901C23.5775 42.522 23.5775 42.7075 23.6709 42.9393C23.7176 43.1712 23.8111 43.3567 23.9045 43.5422C23.9512 43.5886 23.9979 43.6813 23.9512 43.7741C23.9045 43.8668 23.811 43.8668 23.7176 43.8668C23.6242 43.8668 23.5308 43.8668 23.4374 43.8668C23.344 43.8668 23.2038 43.9132 23.1104 43.9132C22.6901 44.006 22.223 44.1914 21.8026 44.3306C21.5691 44.4233 21.3822 44.5161 21.1487 44.5624C20.9619 44.6088 20.7751 44.6552 20.5882 44.7479C20.4481 44.7943 20.2613 44.8871 20.2613 45.0726C20.308 45.2117 20.4948 45.3044 20.5882 45.3972C20.9619 45.6754 21.2888 46 21.6158 46.3247C22.2697 46.9739 22.9703 47.6695 23.6242 48.3187C24.9787 49.6172 26.3333 50.9157 27.7345 52.1678C28.0614 52.446 28.3884 52.7707 28.7621 53.0953C28.9956 53.2808 29.2291 53.5126 29.4627 53.6518C29.5094 53.6981 29.6962 53.7445 29.6495 53.6054C29.6495 53.559 29.5561 53.5126 29.5094 53.4663C29.416 53.4199 29.3226 53.3271 29.2758 53.2808C28.9022 53.0025 28.5285 52.7243 28.1549 52.3997C27.4075 51.7968 26.7069 51.1476 26.0063 50.5447C25.3057 49.8955 24.6051 49.2926 23.8578 48.6434C22.4565 47.3913 21.0086 46.0928 19.6541 44.7943C18.2528 43.4958 16.8983 42.1974 15.5438 40.8525C14.1893 39.5077 12.8815 38.1628 11.5269 36.818C10.2191 35.4267 8.91131 34.0819 7.65021 32.6443C5.82861 30.6038 4.19384 28.3779 2.93273 25.92C2.60578 25.2244 2.27883 24.5752 2.04529 23.8332C1.43809 22.1637 1.01772 20.4015 0.924306 18.6393C0.830891 16.8307 1.01772 14.9758 1.57821 13.2135C2.092 11.5904 2.93273 10.1065 4.00701 8.76162C5.08129 7.46314 6.34239 6.39654 7.79033 5.51543C9.28497 4.63432 10.9197 4.07783 12.6012 3.84596C14.4228 3.56772 16.3378 3.70684 18.1127 4.17058C18.5798 4.26333 19.0469 4.40245 19.4672 4.58795C19.7942 4.6807 20.1211 4.77345 20.4014 4.95894C20.4481 4.95894 20.6349 5.05169 20.4948 5.09807C20.4481 5.09807 20.4014 5.09806 20.3547 5.05169C20.308 5.05169 20.2613 5.00532 20.2146 5.00532C19.7942 4.86619 19.3738 4.6807 18.9067 4.58795C17.1319 4.07783 15.2168 3.93871 13.3952 4.17058C11.7138 4.40245 10.0323 4.91257 8.58436 5.79368C7.18313 6.62841 5.92202 7.69502 4.94116 9.03987C4.42738 9.73548 4.00701 10.5238 3.63335 11.3122C3.44652 11.7296 3.25969 12.1469 3.11956 12.5643C3.11956 12.657 3.02615 12.7498 3.07286 12.8425C3.07286 12.8889 3.11956 12.8889 3.16627 12.8425C3.21298 12.7962 3.25969 12.657 3.3064 12.6107C3.49323 12.1933 3.63335 11.7759 3.86689 11.4049C4.10042 11.0339 4.33396 10.663 4.61421 10.292C5.12799 9.59635 5.73519 8.94712 6.3891 8.34425C7.65021 7.23128 9.09814 6.30379 10.6862 5.65455C12.321 4.95894 14.1426 4.58795 15.9175 4.58795C16.8516 4.58795 17.7858 4.72707 18.6732 4.81982C18.7666 4.81982 18.86 4.8662 18.9535 4.8662C19.0002 4.8662 19.187 4.91257 19.187 5.00532C19.187 5.09806 19.0469 5.05169 19.0002 5.05169C18.86 5.05169 18.7666 5.00532 18.6265 5.00532C18.1594 4.95894 17.6923 4.91257 17.2253 4.91257C16.7582 4.91257 16.2911 5.00532 15.824 5.05169C15.357 5.09806 14.8899 5.14444 14.4695 5.23719C14.4228 5.23719 14.1426 5.32994 14.236 5.37631C14.2827 5.42268 14.4228 5.37631 14.5162 5.37631C14.9366 5.37631 15.4037 5.28356 15.824 5.23719C16.7582 5.19081 17.6923 5.32994 18.5798 5.46906C19.5139 5.60818 20.4014 5.84005 21.2888 6.1183C22.9703 6.67479 24.5117 7.46315 25.9596 8.48338C26.7069 8.99349 27.3608 9.54998 28.0147 10.1992C28.6686 10.8485 29.2758 11.5441 29.7896 12.2861C30.0699 12.657 30.3501 12.9817 30.5837 13.3527C30.6304 13.399 30.7238 13.5382 30.6771 13.5845C30.6304 13.6309 30.5369 13.4918 30.5369 13.4918C30.3968 13.3063 30.2567 13.1672 30.1633 12.9817C29.6495 12.2861 29.0423 11.6368 28.3884 11.034C27.0806 9.8746 25.6326 8.90074 24.0913 8.20513C23.6709 8.01963 23.2506 7.83414 22.8302 7.69501C22.6434 7.60226 22.4098 7.50952 22.223 7.46314C22.1763 7.46314 22.1296 7.41677 22.0829 7.41677C21.9894 7.41677 22.0362 7.50952 22.0829 7.5559C22.1296 7.60227 22.1763 7.64864 22.223 7.64864C22.3164 7.69502 22.4098 7.78776 22.5032 7.83414C22.6901 7.97326 22.8769 8.11239 23.017 8.25151C23.3907 8.52975 23.7176 8.85437 24.0913 9.13261C24.465 9.41086 24.8386 9.73548 25.2123 9.96735C25.3991 10.1065 25.5859 10.1992 25.7728 10.3383C25.8662 10.3847 25.9129 10.4775 26.0063 10.5238C26.0063 10.5702 26.053 10.5702 26.053 10.6166C26.053 10.663 25.9596 10.663 25.9129 10.6166C25.8662 10.5702 25.7728 10.5238 25.7261 10.4775C25.6326 10.4311 25.5392 10.3383 25.3991 10.292C25.0254 10.0601 24.6518 9.82823 24.2314 9.64273C22.5032 8.90075 20.6816 8.48338 18.8133 8.34425C18.3463 8.29788 17.8792 8.29788 17.4121 8.29788C16.945 8.29788 16.4779 8.34425 16.0109 8.34425C15.7773 8.34425 15.5905 8.34425 15.357 8.39062C15.3103 8.39062 14.9833 8.437 15.03 8.52975C15.03 8.6225 15.1701 8.57613 15.2168 8.57613C15.3103 8.57613 15.4037 8.57613 15.5438 8.57613C15.7773 8.57613 16.0109 8.52975 16.2911 8.52975C16.7582 8.52975 17.2253 8.57612 17.6456 8.6225C18.1127 8.66887 18.5798 8.76162 19.0002 8.85437C19.8876 9.03986 20.775 9.27174 21.6158 9.59635C22.0362 9.73548 22.4565 9.92098 22.8769 10.1065C23.2973 10.292 23.7176 10.5238 24.138 10.7557C24.5117 10.9412 24.8853 11.0803 25.2123 11.3122C25.259 11.3586 25.3057 11.4049 25.3057 11.4513C25.3057 11.4977 25.2123 11.4977 25.2123 11.4513C25.1189 11.4049 24.9787 11.3586 24.8853 11.3122C24.0913 10.8948 23.2973 10.5238 22.4565 10.2456C21.5691 9.92097 20.6816 9.64273 19.7942 9.41086C18.0193 8.99349 16.1977 8.90074 14.3761 9.22536C12.788 9.54998 11.2934 10.1992 10.079 11.2658C9.75205 11.5441 9.4718 11.8223 9.19156 12.1469C9.05143 12.3324 8.91131 12.4716 8.77119 12.657C9.05143 12.7498 8.77119 13.0744 8.8646 13.1672Z" fill="#FF7D00"/>
<path fill-rule="evenodd" clip-rule="evenodd" d="M29.7898 30.0474C28.8557 29.3054 27.8281 28.6561 26.7538 28.0533C24.2316 26.7084 21.5226 25.8273 18.7668 24.9926C17.1788 24.4825 15.544 24.0187 14.1895 23.0449C12.835 22.071 11.7607 20.5407 11.8541 18.9176C11.9008 17.2481 13.4422 15.6714 15.0769 15.9033C13.5356 15.4395 11.8541 16.7844 11.5739 18.4075C11.1535 20.8653 13.1619 22.813 15.1236 23.926C17.1788 25.1317 19.5142 25.8273 21.8028 26.6157C24.1849 27.4504 26.567 28.4243 28.5287 30.0474C32.3121 33.2008 34.3205 38.0237 34.7876 42.8002C34.8343 43.1249 34.8343 43.4959 34.881 43.8205C34.881 43.9596 34.881 44.1451 34.881 44.2842C34.881 44.1915 35.2079 43.8205 35.2546 43.635C35.348 43.3567 35.3013 43.0321 35.3481 42.7539C35.6283 40.4815 37.6834 39.3222 39.3649 38.1165C41.4668 36.6789 43.2883 34.7775 44.7363 32.6907C44.783 32.6443 44.783 32.5979 44.8297 32.5516C46.4178 30.2792 47.5854 27.4968 47.0717 24.8071C48.94 23.926 51.1352 23.7405 53.097 24.3433C53.097 22.6275 53.0035 20.6798 51.6957 19.6132C50.2945 18.5002 48.2394 18.8712 46.6513 19.6596C42.8213 21.5609 40.1122 25.3636 36.002 26.6157C39.0847 26.7084 41.8404 24.3897 44.9698 24.3897C41.7937 26.0592 38.4308 26.9403 34.881 27.5432C33.5732 27.775 33.7133 28.9808 33.5265 30.0474C33.4797 31.2067 33.1528 32.3661 32.966 33.5254C32.1719 32.2269 31.0509 31.0676 29.7898 30.0474ZM44.5027 17.2945C44.5027 17.2481 44.456 17.2481 44.4093 17.2481C43.8955 16.9699 43.4285 16.7844 42.8213 16.6916C42.3075 16.6452 41.747 16.6452 41.2799 16.8307C41.0931 16.9235 40.8596 17.0162 40.7194 17.1554C40.5326 17.2945 40.3925 17.5263 40.2056 17.7118C40.0655 17.9437 39.9254 18.1292 39.7853 18.3611C39.6452 18.5929 39.505 18.8248 39.3649 19.0567C39.1781 19.2886 39.038 19.5668 38.8978 19.8451C38.8978 19.8914 38.8044 19.9842 38.8511 20.0306C39.038 20.2624 44.3159 17.3872 44.3626 17.3872C44.4093 17.3409 44.456 17.3409 44.5027 17.2945ZM32.2653 12.5643C32.0785 12.3788 31.8917 12.4716 31.845 12.7034C31.845 12.9353 32.0785 16.4134 32.1719 16.4134C32.4055 16.1351 32.7324 15.7641 32.966 15.254C33.1528 14.9294 33.5265 14.0947 33.5265 13.8164C33.5265 13.7237 33.4797 13.6309 33.4797 13.5845C33.433 13.5382 33.3863 13.4454 33.2929 13.3527L32.2653 12.5643ZM42.8213 17.9437L42.7746 17.8973C42.4943 17.7582 42.2141 17.6191 41.8871 17.5727C41.6069 17.5263 41.2799 17.5727 41.0464 17.6655C40.953 17.7118 40.8128 17.7582 40.7194 17.851C40.626 17.9437 40.5326 18.0365 40.4392 18.1756C40.3458 18.3147 40.2991 18.4075 40.2056 18.5466C40.1122 18.6857 40.0188 18.7785 39.9721 18.9176C39.8787 19.0567 39.7853 19.1958 39.6919 19.3349C39.6919 19.3813 39.6452 19.4277 39.6919 19.4277C39.7853 19.5668 42.7279 17.9437 42.7746 17.9437H42.8213Z" fill="white"/>
<path fill-rule="evenodd" clip-rule="evenodd" d="M32.4054 13.399C32.2653 13.3063 32.1719 13.3526 32.1719 13.4918C32.1719 13.6309 32.312 15.5786 32.3587 15.5786C32.4988 15.4395 32.6857 15.2076 32.8258 14.9294C32.9192 14.7439 33.1527 14.2801 33.1527 14.141C33.1527 14.0946 33.1527 14.0483 33.106 14.0019C33.106 13.9555 33.0593 13.9091 33.0126 13.8628L32.4054 13.399ZM43.008 17.6654L42.9613 17.6191C42.6811 17.4799 42.4476 17.3408 42.1206 17.3408C41.8404 17.2944 41.5601 17.3408 41.3266 17.3872C41.2332 17.4336 41.093 17.4799 40.9996 17.5727C40.9062 17.6654 40.8128 17.7582 40.7194 17.8973C40.626 17.9901 40.5793 18.1292 40.4858 18.2219C40.3924 18.3611 40.3457 18.4538 40.2523 18.5929C40.1589 18.732 40.0655 18.8712 40.0188 19.0103C40.0188 19.0567 39.9721 19.103 40.0188 19.103C40.1122 19.2422 42.9146 17.7118 42.9613 17.7118C42.9613 17.6654 43.008 17.6654 43.008 17.6654Z" fill="#151B19"/>
<path fill-rule="evenodd" clip-rule="evenodd" d="M32.1718 9.73546C32.2185 9.87459 32.2185 10.0137 32.2652 10.1528C32.4053 10.2456 32.4988 10.292 32.6389 10.3383C32.6856 10.3383 32.6856 10.292 32.7323 10.292C32.8724 10.1528 33.0125 10.0137 33.106 9.82821C33.3395 9.54996 33.573 9.17897 33.4796 8.7616C33.4329 8.48336 34.2736 7.5095 34.2269 7.18489C34.1802 6.76752 33.9 6.62839 33.9934 6.4429C34.0868 6.30377 34.3204 6.39652 34.6006 6.21103C34.694 6.16465 34.8341 6.02553 34.9276 5.84004C34.9743 5.70091 34.9743 5.51542 34.9276 5.37629C34.8808 5.23717 34.7407 5.09805 34.6473 5.0053C34.5072 4.86618 34.3671 4.72705 34.2269 4.58793C33.9467 4.30969 33.6197 4.07782 33.2928 3.84595C33.0125 3.66045 32.7323 3.42858 32.3586 3.38221C32.2185 3.33583 32.0784 3.33583 31.9383 3.42858C31.7981 3.52133 31.7047 3.66045 31.658 3.79957C31.5179 4.12419 31.5646 4.54156 31.5646 4.91255C31.6113 5.32992 31.6113 5.74729 31.658 6.11828C31.7047 6.95301 31.7981 7.74138 31.8916 8.57611C32.0317 8.9471 32.0784 9.36447 32.1718 9.73546Z" fill="white"/>
<path fill-rule="evenodd" clip-rule="evenodd" d="M33.8999 25.2708C33.7598 25.0853 31.004 22.5811 30.8172 22.442C30.7238 22.3956 30.6304 22.3029 30.5369 22.2565C30.4902 22.2565 30.4435 22.2101 30.3968 22.2101C30.3501 22.2101 30.3034 22.1637 30.2567 22.2101L30.21 22.2565C30.21 22.3029 30.1633 22.3029 30.1633 22.3029C30.1166 22.3492 30.1166 22.3956 30.0699 22.442C30.0232 22.5347 29.9764 22.6275 29.883 22.7666C29.7896 22.9521 29.6962 23.184 29.6495 23.3695C29.5561 23.7868 29.6028 24.2506 29.7896 24.6216C29.9764 25.0853 30.3501 25.5027 30.8172 25.7346C31.004 25.8737 31.2375 25.9664 31.4244 26.0128C31.6579 26.1055 33.0124 26.291 33.1526 26.291C33.2927 26.291 33.3861 26.291 33.5262 26.291C33.6663 26.291 33.7598 26.291 33.8999 26.291C33.9933 26.291 34.1334 26.291 34.2268 26.2447C34.3203 26.1983 34.367 26.1519 34.4137 26.0592C34.4604 25.9664 34.4137 25.8273 34.367 25.7346C34.2268 25.5954 34.0867 25.4563 33.8999 25.2708Z" fill="#1B201C"/>
</svg>
