<svg width="30" height="29" viewBox="0 0 30 29" fill="none" xmlns="http://www.w3.org/2000/svg">
<path fill-rule="evenodd" clip-rule="evenodd" d="M9.12134 14.048C9.495 14.3262 10.0088 14.419 10.4291 14.3262C10.0088 14.3726 9.54171 14.3262 9.12134 14.048C9.12134 14.048 9.12134 14.0016 9.12134 14.048Z" fill="#1A1D1E"/>
<path fill-rule="evenodd" clip-rule="evenodd" d="M20.7515 10.1989C20.3779 9.92066 20.4713 8.66856 20.845 7.83383C21.2186 6.99909 21.7791 6.53535 22.6666 6.6281C23.554 6.72084 24.675 7.37008 24.7684 7.8802C24.8618 8.39031 23.9277 8.76131 22.9935 9.3178C22.0594 9.87429 21.1252 10.5235 20.7515 10.1989Z" fill="#1B1918"/>
<path fill-rule="evenodd" clip-rule="evenodd" d="M15.9872 7.74111C16.1273 7.64836 15.8471 6.95275 15.6603 6.58176C15.4734 6.11802 15.3333 5.83977 15.2399 5.70065C15.1465 5.46878 15.0064 5.19053 14.8662 3.24282C14.7728 2.17621 14.7261 1.43423 15.0531 1.15598C15.38 0.877737 15.707 1.38785 16.1273 1.52698C16.5477 1.6661 16.5477 1.80522 16.9681 2.03709C19.4903 3.52107 23.6473 3.93843 26.3096 2.68633C26.8234 2.45446 27.8043 1.71247 27.851 1.61972C28.0378 1.10961 28.7384 1.06324 28.6917 1.24874C28.5516 1.71248 29.1588 2.59358 29.0654 3.05732C28.8318 4.44855 28.7384 6.07164 28.1312 7.32374C28.1312 7.32374 28.1779 7.41649 28.2246 7.46287C28.2713 7.50924 29.7193 9.59608 29.0654 12.6104C28.6917 14.3726 27.7575 15.9493 26.8234 17.4797C24.9084 20.4012 22.3395 22.8127 19.7705 25.1778C18.5094 26.3371 16.4543 28.5631 16.4543 28.5631C16.4543 28.5631 12.2973 25.1314 11.0829 24.1112C8.28045 21.6997 5.57142 19.1491 3.14262 16.3203C2.02164 14.9755 0.994067 13.7697 0.667113 12.0075C0.386868 10.4308 0.5737 8.76134 1.27431 7.27737C1.55456 6.72088 1.83481 6.25714 1.97493 6.11802C2.06834 6.02527 2.90908 4.81954 4.12348 4.07755C5.5247 3.19644 7.48643 2.68633 9.30803 3.1037C12.2973 3.75294 15.0531 6.67451 15.4734 7.27737C15.5201 7.37012 15.8938 7.78749 15.9872 7.74111Z" fill="white"/>
<path fill-rule="evenodd" clip-rule="evenodd" d="M4.1235 8.1585C4.17021 8.1585 4.21692 8.11213 4.21692 8.06576C4.26363 8.01938 4.31033 7.97301 4.31033 7.92663C4.35704 7.83388 4.45045 7.74114 4.49716 7.69476C4.63728 7.50926 4.82412 7.37014 4.96424 7.23102C5.66485 6.67453 6.45888 6.30354 7.34632 6.16441C8.28048 5.97892 9.21463 6.02529 10.1488 6.21079C11.0362 6.39629 11.9237 6.72091 12.7177 7.13827C13.465 7.55564 14.1189 8.06576 14.6327 8.76137C14.913 9.13236 15.0998 9.50335 15.2399 9.92072C15.38 10.3845 15.4268 10.8482 15.38 11.3119C15.3333 11.7757 15.1932 12.2394 15.1465 12.7495C15.0998 13.1669 15.4735 13.306 15.7537 13.6306C15.8938 13.7698 15.8938 13.8625 16.0807 13.9553C16.3142 14.048 16.4076 14.0016 16.6412 14.0016C16.7346 14.0016 16.9214 14.0944 16.9681 14.048C17.0148 14.0016 16.9681 14.1408 16.9214 14.0944C16.8747 14.0016 16.828 13.9553 16.7813 13.8625C16.7346 13.7698 16.6412 13.677 16.5944 13.5843C16.4543 13.3988 16.4543 12.9814 16.2675 12.8423C16.0807 12.7032 15.9405 12.6104 15.7537 12.4713C15.6136 12.3322 15.3333 12.4249 15.3333 12.2394C15.2866 12.0075 15.3333 11.7757 15.4268 11.5438C15.5669 11.0801 15.6603 10.6163 15.707 10.1526C15.7537 9.68885 15.8004 9.17874 15.7537 8.66862C15.7537 7.69476 15.5669 6.76728 15.3333 5.79342C15.0998 4.86594 14.7728 3.98483 14.6794 3.01097C14.6327 2.54723 14.6327 2.03712 14.7261 1.57338C14.7261 1.43426 14.7728 1.34151 14.8195 1.20238C14.8663 1.10964 14.913 0.970515 15.0064 0.877767C15.1465 0.785018 15.2866 0.831388 15.38 0.924136C15.4735 0.970511 15.5669 1.06326 15.6603 1.10964C15.7537 1.15601 15.8471 1.24876 15.9405 1.29513C16.3142 1.57338 16.7346 1.75887 17.1549 1.99074C17.9957 2.36174 18.9298 2.63998 19.864 2.7791C20.3311 2.87185 20.8448 2.91822 21.3119 3.01097C21.8257 3.05735 22.2928 3.1501 22.8066 3.1501C23.2736 3.19647 23.7874 3.19647 24.2545 3.1501C24.7216 3.10372 25.1886 3.01098 25.6557 2.87186C26.0761 2.73273 26.4965 2.50086 26.8701 2.26899C27.057 2.12987 27.2438 1.99074 27.3839 1.85162C27.524 1.7125 27.7109 1.527 27.851 1.34151C27.9911 1.20239 28.1779 1.01689 28.3648 0.970513C28.5516 0.924139 28.7384 1.10964 28.7851 1.24876C28.8786 1.43426 28.9253 1.66612 28.9253 1.85162C28.972 2.08349 28.972 2.31536 28.972 2.54723C29.0187 3.52109 28.972 4.49495 28.7851 5.4688C28.6917 5.93254 28.5983 6.39628 28.4582 6.86003C28.4115 7.04552 28.3181 7.27739 28.2246 7.41651C28.1779 7.50926 28.0845 7.55564 28.0378 7.60201C27.9911 7.64839 27.8977 7.69476 27.851 7.64838C27.7576 7.60201 27.8043 7.46289 27.851 7.41651C27.8977 7.32377 27.9444 7.18464 27.9444 7.0919C27.9911 6.86003 28.0845 6.62815 28.1312 6.39628C28.2246 5.93254 28.3181 5.42243 28.3648 4.95869C28.4115 4.72682 28.4582 4.49495 28.4582 4.2167C28.5049 3.98483 28.5049 3.75296 28.4582 3.56747C28.4115 3.47472 28.3648 3.38197 28.3181 3.3356C28.2247 3.28922 28.1312 3.28922 28.0845 3.28922C27.8977 3.33559 27.7109 3.42834 27.524 3.52109C27.3372 3.66021 27.1504 3.79933 26.9635 3.93845C26.8701 4.0312 26.7767 4.07758 26.6833 4.17033C26.6366 4.2167 26.5432 4.30945 26.4965 4.4022C26.4497 4.49494 26.4498 4.58769 26.4498 4.68044C26.4965 4.77319 26.5432 4.81957 26.6366 4.91231C26.73 5.00506 26.7767 5.05144 26.8234 5.14418C26.8701 5.23693 26.8701 5.37605 26.8701 5.4688C26.8701 5.6543 26.8701 5.88617 27.0102 6.07167C27.057 6.11804 27.1037 6.11804 27.1504 6.11804C27.1971 6.11804 27.2438 6.11804 27.2438 6.16441C27.2905 6.25716 27.2438 6.34991 27.2438 6.44266C27.1971 6.67453 27.2905 6.9064 27.4306 7.0919C27.5707 7.27739 27.7109 7.46289 27.851 7.60201C27.9911 7.78751 28.1779 7.92663 28.3181 8.11212C28.4582 8.29762 28.5983 8.43675 28.6917 8.62224C28.9253 8.99324 29.1121 9.4106 29.2055 9.87434C29.439 10.8018 29.4391 11.7757 29.2522 12.7032C29.0654 13.6306 28.7384 14.5118 28.3181 15.3001C27.8977 16.1348 27.4306 16.9232 26.8701 17.7116C26.3096 18.4999 25.7491 19.2419 25.0952 19.9375C24.4413 20.6795 23.7874 21.3287 23.0868 22.0244C22.3862 22.72 21.6389 23.3692 20.9382 24.0648C20.1909 24.7141 19.4903 25.4097 18.743 26.0589C18.3693 26.3835 18.0424 26.7545 17.6687 27.0791C17.3418 27.4038 17.0148 27.7748 16.6412 28.0994C16.5477 28.1457 16.501 28.2385 16.4076 28.3312C16.4076 28.3312 16.3142 28.424 16.3609 28.424C16.3609 28.4704 16.4543 28.424 16.4543 28.3776C16.6411 28.2385 16.7813 28.053 16.9214 27.9139C17.2483 27.5893 17.5286 27.2646 17.8088 26.8473C18.2759 26.1053 18.5095 25.1778 18.4628 24.2967C18.4628 24.0648 18.416 23.8329 18.3693 23.6011C18.3226 23.3692 18.2759 23.1373 18.2292 22.9055C18.2292 22.8591 18.1825 22.72 18.0891 22.7663C18.0424 22.7663 18.0424 22.8127 17.9957 22.8591C17.949 22.9055 17.949 22.9518 17.9023 22.9518C17.7154 23.091 17.4819 23.0446 17.2951 23.1837C17.2016 23.2301 17.1549 23.3228 17.1082 23.3692C17.0615 23.4156 16.9681 23.4156 16.9681 23.3228C16.9681 23.2301 16.9681 23.1837 16.9681 23.091C16.9681 22.9519 16.9681 22.8591 16.9214 22.72C16.9214 22.5809 16.8747 22.4881 16.8747 22.349C16.8747 22.2562 16.9214 22.0707 16.7813 22.0707C16.7346 22.0707 16.6879 22.1171 16.6412 22.1171C16.5944 22.1635 16.5477 22.2099 16.5477 22.2099C16.4543 22.2562 16.3609 22.349 16.3142 22.3954C16.2675 22.4417 16.1741 22.4881 16.1274 22.5345C16.034 22.5345 15.9872 22.4417 15.9405 22.349C15.8471 22.1635 15.6603 21.978 15.4735 21.8389C15.4268 21.7925 15.3333 21.6997 15.2866 21.6534C15.2399 21.607 15.1932 21.5606 15.0998 21.5606C15.0064 21.5606 15.0531 21.6997 15.0531 21.7925C15.0531 21.9316 15.0998 22.0244 15.0998 22.1635C15.0998 22.3954 15.0998 22.6272 15.1465 22.8591C15.1465 22.9519 15.1932 23.0446 15.1932 23.1837C15.1932 23.2301 15.1932 23.2765 15.1465 23.2765C15.0998 23.2765 15.0998 23.2301 15.0531 23.2301C15.0064 23.1837 15.0064 23.1373 15.0064 23.091C14.9597 23.0446 14.9597 22.9982 14.913 22.9518C14.8663 22.8591 14.7728 22.8127 14.6794 22.72C14.586 22.6736 14.4926 22.5809 14.3992 22.5809C14.3058 22.5809 14.2591 22.6736 14.2591 22.7663C14.2591 22.8591 14.3058 22.9055 14.2591 22.9982C14.2124 23.091 14.1189 23.0446 14.0722 22.9982C13.9788 22.9518 13.8854 22.8591 13.792 22.8127C13.6986 22.7664 13.6052 22.6736 13.465 22.6272C13.2782 22.5345 13.0447 22.4417 12.9045 22.3026C12.8578 22.2562 12.7644 22.2099 12.7177 22.3026C12.671 22.3954 12.671 22.4881 12.671 22.5809C12.671 22.6736 12.7177 22.8127 12.7177 22.9055C12.7644 22.9982 12.8111 23.091 12.8578 23.1837C12.8578 23.2301 12.9045 23.2765 12.9045 23.3228C12.9045 23.3692 12.8111 23.3692 12.7644 23.3692C12.7177 23.3692 12.671 23.3692 12.6243 23.3692C12.5776 23.3692 12.4842 23.3692 12.4375 23.4156C12.2039 23.5083 12.0171 23.6011 11.7835 23.6938C11.6901 23.7402 11.55 23.7866 11.4566 23.8329C11.3632 23.8793 11.2698 23.8793 11.1764 23.9257C11.1296 23.9721 10.9895 24.0184 11.0362 24.1112C11.0362 24.2039 11.1764 24.2503 11.2231 24.2967C11.4099 24.4358 11.5967 24.5749 11.7835 24.7604C12.1572 25.0851 12.5309 25.4097 12.9045 25.7343C13.6519 26.3835 14.3992 26.9864 15.1465 27.5893C15.3333 27.7284 15.5202 27.8675 15.707 28.053C15.8471 28.1457 15.9405 28.2385 16.0807 28.3312C16.1274 28.3312 16.1741 28.3776 16.1741 28.3312C16.1741 28.2849 16.1274 28.2849 16.0807 28.2385C16.034 28.1921 15.9872 28.1921 15.9405 28.1458C15.7537 28.0066 15.5202 27.8675 15.3333 27.7284C14.9597 27.4501 14.5393 27.1255 14.1656 26.8473C13.792 26.5226 13.3716 26.2444 12.998 25.9198C12.2039 25.3169 11.4566 24.6677 10.7093 24.0648C9.96196 23.4156 9.21464 22.8127 8.46732 22.1635C7.72 21.5143 7.01938 20.865 6.27205 20.1694C5.57144 19.5202 4.82411 18.8246 4.1235 18.1289C3.14264 17.1087 2.20849 16.0421 1.50788 14.79C1.32105 14.4654 1.13421 14.0944 0.994089 13.7234C0.620428 12.8887 0.340186 11.9612 0.246771 11.0801C0.153355 10.1526 0.20006 9.17873 0.433598 8.25125C0.667137 7.41651 1.04079 6.58178 1.55458 5.88617C2.06836 5.19056 2.67556 4.5877 3.42288 4.12396C4.17021 3.61384 5.01095 3.28922 5.85169 3.10373C6.78584 2.91823 7.7667 2.91823 8.70086 3.10373C8.93439 3.1501 9.16793 3.19647 9.40147 3.28922C9.5883 3.33559 9.72841 3.38197 9.91524 3.42834C9.91524 3.42834 10.0087 3.47472 9.96195 3.52109C9.96195 3.52109 9.91526 3.52109 9.86855 3.52109C9.82184 3.52109 9.82183 3.52109 9.77513 3.47471C9.54159 3.42834 9.30805 3.33559 9.07451 3.28922C8.14036 3.05735 7.1595 3.05735 6.22534 3.24284C5.3379 3.42834 4.54387 3.75296 3.79655 4.2167C3.09593 4.68044 2.48873 5.28331 2.02166 5.97892C1.78812 6.34991 1.60129 6.76728 1.41446 7.18464C1.32105 7.41651 1.22763 7.60201 1.18092 7.83388C1.18092 7.88026 1.13422 7.92663 1.18092 7.97301C1.18092 7.97301 1.22763 8.01938 1.22763 7.97301C1.27433 7.92663 1.27434 7.88026 1.27434 7.83388C1.36775 7.60201 1.41446 7.41651 1.50788 7.18464C1.60129 6.99915 1.74141 6.76728 1.83483 6.58178C2.06837 6.21079 2.39532 5.8398 2.67557 5.51518C3.28277 4.91231 4.03008 4.35582 4.82411 3.98483C5.66485 3.56746 6.5523 3.33559 7.48645 3.28922C7.95353 3.24285 8.46732 3.28922 8.93439 3.3356C8.9811 3.3356 9.0278 3.3356 9.07451 3.3356C9.12122 3.3356 9.21463 3.33559 9.21463 3.38197C9.21463 3.42834 9.12122 3.42834 9.12122 3.42834C9.07452 3.42834 8.9811 3.42834 8.93439 3.42834C8.70086 3.42834 8.42061 3.38197 8.18707 3.42834C7.95353 3.42834 7.71999 3.47472 7.48645 3.52109C7.25292 3.56746 7.01938 3.61384 6.78584 3.66021C6.78584 3.66021 6.599 3.70659 6.69242 3.75296C6.73913 3.75296 6.78584 3.75296 6.83255 3.75296C7.06609 3.70659 7.29962 3.66021 7.48645 3.66021C7.95353 3.61384 8.46732 3.66021 8.93439 3.70658C9.40147 3.75296 9.86855 3.84571 10.3356 3.98483C11.2231 4.2167 12.0638 4.5877 12.8111 5.05144C13.1848 5.28331 13.5584 5.56155 13.9321 5.88617C14.3058 6.21079 14.6327 6.53541 14.913 6.9064C15.0531 7.0919 15.1932 7.23102 15.3333 7.41651C15.3333 7.41651 15.4268 7.50926 15.38 7.55564C15.38 7.60201 15.2866 7.50927 15.2866 7.50927C15.1932 7.41652 15.1465 7.32377 15.0531 7.23102C14.7728 6.86003 14.4459 6.58178 14.0722 6.30354C13.3716 5.74705 12.5776 5.28331 11.7369 4.95869C11.5033 4.86594 11.2698 4.81957 11.0829 4.72682C10.9895 4.68045 10.8494 4.63407 10.756 4.63407C10.7093 4.63407 10.7093 4.63407 10.6626 4.63407C10.6159 4.63407 10.6159 4.68044 10.6626 4.68044C10.6626 4.68044 10.7093 4.72682 10.756 4.72682C10.8027 4.77319 10.8494 4.77319 10.8961 4.81957C10.9895 4.86594 11.0829 4.95869 11.1764 5.00506C11.3632 5.14418 11.55 5.28331 11.7369 5.42243C11.9237 5.56155 12.1572 5.70067 12.344 5.8398C12.4375 5.88617 12.5309 5.97892 12.6243 6.02529C12.671 6.07166 12.7177 6.07167 12.7644 6.11804L12.8111 6.16441C12.8111 6.21079 12.7644 6.21079 12.7644 6.16441C12.7177 6.16441 12.671 6.11804 12.671 6.11804C12.6243 6.07167 12.5776 6.07166 12.4842 6.02529C12.2973 5.93254 12.0638 5.79342 11.877 5.74705C10.9895 5.42243 10.0087 5.23693 9.0278 5.23693C8.79426 5.23693 8.56072 5.23693 8.28048 5.28331C8.04694 5.28331 7.8134 5.32968 7.57986 5.32968C7.48645 5.32968 7.34633 5.32968 7.25292 5.37605C7.20621 5.37605 7.06609 5.42243 7.06609 5.4688C7.06609 5.51518 7.1595 5.51518 7.1595 5.51518C7.2062 5.51518 7.25292 5.51518 7.29963 5.51518C7.43975 5.51518 7.53316 5.4688 7.67328 5.4688C7.90682 5.4688 8.14036 5.4688 8.3739 5.4688C8.60744 5.4688 8.84097 5.51517 9.07451 5.56155C9.54159 5.60792 10.0087 5.74705 10.4757 5.88617C10.7093 5.97892 10.9428 6.0253 11.1764 6.11804C11.4099 6.21079 11.5967 6.30354 11.8303 6.39628C12.0171 6.48903 12.2039 6.53541 12.3908 6.67453L12.4375 6.7209H12.3908C12.344 6.7209 12.2973 6.67453 12.2039 6.67453C11.7836 6.48904 11.3632 6.30354 10.8961 6.21079C10.429 6.07167 9.96195 5.93255 9.49488 5.88617C8.56073 5.74705 7.62657 5.74705 6.69242 5.97892C5.89839 6.16442 5.10436 6.58178 4.54387 7.18464C4.40375 7.32377 4.26362 7.50926 4.1235 7.64838C4.03008 7.74113 3.98338 7.83388 3.93667 7.92663C4.17021 7.92663 4.07679 8.1585 4.1235 8.1585Z" fill="#FF7D00"/>
<path fill-rule="evenodd" clip-rule="evenodd" d="M15.4269 16.2276C14.9131 15.8566 14.3526 15.5783 13.7921 15.3001C12.4376 14.6972 11.0364 14.3262 9.58844 13.9552C8.7477 13.7697 7.90696 13.5379 7.15964 13.0741C6.41232 12.6104 5.85183 11.8684 5.80512 10.9873C5.80512 10.1526 6.50573 9.27146 7.39318 9.31783C6.55244 9.13234 5.75842 9.87432 5.665 10.7091C5.52488 12.0075 6.64586 12.935 7.67342 13.4451C8.79441 14.0016 10.0088 14.3262 11.1765 14.6509C12.4376 15.0219 13.6987 15.4392 14.773 16.2276C16.8281 17.7579 17.9958 20.1694 18.4162 22.6272C18.4629 22.8127 18.4629 22.9982 18.5096 23.1837C18.5096 23.2764 18.5096 23.3692 18.5563 23.4156C18.5563 23.3692 18.6964 23.1373 18.7431 23.091C18.7898 22.9518 18.7431 22.7663 18.7431 22.6272C18.7898 21.4679 19.8174 20.7722 20.7049 20.123C21.7324 19.3346 22.6199 18.268 23.3205 17.1551L23.3672 17.1087C24.1145 15.903 24.6283 14.419 24.3013 13.0278C25.2355 12.5176 26.3565 12.3785 27.3841 12.6104C27.3373 11.7293 27.2439 10.7091 26.4966 10.1989C25.7493 9.64245 24.675 9.9207 23.881 10.3844C21.966 11.4974 20.6581 13.5379 18.603 14.2799C20.1911 14.2335 21.5456 12.935 23.1804 12.8423C21.5923 13.8161 19.8641 14.3262 18.0892 14.79C17.4353 14.9755 17.5287 15.5783 17.482 16.1348C17.482 16.7377 17.3419 17.3406 17.2952 17.9434C16.7347 17.3406 16.1275 16.7377 15.4269 16.2276ZM22.6666 9.22509L22.6199 9.17871C22.3396 9.03959 22.1061 8.94684 21.7791 8.94684C21.4989 8.94684 21.2186 8.94684 20.9851 9.03959C20.8917 9.08596 20.7983 9.13234 20.7049 9.22509C20.6114 9.31783 20.518 9.41058 20.4713 9.5497C20.4246 9.64245 20.3312 9.78158 20.2845 9.9207C20.2378 10.0598 20.1444 10.1526 20.0977 10.2917C20.0042 10.4308 19.9575 10.5699 19.8641 10.7091C19.8641 10.7554 19.8174 10.8018 19.8641 10.8018C19.9575 10.9409 22.6199 9.27146 22.6199 9.27146C22.5732 9.27146 22.6199 9.27146 22.6666 9.22509ZM16.1742 7.13825C16.0808 7.0455 15.9874 7.09188 15.9874 7.231C15.9874 7.37012 16.2209 9.13234 16.2676 9.13234C16.4078 8.99322 16.5479 8.76134 16.6413 8.4831C16.7347 8.2976 16.8748 7.88024 16.8748 7.74112C16.8748 7.69474 16.8281 7.64836 16.8281 7.64836C16.8281 7.60199 16.7814 7.60199 16.7347 7.55562L16.1742 7.13825ZM21.8258 9.59608C21.7791 9.59608 21.8258 9.59608 21.8258 9.59608C21.639 9.50333 21.4989 9.45696 21.3588 9.45696C21.2186 9.45696 21.0318 9.45695 20.9384 9.50333C20.8917 9.5497 20.845 9.54971 20.7983 9.59608C20.7516 9.64245 20.7049 9.68883 20.6581 9.78157C20.6114 9.82795 20.5647 9.92069 20.5647 9.96707C20.518 10.0134 20.4713 10.1062 20.4246 10.1526C20.3779 10.2453 20.3312 10.2917 20.2845 10.3844V10.4308C20.2845 10.5236 21.7324 9.64245 21.8258 9.59608C21.7791 9.59608 21.7791 9.59608 21.8258 9.59608Z" fill="white"/>
<path fill-rule="evenodd" clip-rule="evenodd" d="M16.2675 7.55561C16.2208 7.50924 16.1274 7.55562 16.1741 7.60199C16.1741 7.69474 16.3142 8.6686 16.3142 8.6686C16.3609 8.57585 16.4544 8.4831 16.5478 8.2976C16.5945 8.20486 16.6879 7.97298 16.6879 7.88023C16.6879 7.83386 16.6879 7.83386 16.6879 7.83386L16.6412 7.78749L16.2675 7.55561ZM21.8724 9.45696C21.6856 9.36421 21.5455 9.31783 21.4054 9.31783C21.2652 9.31783 21.1251 9.31784 20.985 9.36421C20.9383 9.41058 20.8916 9.41058 20.8449 9.45696C20.7982 9.50333 20.7515 9.5497 20.7047 9.64245C20.658 9.68882 20.658 9.78158 20.6113 9.82795C20.5646 9.87433 20.5179 9.96707 20.5179 10.0134C20.4712 10.1062 20.4245 10.1526 20.3778 10.2453V10.2917C20.4245 10.3381 21.8257 9.45696 21.8724 9.45696Z" fill="#151B19"/>
<path fill-rule="evenodd" clip-rule="evenodd" d="M16.0342 5.70064C16.0342 5.74702 16.0809 5.83977 16.0809 5.88614C16.1276 5.93252 16.221 5.93252 16.2677 5.97889C16.2677 5.97889 16.3144 5.97889 16.3144 5.93251C16.3611 5.83976 16.4545 5.79339 16.5012 5.70064C16.5947 5.56152 16.7348 5.32965 16.6414 5.14415C16.5947 5.00503 17.015 4.49492 16.9683 4.30942C16.9216 4.07755 16.7815 4.03117 16.8282 3.93842C16.8749 3.84568 16.9683 3.89206 17.1551 3.79931C17.2019 3.75293 17.2486 3.70656 17.2953 3.61381C17.342 3.52106 17.2953 3.47468 17.2486 3.38194C17.2019 3.28919 17.1552 3.24282 17.1084 3.19644C17.015 3.10369 16.9683 3.05732 16.8749 3.01094C16.7348 2.87182 16.548 2.77908 16.3611 2.63995C16.221 2.54721 16.0342 2.45446 15.894 2.40808C15.8006 2.40808 15.7539 2.40808 15.6605 2.45445C15.6138 2.50083 15.5671 2.59358 15.5204 2.63995C15.4737 2.82545 15.4737 3.01095 15.5204 3.19644C15.5671 3.42831 15.5671 3.61381 15.6138 3.84568C15.6605 4.26304 15.7539 4.68041 15.8006 5.09778C15.9407 5.28327 15.9875 5.46877 16.0342 5.70064Z" fill="white"/>
<path fill-rule="evenodd" clip-rule="evenodd" d="M17.4351 13.677C17.3417 13.5842 15.847 12.3785 15.7536 12.3321C15.7069 12.2858 15.6602 12.2858 15.6135 12.2394C15.5668 12.2394 15.5668 12.2394 15.5201 12.193C15.5201 12.193 15.4734 12.193 15.4267 12.193C15.4267 12.193 15.4267 12.193 15.4267 12.2394V12.2858C15.4267 12.3321 15.38 12.3321 15.38 12.3785C15.3333 12.4249 15.3332 12.4713 15.2865 12.564C15.2398 12.6568 15.1931 12.7959 15.1931 12.8886C15.1464 13.1205 15.1931 13.3524 15.2865 13.5379C15.4267 13.7697 15.6135 13.9552 15.847 14.0944C15.9405 14.1407 16.0806 14.1871 16.174 14.2335C16.2674 14.2799 17.0147 14.3262 17.0614 14.3262C17.1081 14.3262 17.2016 14.3262 17.2483 14.3262C17.295 14.3262 17.3884 14.3262 17.4351 14.3262C17.4818 14.3262 17.5285 14.3262 17.5752 14.2799C17.6219 14.2799 17.6686 14.2335 17.6686 14.1871C17.6686 14.1407 17.6686 14.0944 17.6219 14.048C17.5752 13.8161 17.5285 13.7697 17.4351 13.677Z" fill="#1B201C"/>
</svg>
