<svg width="136" height="134" viewBox="0 0 136 134" fill="none" xmlns="http://www.w3.org/2000/svg">
<path d="M30.1141 56.2895C26.7978 74.1899 23.4349 92.1367 20.0719 110.269C13.3927 109.063 6.90037 107.857 0.0810547 106.605C0.734962 101.597 1.24875 96.8204 1.94936 92.0439C4.79853 72.3349 7.92793 52.6259 10.4969 32.8706C11.758 22.9001 17.0826 16.0831 25.2098 10.8892C28.2925 8.89513 31.5153 7.17929 34.6914 5.32433C38.2879 3.23749 42.1179 2.26364 46.3216 2.07814C57.6716 1.56802 69.0215 0.686917 80.3715 0.037679C81.8661 -0.0550693 83.5009 -0.00869512 84.8554 0.547794C91.3945 3.33024 98.027 5.97357 104.239 9.26613C110.078 12.3732 113.954 17.3816 115.729 23.874C121.054 43.3511 126.519 62.7819 131.89 82.2126C133.338 87.4065 134.599 92.6468 136 98.1653C129.601 100.206 123.343 102.2 116.803 104.287C111.245 86.85 105.687 69.5988 100.176 52.3477C100.035 52.3941 99.8953 52.3941 99.7551 52.4404C101.343 77.9462 102.978 103.498 104.613 129.19C81.5392 130.627 58.6524 132.065 35.4854 133.502C33.8507 107.811 32.2626 82.0735 30.6278 56.3358C30.3943 56.3358 30.2542 56.2895 30.1141 56.2895ZM38.3813 130.024C59.4465 128.726 80.1379 127.427 101.11 126.129C99.2414 96.6813 97.4198 67.3265 95.5515 37.9717C96.7659 37.7398 97.6533 37.5543 98.7743 37.3225C105.453 58.2372 112.133 79.0128 118.859 100.113C123.296 98.7218 127.593 97.3769 131.937 95.9857C130.956 92.1367 130.068 88.5659 129.134 85.0414C123.716 65.3324 118.205 45.6698 112.927 25.9608C111.105 19.1902 107.088 14.4137 101.063 11.1211C97.9803 9.45162 94.8041 7.92128 91.5813 6.48368C89.0591 5.3707 86.3968 4.58234 83.7344 3.65486C80.4649 13.4398 74.9067 20.2104 64.2573 21.4161C52.3002 22.761 44.8737 16.7787 40.0628 6.43731C33.3369 9.45162 27.0781 12.9297 21.6133 17.6598C17.5964 21.1379 15.0275 25.3116 14.2335 30.6446C11.4777 49.4261 8.62855 68.2076 5.8728 86.9891C5.03206 92.554 4.42487 98.1189 3.67755 103.962C8.34831 104.797 12.7855 105.632 17.3629 106.466C21.4264 84.7168 25.3966 63.2456 29.4134 41.6353C30.6278 41.7744 31.6087 41.8671 32.7764 41.9599C34.6914 71.3611 36.5597 100.623 38.3813 130.024ZM80.0445 3.51574C67.9473 4.25772 55.8967 4.99971 43.7994 5.78807C46.1348 13.6717 54.0751 18.8192 62.7627 18.2627C71.4036 17.7062 78.69 11.5848 80.0445 3.51574Z" fill="#333333"/>
<path d="M38.3809 130.024C36.5126 100.623 34.691 71.361 32.8227 41.9135C31.6551 41.7744 30.6275 41.6816 29.4598 41.5889C25.4429 63.1992 21.4728 84.6704 17.4092 106.42C12.7852 105.585 8.39464 104.797 3.72387 103.916C4.47119 98.0725 5.12511 92.5076 5.91914 86.9427C8.67489 68.1612 11.5708 49.3797 14.2798 30.5982C15.0738 25.2652 17.6428 21.0915 21.6596 17.6134C27.1711 12.8833 33.3832 9.40522 40.1091 6.39091C44.92 16.686 52.3465 22.6682 64.3037 21.3697C74.953 20.164 80.558 13.3934 83.7808 3.60846C86.4431 4.58232 89.1054 5.37068 91.6277 6.43728C94.8505 7.8285 98.0266 9.35885 101.109 11.0747C107.135 14.3673 111.151 19.1438 112.973 25.9144C118.251 45.6234 123.763 65.286 129.181 84.995C130.161 88.5195 131.002 92.0903 131.983 95.9393C127.639 97.3305 123.342 98.6754 118.905 100.067C112.179 78.9664 105.5 58.1908 98.8206 37.2761C97.6996 37.5079 96.8122 37.6934 95.5978 37.9253C97.4661 67.2801 99.2877 96.6349 101.156 126.083C80.1376 127.427 59.4461 128.726 38.3809 130.024Z" fill="#9CE3FD"/>
<path d="M80.0442 3.51569C78.6897 11.5848 71.4033 17.7062 62.7624 18.2627C54.0748 18.8191 46.1345 13.6716 43.7991 5.78802C55.8964 5.04603 67.9469 4.30405 80.0442 3.51569Z" fill="#9CE3FD"/>
</svg>
