<svg width="38" height="36" viewBox="0 0 38 36" fill="none" xmlns="http://www.w3.org/2000/svg">
<path fill-rule="evenodd" clip-rule="evenodd" d="M12.5503 18.7962C13.0641 19.1208 13.6713 19.1672 14.2318 18.9817C13.6246 19.0744 13.0641 19.0744 12.5503 18.7962C12.5503 18.7498 12.5036 18.7962 12.5503 18.7962Z" fill="#1A1D1E"/>
<path fill-rule="evenodd" clip-rule="evenodd" d="M26.5626 12.7675C26.0489 12.4429 26.0489 10.9126 26.4225 9.79957C26.7962 8.73297 27.4501 8.08373 28.5711 8.13011C29.6454 8.17648 31.1867 8.82572 31.3735 9.47496C31.5604 10.1242 30.3927 10.6807 29.3184 11.4227C28.1507 12.211 27.0764 13.0921 26.5626 12.7675Z" fill="#1B1918"/>
<path fill-rule="evenodd" clip-rule="evenodd" d="M20.3504 10.217C20.4906 10.1242 20.0702 9.2895 19.8367 8.82576C19.5564 8.26927 19.3696 7.94465 19.2295 7.75916C19.0893 7.48091 18.9025 7.15629 18.4821 4.74484C18.2486 3.44636 18.1085 2.51888 18.4821 2.14789C18.9025 1.73052 19.3229 2.33338 19.8834 2.47251C20.4439 2.61163 20.4439 2.75075 20.9576 3.029C24.2739 4.60572 29.4584 4.69846 32.6346 2.8435C33.2417 2.51888 34.3627 1.49865 34.4095 1.31315C34.5963 0.663915 35.4837 0.524794 35.437 0.756664C35.3436 1.31315 36.1376 2.42613 36.1376 2.98262C36.0442 4.74484 36.0442 6.73893 35.437 8.40839C35.437 8.40839 35.5304 8.50114 35.5304 8.54752C35.5771 8.59389 37.6323 11.0517 37.1185 14.8544C36.8382 17.0804 35.9041 19.1672 34.8298 21.1149C32.7747 24.9176 29.8321 28.2565 26.8895 31.4563C25.4416 33.0794 23.1062 36.001 23.1062 36.001C23.1062 36.001 17.548 32.1983 15.9599 31.0853C12.1766 28.3956 8.53341 25.5204 5.26387 22.2743C3.72252 20.7439 2.27459 19.3527 1.7141 17.1731C1.20032 15.2254 1.24703 13.1386 1.94764 11.2372C2.22789 10.4952 2.55484 9.93874 2.64825 9.70687C2.74167 9.56775 3.67582 7.99103 5.12375 6.92442C6.75852 5.67232 9.14061 4.83759 11.476 5.11583C15.2593 5.62595 18.9959 8.91851 19.6031 9.66049C19.6965 9.79962 20.2103 10.3097 20.3504 10.217Z" fill="white"/>
<path fill-rule="evenodd" clip-rule="evenodd" d="M5.63746 12.0256C5.68417 12.0256 5.73087 11.9328 5.73087 11.9328C5.77757 11.8865 5.82429 11.7937 5.82429 11.7473C5.87099 11.6546 5.96441 11.5155 6.05782 11.4227C6.24466 11.1908 6.43149 11.0053 6.61832 10.8198C7.41235 10.0779 8.39321 9.52137 9.42078 9.19675C10.5418 8.87214 11.7562 8.77939 12.9239 8.91851C14.0448 9.05763 15.1658 9.33588 16.1934 9.79962C17.1275 10.217 18.0617 10.8199 18.7623 11.6082C19.136 12.0256 19.4162 12.4893 19.603 12.9994C19.8366 13.5559 19.93 14.1588 19.93 14.7153C19.93 15.3181 19.7899 15.921 19.7899 16.5239C19.7899 17.034 20.257 17.2195 20.6306 17.5441C20.8174 17.7296 20.8174 17.8223 21.051 17.9151C21.3312 17.9615 21.4713 17.9151 21.7516 17.9615C21.845 17.9615 22.0785 18.0542 22.172 17.9615C22.2187 17.9151 22.172 18.1006 22.1252 18.0078C22.0785 17.9151 21.9851 17.8223 21.9384 17.7296C21.845 17.6368 21.7516 17.4977 21.6582 17.405C21.4713 17.2195 21.4246 16.7094 21.1911 16.5239C20.9576 16.3847 20.724 16.2456 20.5372 16.1065C20.3504 15.9674 20.0234 16.0601 19.9767 15.8283C19.93 15.55 19.93 15.2254 19.9767 14.9471C20.0701 14.3443 20.1635 13.7414 20.1635 13.1386C20.1635 12.5357 20.1635 11.9328 20.0701 11.33C19.93 10.1242 19.603 8.96488 19.2294 7.80553C18.8557 6.69255 18.3419 5.57958 18.1084 4.42022C18.015 3.81736 17.9683 3.21449 18.015 2.658C18.015 2.51888 18.0617 2.33339 18.0617 2.19426C18.1084 2.05514 18.1551 1.86964 18.2485 1.7769C18.3886 1.63777 18.5755 1.68415 18.7623 1.7769C18.9024 1.82327 18.9958 1.91602 19.136 2.00877C19.2761 2.10151 19.3695 2.14789 19.5096 2.24064C20.0234 2.51888 20.5839 2.75075 21.1444 2.93625C22.2654 3.30724 23.4331 3.53911 24.6008 3.63186C25.208 3.67823 25.8152 3.72461 26.4224 3.72461C27.0296 3.72461 27.6835 3.77098 28.2907 3.77098C28.8979 3.77098 29.5051 3.72461 30.1123 3.63186C30.6728 3.53911 31.28 3.35362 31.7937 3.12175C32.3075 2.88987 32.7746 2.56526 33.2417 2.24064C33.4752 2.05514 33.662 1.86965 33.8489 1.63778C34.0357 1.4059 34.1758 1.17403 34.3627 0.988537C34.5028 0.80304 34.6896 0.57117 34.9698 0.478422C35.2034 0.385674 35.4369 0.617543 35.5303 0.80304C35.6705 1.03491 35.7172 1.26678 35.7639 1.54502C35.8106 1.82327 35.8573 2.14789 35.904 2.42613C36.0908 3.63186 36.1375 4.88396 36.0441 6.08969C35.9974 6.69255 35.904 7.29542 35.7639 7.85191C35.7172 8.08378 35.6705 8.36202 35.5303 8.59389C35.4836 8.68664 35.3902 8.77939 35.2968 8.82576C35.2501 8.87214 35.11 8.91851 35.0633 8.87214C34.9699 8.82576 35.0166 8.68664 35.0166 8.59389C35.0633 8.45477 35.0633 8.31565 35.11 8.17653C35.1567 7.89828 35.2034 7.57366 35.2501 7.29542C35.2968 6.69255 35.3435 6.08969 35.3902 5.48682C35.3902 5.16221 35.4369 4.88396 35.4369 4.55934C35.4369 4.2811 35.4369 4.00285 35.3435 3.77098C35.2968 3.67824 35.2034 3.58549 35.11 3.49274C35.0166 3.44637 34.8764 3.44637 34.783 3.44637C34.5495 3.49274 34.3159 3.67824 34.1291 3.81736C33.8956 4.00285 33.662 4.18835 33.4752 4.37385C33.3818 4.4666 33.2417 4.55934 33.1483 4.69847C33.0548 4.79121 33.0081 4.88396 32.9614 4.97671C32.9147 5.06946 32.9147 5.20858 32.9614 5.30133C33.0081 5.39408 33.1015 5.48683 33.195 5.5332C33.2884 5.62595 33.3818 5.7187 33.4285 5.81145C33.4752 5.95057 33.5219 6.08969 33.5219 6.22881C33.5219 6.46068 33.5686 6.7853 33.7554 6.92443C33.8022 6.9708 33.8489 6.9708 33.9423 7.01717C33.989 7.01717 34.0357 7.01717 34.0824 7.06355C34.1758 7.15629 34.1291 7.29542 34.0824 7.38817C34.0824 7.66641 34.2225 7.94465 34.3627 8.17653C34.5495 8.4084 34.7363 8.59389 34.9231 8.77939C35.1567 8.96489 35.3435 9.15038 35.5771 9.33588C35.7639 9.52137 35.9507 9.75325 36.1375 9.93874C36.4645 10.4025 36.7447 10.9126 36.9316 11.4227C37.3519 12.5357 37.4454 13.7414 37.3052 14.9008C37.1651 16.0601 36.8849 17.1731 36.4178 18.2397C35.9974 19.3063 35.4836 20.3729 34.8764 21.3932C34.2692 22.4134 33.6153 23.3872 32.9147 24.3611C32.2141 25.3349 31.4201 26.2624 30.6728 27.1899C29.8787 28.1174 29.038 29.0449 28.1972 29.926C27.3565 30.8535 26.5158 31.7346 25.7217 32.6621C25.3014 33.1258 24.9277 33.5895 24.5073 34.0533C24.1337 34.517 23.76 34.9808 23.3397 35.3981C23.2462 35.4909 23.1528 35.5836 23.1061 35.6764C23.1061 35.7228 23.0127 35.7691 23.0594 35.8155C23.1061 35.8619 23.1528 35.7691 23.1995 35.7691C23.3864 35.5836 23.5732 35.3518 23.76 35.1199C24.1337 34.6562 24.4606 34.2388 24.7409 33.7287C25.2547 32.7548 25.4415 31.5955 25.3014 30.4825C25.2547 30.2042 25.208 29.926 25.1145 29.6477C25.0211 29.3695 24.9744 29.0913 24.881 28.813C24.881 28.7666 24.8343 28.6275 24.6942 28.6739C24.6475 28.7203 24.6008 28.7666 24.6008 28.813C24.5541 28.8594 24.5073 28.9058 24.4606 28.9521C24.2738 29.1376 23.9468 29.1376 23.76 29.3231C23.6666 29.4159 23.6199 29.5086 23.5265 29.6014C23.4331 29.6941 23.3864 29.6477 23.3397 29.555C23.2929 29.4622 23.2929 29.3695 23.2929 29.2768C23.2929 29.1376 23.2462 28.9985 23.1995 28.8594C23.1528 28.7203 23.1528 28.5811 23.1061 28.442C23.1061 28.3493 23.1061 28.1174 22.966 28.1174C22.9193 28.1174 22.8726 28.1638 22.8259 28.2101C22.7792 28.2565 22.7325 28.3029 22.6857 28.3493C22.5923 28.442 22.4989 28.5348 22.4055 28.6275C22.3588 28.7203 22.2654 28.7666 22.172 28.813C22.0318 28.8594 21.9851 28.7203 21.9384 28.6275C21.7983 28.3956 21.5181 28.2101 21.3312 28.0247C21.2378 27.9319 21.1444 27.8855 21.051 27.7928C21.0043 27.7464 20.9109 27.6537 20.8174 27.7C20.724 27.7464 20.7707 27.8855 20.7707 27.9783C20.8174 28.1174 20.8642 28.2565 20.8642 28.3956C20.9109 28.6739 20.9576 28.9985 21.0043 29.2768C21.051 29.4159 21.0977 29.5086 21.0977 29.6477C21.0977 29.6941 21.0977 29.7405 21.0977 29.7405C21.051 29.7869 21.0043 29.6941 21.0043 29.6941C20.9576 29.6477 20.9576 29.6014 20.9108 29.5086C20.8641 29.4622 20.8174 29.4159 20.7707 29.3695C20.6773 29.2767 20.5839 29.184 20.4438 29.1376C20.3504 29.0913 20.2102 28.9985 20.0701 28.9985C19.93 28.9985 19.93 29.1376 19.93 29.2304C19.93 29.3231 19.9767 29.4159 19.9767 29.5086C19.9767 29.6477 19.7899 29.555 19.7432 29.5086C19.603 29.4622 19.4629 29.3695 19.3695 29.3231C19.2294 29.2768 19.0893 29.184 18.9491 29.1376C18.7156 29.0449 18.4353 28.9058 18.2018 28.7666C18.1084 28.7203 18.015 28.6739 17.9216 28.7666C17.8749 28.8594 17.8749 28.9985 17.9216 29.1376C17.9683 29.2767 17.9683 29.4159 18.015 29.555C18.0617 29.6941 18.1551 29.7869 18.2485 29.926C18.2952 29.9724 18.2952 30.0187 18.2952 30.0651C18.2952 30.1115 18.2018 30.1115 18.1551 30.1115C18.1084 30.1115 18.015 30.1115 17.9683 30.1115C17.8749 30.1115 17.8281 30.1579 17.7347 30.1579C17.4545 30.2506 17.2209 30.4361 16.9407 30.5752C16.8006 30.668 16.7072 30.7143 16.567 30.8071C16.4736 30.8535 16.3335 30.8998 16.2401 30.9462C16.1467 30.9926 16.0533 31.0853 16.0533 31.1781C16.1 31.2708 16.2401 31.3172 16.2868 31.3636C16.567 31.5027 16.8006 31.6882 17.0341 31.8737C17.5479 32.2447 18.015 32.6157 18.5288 32.9403C19.5096 33.6359 20.4905 34.3315 21.5181 34.9808C21.7516 35.1199 21.9851 35.3054 22.2654 35.4909C22.4055 35.5836 22.5923 35.7228 22.7792 35.7691C22.8259 35.7691 22.9193 35.8155 22.8726 35.7227C22.8726 35.6764 22.8259 35.6764 22.7792 35.63C22.7324 35.5836 22.639 35.5836 22.5923 35.5373C22.3121 35.3981 22.0786 35.259 21.7983 35.0735C21.2845 34.7489 20.7707 34.4243 20.2569 34.0997C19.7432 33.775 19.2294 33.4504 18.7156 33.0794C17.688 32.3838 16.6605 31.6882 15.6329 30.9926C14.6053 30.297 13.6245 29.6014 12.6436 28.8594C11.6627 28.1174 10.6819 27.3754 9.70101 26.6334C8.72015 25.8914 7.78601 25.1031 6.80515 24.3147C5.45063 23.1554 4.18951 21.9033 3.16195 20.4657C2.8817 20.0483 2.60146 19.6309 2.36792 19.2136C1.80743 18.1933 1.38706 17.1267 1.15352 15.9674C0.919984 14.808 0.873271 13.6023 1.0601 12.4429C1.24693 11.3763 1.6206 10.3097 2.1811 9.38225C2.74159 8.45477 3.4422 7.62004 4.28294 6.9708C5.17038 6.27519 6.15124 5.76507 7.22552 5.44045C8.39321 5.11583 9.60761 5.02309 10.7753 5.11583C11.1023 5.16221 11.3825 5.20858 11.7095 5.25495C11.943 5.30133 12.1298 5.3477 12.3634 5.39408C12.3634 5.39408 12.5035 5.44045 12.4568 5.48682C12.4101 5.48682 12.3634 5.48682 12.3634 5.48682C12.3166 5.48682 12.3166 5.48682 12.2699 5.48682C11.9897 5.44045 11.7094 5.39408 11.3825 5.3477C10.2148 5.16221 8.95369 5.30133 7.83271 5.62595C6.75843 5.90419 5.77758 6.41431 4.89013 7.10992C4.0494 7.75916 3.34879 8.59389 2.88171 9.52138C2.60146 10.0315 2.41463 10.5416 2.2745 11.0981C2.18109 11.3763 2.13438 11.6546 2.08768 11.9328C2.08768 11.9792 2.04097 12.072 2.08768 12.1183C2.08768 12.1647 2.13439 12.1647 2.13439 12.1183C2.18109 12.072 2.1811 12.0256 2.1811 11.9792C2.27451 11.701 2.32122 11.4227 2.41463 11.1445C2.50805 10.8662 2.64817 10.6344 2.78829 10.3561C3.06854 9.84599 3.39549 9.38225 3.72244 8.96488C4.42306 8.13015 5.26379 7.38816 6.19794 6.83168C7.1788 6.22881 8.2998 5.81144 9.42078 5.67232C10.028 5.57957 10.6352 5.57958 11.1957 5.57958C11.2424 5.57958 11.3358 5.57958 11.3825 5.57958C11.4292 5.57958 11.5226 5.57957 11.5693 5.62595C11.5693 5.67232 11.4759 5.67232 11.4759 5.67232C11.3825 5.67232 11.3358 5.67232 11.2424 5.67232C10.9154 5.67232 10.6352 5.67232 10.3082 5.7187C10.028 5.76507 9.70103 5.85782 9.42078 5.95057C9.14053 6.04331 8.86028 6.08969 8.58003 6.22881C8.53333 6.22881 8.39321 6.32156 8.43992 6.36793C8.48662 6.36793 8.58004 6.36793 8.62674 6.36793C8.90699 6.32156 9.18723 6.22881 9.46748 6.18244C10.0747 6.08969 10.6819 6.04332 11.2424 6.08969C11.8496 6.08969 12.4568 6.13606 13.0173 6.27519C14.1382 6.46068 15.2125 6.83167 16.2401 7.34179C16.7539 7.62003 17.2677 7.89828 17.7347 8.2229C18.2018 8.59389 18.6689 8.96488 19.0893 9.38225C19.2761 9.56775 19.5096 9.79962 19.6965 9.98512C19.6965 10.0315 19.7899 10.0779 19.7899 10.1242C19.7899 10.1706 19.6965 10.0779 19.6965 10.0779C19.603 9.98512 19.5096 9.89237 19.4162 9.79962C19.0426 9.38225 18.5755 9.05763 18.1084 8.73301C17.1742 8.13015 16.1467 7.62003 15.0724 7.34179C14.7921 7.24904 14.5119 7.20267 14.2317 7.10992C14.0915 7.06354 13.9514 7.01717 13.8113 7.01717C13.7646 7.01717 13.7179 7.01717 13.7179 7.01717C13.6712 7.01717 13.6712 7.06354 13.7179 7.10992C13.7646 7.15629 13.7646 7.1563 13.8113 7.1563C13.858 7.20267 13.9514 7.20267 13.9981 7.24904C14.1382 7.29542 14.2317 7.38816 14.3718 7.48091C14.6053 7.62004 14.8856 7.80553 15.1191 7.94465C15.3993 8.08378 15.6329 8.26927 15.9131 8.36202C16.0533 8.4084 16.1467 8.50115 16.2868 8.54752C16.3335 8.59389 16.3802 8.59389 16.4269 8.64027L16.4736 8.68664C16.4736 8.73301 16.4269 8.73301 16.3802 8.73301C16.3335 8.73301 16.2868 8.68664 16.2401 8.68664C16.1467 8.64027 16.1 8.64027 16.0065 8.59389C15.7263 8.50114 15.4928 8.36202 15.2125 8.31565C14.0448 8.0374 12.8304 7.89828 11.616 7.99103C11.3358 8.0374 11.0088 8.0374 10.7286 8.08378C10.4483 8.13015 10.1214 8.2229 9.84115 8.26927C9.70102 8.26927 9.5609 8.31565 9.42078 8.36202C9.37407 8.36202 9.18723 8.40839 9.23394 8.50114C9.23394 8.54752 9.32736 8.54752 9.37407 8.50114C9.42078 8.50114 9.51419 8.50114 9.5609 8.45477C9.70102 8.4084 9.88785 8.4084 10.028 8.36202C10.3082 8.31565 10.6352 8.31565 10.9154 8.31565C11.1957 8.31565 11.5226 8.31565 11.8029 8.31565C12.4101 8.36202 12.9706 8.4084 13.5778 8.54752C13.858 8.59389 14.1382 8.68664 14.4652 8.77939C14.7454 8.87214 15.0257 8.96489 15.3059 9.05763C15.5395 9.15038 15.8197 9.19676 16.0533 9.33588C16.0533 9.33588 16.1467 9.38225 16.1 9.42863C16.1 9.475 16.0533 9.475 16.0533 9.475C15.9598 9.475 15.9131 9.42863 15.8197 9.42863C15.2592 9.24313 14.6987 9.10401 14.1382 8.96488C13.531 8.82576 12.9706 8.73301 12.3634 8.68664C11.1957 8.59389 9.98127 8.68664 8.90699 9.10401C7.92613 9.42863 7.03869 10.0315 6.33807 10.8198C6.15124 11.0053 6.01112 11.2372 5.871 11.4691C5.77758 11.6082 5.73087 11.701 5.63746 11.8401C5.73087 11.7473 5.59075 11.9792 5.63746 12.0256Z" fill="#FF7D00"/>
<path fill-rule="evenodd" clip-rule="evenodd" d="M20.584 20.8366C19.8834 20.4656 19.1827 20.141 18.4354 19.8628C16.7072 19.2599 14.8856 18.9353 13.064 18.6571C11.9898 18.4716 10.9155 18.3324 9.98133 17.8223C9.04717 17.3122 8.20644 16.4311 8.11302 15.4109C8.01961 14.3443 8.81364 13.1849 9.88792 13.1849C8.86035 13.0458 7.92619 14.066 7.87948 15.0862C7.83277 16.7093 9.32742 17.7296 10.6819 18.2861C12.1299 18.8889 13.6712 19.1208 15.2126 19.399C16.8006 19.7237 18.4354 20.0947 19.8366 20.9758C22.5457 22.6452 24.2739 25.5204 25.0679 28.5347C25.1146 28.7666 25.1613 28.9521 25.208 29.184C25.208 29.2767 25.2547 29.3695 25.2547 29.5086C25.2547 29.4159 25.4416 29.184 25.4416 29.0449C25.4416 28.8594 25.4416 28.6739 25.3948 28.4884C25.3481 27.0044 26.5625 26.0769 27.5434 25.1494C28.7578 24.0365 29.7387 22.6452 30.486 21.2076C30.486 21.1613 30.5327 21.1613 30.5327 21.1149C31.3267 19.4918 31.8405 17.6368 31.2333 15.921C32.3543 15.179 33.7088 14.8544 35.0633 15.0862C34.9232 14.0196 34.6897 12.7675 33.7088 12.2111C32.728 11.6082 31.4201 12.0719 30.486 12.7212C28.244 14.2979 26.8428 16.9876 24.3673 18.1469C26.3757 17.9151 27.9171 16.1992 29.8788 15.8746C28.0105 17.2195 25.9553 18.1006 23.7601 18.8426C22.9193 19.1208 23.1529 19.8628 23.1062 20.5584C23.1529 21.3004 23.1062 22.0887 23.0595 22.8307C22.3589 22.0424 21.5181 21.3931 20.584 20.8366ZM28.8045 11.3299L28.7578 11.2836C28.4309 11.1444 28.0572 11.0517 27.6835 11.0981C27.3566 11.0981 26.9829 11.1908 26.7027 11.3299C26.5625 11.3763 26.4691 11.4691 26.3757 11.6082C26.2823 11.7473 26.1889 11.8864 26.0955 12.0256C26.002 12.1647 25.9553 12.3502 25.9086 12.4893C25.8619 12.6284 25.7685 12.8139 25.6751 12.953C25.5817 13.1385 25.4883 13.324 25.4416 13.5095C25.4416 13.5559 25.3949 13.6023 25.4416 13.6487C25.5817 13.7878 28.6644 11.4691 28.7111 11.4227C28.7578 11.3763 28.8045 11.3763 28.8045 11.3299ZM20.5373 9.42861C20.3971 9.33586 20.257 9.38223 20.3037 9.56773C20.3037 9.70685 20.8175 11.9328 20.8642 11.9328C21.0043 11.7473 21.1445 11.4691 21.2846 11.0981C21.378 10.8662 21.5181 10.3097 21.5181 10.1242C21.5181 10.0778 21.4714 10.0315 21.4714 9.9851C21.4247 9.93872 21.4247 9.89235 21.3313 9.84597L20.5373 9.42861ZM27.8237 11.8864C27.7769 11.8864 27.8237 11.8864 27.8237 11.8864C27.5901 11.7937 27.4033 11.7473 27.2164 11.7473C27.0296 11.7473 26.8428 11.7937 26.656 11.8864C26.5625 11.9328 26.5158 11.9792 26.4691 12.0256C26.4224 12.0719 26.3757 12.1647 26.329 12.2574C26.2823 12.3502 26.2356 12.4429 26.2356 12.4893C26.1889 12.582 26.1422 12.6748 26.0955 12.7675C26.0488 12.8603 26.0021 12.953 25.9553 13.0922C25.9553 13.0922 25.9553 13.1385 25.9553 13.1849C26.0021 13.2313 27.7302 11.9328 27.8237 11.8864C27.7769 11.8864 27.7769 11.8864 27.8237 11.8864Z" fill="white"/>
<path fill-rule="evenodd" clip-rule="evenodd" d="M20.7243 9.98505C20.6309 9.93868 20.5842 9.98505 20.5842 10.0778C20.5842 10.1705 20.8645 11.4226 20.9112 11.4226C21.0046 11.3299 21.098 11.1444 21.1447 10.9589C21.1914 10.8198 21.2848 10.4952 21.2848 10.4024C21.2848 10.356 21.2848 10.356 21.2381 10.3097C21.2381 10.3097 21.1914 10.2633 21.1447 10.2633L20.7243 9.98505ZM27.9173 11.7009C27.8706 11.7009 27.8706 11.7009 27.9173 11.7009C27.6838 11.6081 27.5437 11.5618 27.3101 11.5618C27.1233 11.5618 26.9365 11.6081 26.7963 11.7009C26.7496 11.7473 26.6562 11.7936 26.6095 11.84C26.5628 11.8864 26.5161 11.9791 26.4694 12.0719C26.4227 12.1646 26.376 12.211 26.376 12.3038C26.3293 12.3965 26.2826 12.4893 26.2359 12.5356C26.1892 12.6284 26.1424 12.7211 26.0957 12.8139C26.0957 12.8139 26.0957 12.8602 26.0957 12.9066C26.1891 12.953 27.8239 11.7473 27.9173 11.7009C27.8706 11.7009 27.8706 11.7009 27.9173 11.7009Z" fill="#151B19"/>
<path fill-rule="evenodd" clip-rule="evenodd" d="M20.2105 7.66639C20.2572 7.75914 20.2572 7.85189 20.3039 7.89826C20.3973 7.94464 20.4908 7.94463 20.5842 7.99101L20.6309 7.94463C20.7243 7.85189 20.771 7.71277 20.8177 7.62002C20.9111 7.38815 21.0512 7.15628 20.9578 6.92441C20.9111 6.73891 21.3315 6.0433 21.2848 5.81143C21.1914 5.53318 21.0512 5.48681 21.098 5.34768C21.1447 5.25494 21.2848 5.30131 21.4716 5.11581C21.5183 5.06944 21.6117 4.97669 21.6584 4.88394C21.7051 4.7912 21.6584 4.69845 21.6117 4.6057C21.565 4.51295 21.4716 4.46658 21.3782 4.37383C21.2848 4.28108 21.1447 4.23471 21.0512 4.14196C20.8177 4.00284 20.6309 3.86371 20.3973 3.77096C20.2105 3.67822 19.977 3.58547 19.7434 3.53909C19.65 3.53909 19.5566 3.53909 19.4632 3.63184C19.3698 3.67821 19.3231 3.77096 19.3231 3.86371C19.2763 4.09558 19.3231 4.32745 19.3698 4.55932C19.4165 4.83757 19.5099 5.06944 19.5566 5.34768C19.6967 5.8578 19.7901 6.36791 19.977 6.87803C20.0237 7.15627 20.1171 7.43452 20.2105 7.66639Z" fill="white"/>
<path fill-rule="evenodd" clip-rule="evenodd" d="M22.7791 17.4049C22.6857 17.3122 20.6773 15.9673 20.5371 15.8746C20.4904 15.8282 20.397 15.8282 20.3503 15.7818C20.3036 15.7818 20.3036 15.7818 20.2569 15.7818C20.2102 15.7818 20.1635 15.7818 20.1635 15.7818C20.1635 15.7818 20.1635 15.7818 20.1635 15.8282V15.8746C20.1635 15.921 20.1168 15.9673 20.1168 15.9673C20.0701 16.0601 20.0701 16.1065 20.0233 16.1992C19.9766 16.3383 19.9299 16.4774 19.9299 16.6166C19.9299 16.8948 19.9766 17.1731 20.1168 17.4049C20.3036 17.6832 20.5838 17.915 20.8641 18.0078C21.0042 18.0542 21.1443 18.1005 21.2845 18.1469C21.4246 18.1933 22.312 18.1933 22.4054 18.1469C22.4989 18.1469 22.5456 18.1005 22.639 18.1005C22.7324 18.1005 22.7791 18.0542 22.8725 18.0542C22.9192 18.0542 23.0126 18.0078 23.0593 18.0078C23.106 17.9614 23.1528 17.915 23.1528 17.8687C23.1528 17.7759 23.1061 17.7295 23.1061 17.6832C23.0126 17.6368 22.9192 17.544 22.7791 17.4049C22.8258 17.4513 22.7791 17.4513 22.7791 17.4049Z" fill="#1B201C"/>
</svg>
