<svg width="148" height="131" viewBox="0 0 148 131" fill="none" xmlns="http://www.w3.org/2000/svg">
<path d="M146.102 37.6698C138.301 30.1108 130.501 22.5054 122.654 14.9465C121.767 14.1117 120.693 13.4161 119.572 12.9524C111.164 9.47431 102.663 6.18175 94.3027 2.61094C92.2476 1.72984 90.4727 1.63709 88.2774 2.19358C79.0293 4.69778 69.8279 4.41954 60.8601 0.75598C60.0193 0.431361 58.8516 0.338613 57.9642 0.570483C50.2107 2.93556 42.5974 5.57889 34.7972 7.80485C30.2666 9.10332 26.4832 11.2829 22.8867 14.2972C15.4135 20.6505 7.70676 26.6791 0.0934153 32.8469L0 35.1656C0.607199 35.7221 1.26111 36.2786 1.77489 36.9278C6.21212 42.5391 10.6493 48.104 14.9932 53.808C16.3477 55.5702 17.4687 55.8021 19.2435 54.5036C21.3454 52.9732 23.5407 51.6748 26.0629 50.0053L25.9227 53.1124C24.9886 76.5777 24.0077 99.9966 23.0736 123.462C22.9335 126.894 23.0736 127.079 26.4365 127.218C55.5821 128.378 84.7277 129.583 113.873 130.743C117.189 130.882 117.423 130.65 117.563 127.311L120.552 54.2253C122.888 55.9876 124.85 57.3324 126.578 58.8628C128.353 60.4395 129.614 60.3931 131.248 58.5381C136.153 53.0196 141.244 47.6866 146.288 42.2608C148.203 40.0812 148.157 39.7102 146.102 37.6698ZM65.2973 5.85713C66.8386 6.2745 68.3333 6.64549 69.8279 6.92374C71.3226 7.20198 72.7705 7.34111 74.3119 7.38748C77.488 7.48023 80.6641 7.15561 83.7935 6.69187C85.3816 6.46 86.8762 6.18175 88.4643 5.90351C88.6511 5.85713 90.0523 5.71801 90.099 5.48614C88.2307 15.132 81.318 21.6243 73.9849 20.8823C66.6985 20.1404 60.3463 12.6741 60.2996 4.55866C60.2996 4.69778 64.8302 5.71801 65.2973 5.85713ZM128.726 56.2658C126.297 54.4108 124.009 52.6022 121.58 50.8864C120.646 50.2372 119.478 49.9125 118.404 49.4488C118.03 50.6082 117.376 51.8139 117.33 52.9732C116.442 73.3315 115.648 93.6897 114.807 114.048L114.294 127.218L26.2964 123.694L29.3324 49.1242C29.3791 48.5213 29.4258 47.8721 29.3791 47.2692C29.2857 45.2751 28.1647 44.6723 26.4365 45.7389C23.4939 47.5938 20.5981 49.5416 17.4687 51.582C12.938 45.7853 8.40738 40.0812 3.83003 34.2381C10.1823 29.0442 16.5345 24.2213 22.5131 18.8883C27.6509 14.2972 33.396 11.3757 39.9817 9.70619C44.9795 8.45408 49.7903 6.69187 54.6946 5.16152C55.2551 4.97602 55.8623 4.8369 56.563 4.69778C58.6648 14.9928 63.0086 23.8967 74.8724 24.0358C86.0355 24.1749 90.8931 16.0131 93.6021 6.089C102.103 9.52069 110.37 12.8596 118.684 16.1986C119.291 16.4304 119.899 16.8942 120.412 17.3579C128.026 24.685 135.592 32.0585 143.159 39.432C143.299 39.5711 143.392 39.803 143.673 40.174C138.722 45.4606 133.771 50.7937 128.726 56.2658Z" fill="#333333"/>
<path d="M90.099 5.43978C88.2307 15.0856 81.318 21.578 73.9849 20.836C66.6985 20.094 60.3463 12.6278 60.2996 4.5123C60.2996 4.6978 64.8769 5.71803 65.2973 5.85715C66.8386 6.27451 68.3333 6.64551 69.8279 6.92375C71.3226 7.202 72.7705 7.34112 74.3119 7.38749C77.488 7.48024 80.6641 7.15562 83.7935 6.69188C85.3816 6.46001 86.8762 6.18177 88.4643 5.90352C88.6511 5.85715 90.0523 5.71803 90.099 5.43978Z" fill="white"/>
<path d="M93.6019 6.04266C102.103 9.47435 110.37 12.8133 118.684 16.1522C119.291 16.3841 119.898 16.8478 120.412 17.3116C128.025 24.6387 135.592 32.0122 143.159 39.3857C143.299 39.5248 143.392 39.7566 143.673 40.1276C138.768 45.4607 133.817 50.7937 128.773 56.2195C126.344 54.3645 124.055 52.5095 121.626 50.8401C120.692 50.1908 119.525 49.8662 118.45 49.4025C118.077 50.5618 117.423 51.7675 117.376 52.9269C116.489 73.2851 115.695 93.6434 114.854 114.002C114.667 118.314 114.48 122.627 114.34 127.172C85.0077 126.013 55.9089 124.807 26.3896 123.647C26.4363 122.766 26.483 121.792 26.483 120.819C27.4639 96.8896 28.4448 72.9605 29.4256 49.0778C29.4723 48.475 29.519 47.8257 29.4723 47.2229C29.3789 45.2752 28.2579 44.6259 26.5297 45.6925C23.5872 47.5475 20.6913 49.4952 17.5619 51.5357C12.9378 45.7853 8.40718 40.0813 3.82983 34.2381C10.1821 29.0442 16.5343 24.2213 22.5129 18.8883C27.6507 14.2973 33.3958 11.3757 40.0283 9.70622C45.026 8.45412 49.8369 6.6919 54.7412 5.16156C55.3017 4.97606 55.9089 4.83694 56.6095 4.69781C58.7113 14.9929 63.0551 23.8967 74.9189 24.0358C86.0353 24.1286 90.9396 15.9667 93.6019 6.04266Z" fill="white"/>
</svg>
