<svg width="30" height="30" viewBox="0 0 30 30" fill="none" xmlns="http://www.w3.org/2000/svg">
<path d="M15 29.9265C12.2059 29.9265 9.48529 29.1912 7.13235 27.7206L2.13235 29.2647C1.91176 29.3382 1.61765 29.2647 1.39706 29.1176C1.17647 28.8971 1.10294 28.6765 1.17647 28.3824C1.76471 26.3235 2.35294 23.9706 2.5 23.3088C0.882353 20.8088 0 17.9412 0 15C0 6.69118 6.69118 0 15 0C23.3088 0 30 6.69118 30 15C30 23.3088 23.2353 29.9265 15 29.9265ZM7.20588 26.1765C7.35294 26.1765 7.5 26.25 7.57353 26.3235C9.77941 27.7206 12.2794 28.5294 14.9265 28.5294C22.3529 28.5294 28.4559 22.5 28.4559 15C28.4559 7.5 22.4265 1.47059 15 1.47059C7.5 1.47059 1.47059 7.5 1.47059 15C1.47059 17.7206 2.27941 20.3676 3.82353 22.6471C3.82353 22.6471 3.82353 22.6471 3.82353 22.7206C3.82353 22.7941 3.89706 22.8676 3.89706 22.9412C3.89706 23.0147 3.89706 23.0882 3.89706 23.1618C3.89706 23.6765 3.67647 24.7794 2.94118 27.5L6.98529 26.25C7.05882 26.1765 7.13235 26.1765 7.20588 26.1765Z" fill="#370475"/>
<path d="M19.9265 14.2646C19.9265 12.2058 18.0148 10.3676 15.6618 10.147C15.5883 10.147 15.5883 10.147 15.5148 10.147C15.3677 10.147 15.2942 10.147 15.1471 10.147C14.7059 10.147 14.5589 10.4411 14.4854 10.6617C14.4854 10.8087 14.4854 11.0293 14.5589 11.1029C14.7059 11.3234 15.0001 11.3234 15.2206 11.3234C15.2942 11.3234 15.3677 11.3234 15.3677 11.3234C17.5001 11.7646 18.1618 12.4264 18.5295 14.3381C18.5295 14.4117 18.5295 14.4117 18.5295 14.4852C18.5295 14.7058 18.603 15.2205 19.1177 15.2205C19.1912 15.2205 19.1912 15.2205 19.2648 15.2205C19.7795 15.147 19.7795 14.7058 19.7795 14.4852C19.9265 14.4117 19.9265 14.3381 19.9265 14.2646C19.9265 14.3381 19.9265 14.2646 19.9265 14.2646Z" fill="#370475"/>
<path d="M15 9.41178C15.0735 9.41178 15.147 9.41178 15.147 9.41178C18.6029 9.85296 20.2206 11.3235 20.6618 14.5588C20.6618 14.6324 20.6618 14.7059 20.6618 14.7794C20.6618 15 20.6618 15.5883 21.3235 15.5883C21.5441 15.5883 21.6912 15.5147 21.7647 15.4412C21.9853 15.2206 21.9117 15 21.9117 14.7794C21.9117 14.7059 21.9117 14.7059 21.9117 14.6324C21.9117 11.3235 18.8235 8.38237 15.2941 8.30884C15.2941 8.30884 15.2941 8.30884 15.2206 8.30884C15.2206 8.30884 15.2206 8.30884 15.147 8.30884C15.147 8.30884 15.0735 8.30884 15 8.30884C14.9265 8.30884 14.8529 8.30884 14.8529 8.30884C14.2647 8.30884 14.1912 8.67649 14.1912 8.89707C14.2647 9.33825 14.7794 9.41178 15 9.41178Z" fill="#370475"/>
<path d="M20.5881 18.75C20.5146 18.6765 20.4411 18.6765 20.3676 18.603C19.9999 18.3088 19.5587 18.0883 19.1911 17.7941C19.1176 17.7206 19.044 17.7206 18.9705 17.6471C18.4558 17.353 18.0146 17.2059 17.5734 17.2059C16.9852 17.2059 16.544 17.5 16.1028 18.0883C15.9558 18.3824 15.7352 18.4559 15.4411 18.4559C15.294 18.4559 15.0734 18.3824 14.9264 18.3088C13.3087 17.6471 12.1323 16.6177 11.4705 15.2941C11.1764 14.6324 11.2499 14.1912 11.7646 13.8235C12.0587 13.603 12.647 13.2353 12.5734 12.5C12.4999 11.6912 10.5881 9.26472 9.77932 9.04413C9.41167 8.89707 9.04402 8.9706 8.74991 9.04413C7.79402 9.33825 7.20579 9.85296 6.83814 10.5147C6.54402 11.1765 6.54402 11.9118 6.91167 12.7206C7.94108 15 9.41167 16.9853 11.1764 18.603C12.9411 20.2206 15.0734 21.4706 17.5734 22.4265C17.794 22.5 18.0146 22.5735 18.2352 22.5735C18.3087 22.5735 18.3087 22.5735 18.3823 22.5735H18.4558C19.6323 22.5735 21.0293 21.5441 21.397 20.3677C21.8381 19.6324 21.1764 19.1177 20.5881 18.75Z" fill="#370475"/>
<path d="M15.5883 11.9854C15.3677 11.9854 15.0001 11.9854 14.853 12.4265C14.7795 12.6471 14.7795 12.7942 14.853 12.8677C15.0001 13.0883 15.2206 13.0883 15.4412 13.1618C16.2501 13.2354 16.6177 13.6765 16.6912 14.4118C16.7648 14.7795 16.9854 15.0001 17.2795 15.0001H17.353C17.7206 14.9265 17.9412 14.7059 17.8677 14.1912C17.8677 13.6765 17.5736 13.0883 17.0589 12.6471C16.6912 12.2059 16.103 11.9854 15.5883 11.9854Z" fill="#370475"/>
</svg>
