<svg width="26" height="38" viewBox="0 0 26 38" fill="none" xmlns="http://www.w3.org/2000/svg">
<path d="M13 37.071C12.4968 37.071 11.9097 36.8194 11.5742 36.3161L11.4903 36.0645C8.05161 31.1161 0 18.7871 0 13C0 5.87097 5.87097 0 13 0C20.129 0 26 5.87097 26 13C26 19.7097 15.2645 34.8903 14.4258 36.1484C14.1742 36.6516 13.5032 37.071 13 37.071ZM13 1.67742C6.79355 1.67742 1.67742 6.79355 1.67742 13C1.67742 16.6903 5.87097 24.9935 12.8323 35.1419L13 35.3097L13.0839 35.2258C14.0065 34.0516 24.3226 18.9548 24.3226 13C24.3226 6.79355 19.2903 1.67742 13 1.67742ZM13 18.6194C9.56129 18.6194 6.70968 15.7677 6.70968 12.329C6.70968 8.89032 9.56129 6.03871 13 6.03871C16.4387 6.03871 19.2903 8.89032 19.2903 12.329C19.2903 15.7677 16.4387 18.6194 13 18.6194ZM13 7.71613C10.4839 7.71613 8.3871 9.8129 8.3871 12.329C8.3871 14.8452 10.4839 16.9419 13 16.9419C15.5161 16.9419 17.6129 14.8452 17.6129 12.329C17.6129 9.8129 15.5161 7.71613 13 7.71613Z" fill="#E37C1D"/>
</svg>
