<svg width="30" height="21" viewBox="0 0 30 21" fill="none" xmlns="http://www.w3.org/2000/svg">
<path d="M27.1137 0H2.8863C1.31195 0 0 1.31195 0 2.8863V18.105C0 19.6793 1.31195 20.9913 2.8863 20.9913H27.1137C28.688 20.9913 30 19.6793 30 18.105V2.8863C30 1.31195 28.688 0 27.1137 0ZM27.1137 1.66181L15.9184 12.7697C15.656 13.0321 15.3061 13.1195 14.9563 13.1195C14.6064 13.1195 14.2566 13.0321 13.9942 12.7697L2.79883 1.66181H27.1137ZM1.66181 18.2799V2.79883L9.88338 10.9329L1.66181 18.2799ZM2.8863 19.3294L11.0204 11.9825L12.9446 13.8192C14.0816 14.9563 15.9184 14.9563 17.0554 13.8192L18.9796 11.895L27.1137 19.242H2.8863V19.3294ZM28.3382 18.2799L20.1166 10.8455L28.3382 2.71137V18.2799Z" fill="#3E6E96"/>
</svg>
