<svg width="48" height="48" viewBox="0 0 48 48" fill="none" xmlns="http://www.w3.org/2000/svg">
<path d="M31.3333 0C17.8667 0 30 0 16.6667 0C3.33333 0 0 3.2 0 16.6667C0 24.1333 0 18 0 31.3333C0 44.8 3.2 48 16.6667 48C30.1333 48 18 48 31.3333 48C44.6667 48 48 44.8 48 31.3333C48 17.8667 48 30 48 16.6667C48 3.33333 44.8 0 31.3333 0ZM38.8 34.2667H35.3333C34 34.2667 33.6 33.2 31.2 30.9333C29.0667 28.9333 28.2667 28.6667 27.7333 28.6667C27.0667 28.6667 26.8 28.9333 26.8 29.8667V32.9333C26.8 33.8667 26.5333 34.2667 24.4 34.2667C20.6667 34.2667 16.6667 32 13.7333 27.8667C9.33333 21.7333 8 17.2 8 16.4C8 15.8667 8.26667 15.3333 9.2 15.3333H12.6667C13.6 15.3333 13.8667 15.7333 14.2667 16.6667C16 21.6 18.8 26 20.1333 26C20.5333 26 20.8 25.7333 20.8 24.6667V19.4667C20.6667 17.0667 19.3333 16.9333 19.3333 16.1333C19.3333 15.7333 19.7333 15.3333 20.2667 15.3333H25.7333C26.5333 15.3333 26.8 15.7333 26.8 16.6667V23.6C26.8 24.4 27.0667 24.6667 27.3333 24.6667C27.7333 24.6667 28.1333 24.4 29.0667 23.6C31.4667 20.8 33.3333 16.4 33.3333 16.4C33.6 15.8667 34 15.3333 34.9333 15.3333H38.4C39.4667 15.3333 39.7333 15.8667 39.4667 16.6667C39.0667 18.8 34.8 24.6667 34.8 24.6667C34.4 25.3333 34.2667 25.6 34.8 26.2667C35.2 26.8 36.4 27.8667 37.2 28.6667C38.8 30.4 39.7333 31.7333 40.1333 32.8C40.2667 33.7333 39.7333 34.2667 38.8 34.2667Z" fill="#3E6E96"/>
</svg>
