<svg width="30" height="28" viewBox="0 0 30 28" fill="none" xmlns="http://www.w3.org/2000/svg">
<path d="M23.336 27.7194C23.1732 27.7194 23.0918 27.7194 23.0105 27.7194C22.9291 27.7194 22.8477 27.7194 22.7663 27.6381C22.3595 27.5567 21.8712 27.4753 21.383 27.3126C16.5819 25.4409 12.3504 22.9183 8.9326 19.8261C5.43348 16.6524 2.58535 12.8278 0.632355 8.35219C-0.181395 6.64331 -0.181395 4.93444 0.469605 3.46969C1.20198 2.00494 2.58535 0.865688 4.53835 0.214688C5.43348 -0.0294367 6.24723 -0.110812 7.06098 0.214688C8.9326 0.784313 12.8386 5.66681 13.0014 7.45706C13.1641 9.24731 11.6994 10.2238 11.0484 10.6307C10.3974 11.0376 10.2346 11.3631 10.7229 12.3396C11.9435 14.6994 13.9779 16.5711 16.826 17.7103C17.1515 17.8731 17.3956 17.8731 17.5584 17.8731C17.7211 17.8731 17.9652 17.7917 18.128 17.4662C19.2672 15.8387 20.6506 15.4318 21.5457 15.4318C22.5222 15.4318 23.4987 15.7573 24.5566 16.4083L25.0448 16.7338C25.7772 17.2221 26.591 17.7103 27.3233 18.2799C27.4861 18.3613 27.5675 18.4427 27.7302 18.6054C28.7881 19.3378 30.6597 20.6398 29.7646 23.0811C28.7881 25.6037 25.8586 27.7194 23.336 27.7194ZM5.84035 1.59806C5.59623 1.59806 5.27073 1.67944 5.0266 1.76081C3.56185 2.24906 2.4226 3.06281 1.93435 4.20206C1.4461 5.17856 1.52748 6.39919 2.0971 7.70119C4.0501 11.9327 6.6541 15.5946 10.0719 18.6868C13.3269 21.6163 17.3956 24.0576 22.034 25.8478C22.3595 26.0106 22.7663 26.0919 23.0918 26.0919C23.2546 26.0919 23.336 26.0919 23.336 26.1733C25.2076 26.0919 27.5675 24.3831 28.2185 22.5928C28.6254 21.3722 28.0557 20.8839 26.8351 19.9888C26.6723 19.9074 26.5096 19.7447 26.4282 19.6633C25.6959 19.1751 24.9635 18.6868 24.2311 18.1986L23.7428 17.8731C22.9291 17.3848 22.1967 17.0593 21.6271 17.1407C20.8134 17.1407 20.1623 17.6289 19.5114 18.4427C18.9417 19.3378 18.128 19.5006 17.5584 19.5006C17.1515 19.5006 16.6632 19.4192 16.175 19.1751C12.92 17.8731 10.5601 15.7573 9.2581 12.9906C8.44435 11.3631 8.76985 10.1424 10.1532 9.16594C10.8042 8.75906 11.4552 8.27081 11.3739 7.45706C11.2925 6.23644 7.79335 1.92356 6.57273 1.59806C6.3286 1.59806 6.08448 1.59806 5.84035 1.59806Z" fill="#333333"/>
</svg>
