<svg width="118" height="103" viewBox="0 0 118 103" fill="none" xmlns="http://www.w3.org/2000/svg">
<path d="M117.979 37.8545C117.979 36.4433 117.814 35.1151 117.565 33.7038C114.999 19.1763 103.491 9.54665 88.7536 9.54665H83.7032V0H0.0827925C0.0827925 0.664114 0 1.24521 0 1.7433C0 30.7153 0 59.7703 0 88.8253C0 97.2098 5.38151 102.855 13.7436 102.938C32.5375 103.021 51.2486 103.021 70.0424 102.938C78.2389 102.855 83.7032 97.2098 83.786 88.9913C83.786 87.9952 83.786 86.999 83.786 86.0028C87.3461 85.8368 90.575 85.8368 93.8039 85.4217C105.974 83.9275 116.82 72.9696 117.648 60.6835C118.228 53.1292 117.897 45.4088 117.979 37.8545ZM79.8948 6.14306C79.8948 33.5378 79.8948 60.8495 79.8948 88.2442C79.8948 95.3834 76.0863 99.2851 68.8834 99.2851C50.8346 99.2851 32.703 99.2851 14.6543 99.2851C7.6997 99.2851 3.80845 95.3834 3.80845 88.4932C3.80845 61.0155 3.80845 33.5378 3.72566 6.06004C3.72566 4.23373 4.22242 3.90167 5.96106 3.90167C29.8881 3.98469 53.8979 3.90167 77.8249 3.90167H79.8948V6.14306ZM83.786 28.4739C86.4354 28.6399 89.1675 28.4739 91.6513 28.972C96.0393 29.8852 98.7714 33.5378 98.8542 38.5186C98.937 44.7447 99.0198 50.9708 98.8542 57.1969C98.6887 62.8418 94.549 66.7435 88.9191 66.7435H83.7032V28.4739H83.786ZM113.922 59.3552C113.26 71.7244 102.497 81.7691 90.161 81.9351C88.0912 82.0181 86.0214 81.9351 83.786 81.9351V70.5622C85.6074 70.5622 87.2633 70.5622 89.0019 70.5622C96.4533 70.4791 102.249 65.5813 102.58 58.11C102.911 50.8878 102.828 43.6655 102.497 36.4433C102.166 29.9682 96.5361 24.9873 90.0782 24.7383C88.0912 24.6552 86.1042 24.7383 83.8688 24.7383V13.5313C89.9954 13.0332 96.0393 13.4483 101.586 16.6859C109.7 21.5007 113.84 28.7229 114.088 38.0206C114.336 45.1598 114.336 52.299 113.922 59.3552Z" fill="#666666"/>
<path d="M79.8947 3.90167V6.14306C79.8947 33.5378 79.8947 60.8495 79.8947 88.2442C79.8947 95.3834 76.0862 99.2851 68.8833 99.2851C50.8345 99.2851 32.703 99.2851 14.6542 99.2851C7.69963 99.2851 3.80838 95.3834 3.80838 88.4932C3.80838 61.0155 3.80838 33.5378 3.72559 6.06004C3.72559 4.23373 4.22234 3.90167 5.96098 3.90167C29.888 3.98469 53.8978 3.90167 77.8249 3.90167H79.8947Z" fill="white"/>
<path d="M83.7859 81.9351C83.7859 78.0334 83.7859 74.3808 83.7859 70.4792C85.6073 70.4792 87.2632 70.4792 89.0018 70.4792C96.4531 70.3961 102.249 65.4983 102.58 58.027C102.911 50.8048 102.828 43.5825 102.497 36.3603C102.166 29.8852 96.5359 24.9043 90.0781 24.6553C88.0911 24.5722 86.1041 24.6553 83.8687 24.6553C83.8687 20.8366 83.8687 17.184 83.8687 13.3653C89.9953 12.8672 96.0392 13.2823 101.586 16.5199C109.7 21.3347 113.84 28.5569 114.088 37.8545C114.254 44.9107 114.336 52.05 113.922 59.1062C113.26 71.4753 102.497 81.5201 90.1609 81.6861C88.0911 82.0181 86.0213 81.9351 83.7859 81.9351Z" fill="white"/>
<path fill-rule="evenodd" clip-rule="evenodd" d="M29.8052 56.3668C30.4675 56.8649 31.2954 57.0309 31.9578 56.7819C31.2126 56.8649 30.4675 56.7819 29.8052 56.3668C29.8052 56.3668 29.8052 56.2838 29.8052 56.3668Z" fill="#1A1D1E"/>
<path fill-rule="evenodd" clip-rule="evenodd" d="M49.013 49.9747C48.3506 49.4766 48.599 47.4012 49.1786 45.99C49.7581 44.5787 50.7516 43.8316 52.1591 43.9976C53.5666 44.1637 55.4708 45.2428 55.6364 46.073C55.8019 46.9031 54.2289 47.5672 52.6558 48.4804C51.1656 49.3936 49.6753 50.4727 49.013 49.9747Z" fill="#1B1918"/>
<path fill-rule="evenodd" clip-rule="evenodd" d="M41.1476 45.8239C41.3132 45.7409 40.8993 44.5787 40.6509 43.9146C40.3197 43.1675 40.0713 42.6694 39.9885 42.4203C39.823 42.0883 39.6574 41.5902 39.3262 38.3526C39.1606 36.5263 39.0778 35.3641 39.6574 34.866C40.2369 34.368 40.7337 35.1981 41.4788 35.4471C42.2239 35.6962 42.2239 35.8622 42.8035 36.2773C47.0259 38.7677 53.8149 39.5148 58.2029 37.3565C59.0308 36.9414 60.6867 35.7792 60.6867 35.5302C61.0178 34.7 62.1769 34.617 62.0941 34.9491C61.9286 35.6962 62.8393 37.1904 62.7565 38.0206C62.4253 40.345 62.1769 43.0015 61.1834 45.1598C61.1834 45.1598 61.2662 45.3258 61.349 45.3258C61.4318 45.4089 63.8328 48.8955 62.7565 53.9593C62.0941 56.8648 60.6039 59.5213 59.0308 62.0117C55.8847 66.8266 51.5795 70.9773 47.3571 74.8789C45.2045 76.8713 41.81 80.5239 41.81 80.5239C41.81 80.5239 34.9382 74.7959 32.9512 73.1356C28.3148 69.151 23.7612 64.8342 19.87 60.1024C17.9657 57.861 16.3099 55.8687 15.8131 52.8802C15.3164 50.2237 15.6476 47.4842 16.8066 44.9938C17.2206 44.0806 17.7174 43.3335 17.9657 43.0845C18.1313 42.9184 19.456 40.9261 21.5258 39.6809C23.844 38.1866 27.0729 37.3565 30.1362 38.0206C35.1038 39.0998 39.5746 43.9146 40.3197 44.9938C40.3197 45.2428 40.9821 45.907 41.1476 45.8239Z" fill="white"/>
<path fill-rule="evenodd" clip-rule="evenodd" d="M21.5261 46.5711C21.6089 46.5711 21.6917 46.488 21.6917 46.405C21.7745 46.322 21.7745 46.239 21.8573 46.156C21.9401 45.99 22.1057 45.9069 22.1885 45.7409C22.4368 45.4919 22.6852 45.2428 23.0164 44.9938C24.1755 44.0806 25.5002 43.4995 26.9076 43.1675C28.3979 42.8354 30.0537 42.9184 31.544 43.2505C33.0343 43.5825 34.4417 44.0806 35.7664 44.8278C37.0083 45.4919 38.0846 46.405 38.9125 47.5672C39.3265 48.1483 39.6577 48.8124 39.906 49.4766C40.1544 50.2237 40.2372 51.0538 40.1544 51.801C40.0716 52.6311 39.8233 53.3782 39.7405 54.2084C39.6577 54.8725 40.32 55.2045 40.734 55.7026C40.9824 55.9517 40.8996 56.1177 41.2307 56.2007C41.5619 56.2837 41.7275 56.2837 42.1414 56.2837C42.307 56.2837 42.5554 56.4498 42.721 56.3668C42.8038 56.2837 42.721 56.5328 42.6382 56.4498C42.5554 56.2837 42.4726 56.2007 42.3898 56.1177C42.307 55.9517 42.1414 55.7857 42.0587 55.6196C41.8103 55.2876 41.8103 54.6234 41.5619 54.3744C41.3135 54.1254 40.9824 53.9593 40.734 53.7103C40.4856 53.4612 40.0716 53.6273 39.9888 53.2952C39.906 52.8801 39.9888 52.5481 40.1544 52.133C40.32 51.3859 40.5684 50.5557 40.6512 49.8086C40.734 48.9785 40.8168 48.1483 40.734 47.4012C40.734 45.8239 40.4028 44.1636 39.9888 42.6694C39.5749 41.0921 39.0781 39.5979 38.9125 38.0206C38.8297 37.1904 38.8297 36.4433 38.9953 35.6132C38.9953 35.3641 39.0781 35.1981 39.1609 34.9491C39.2437 34.783 39.3265 34.534 39.4921 34.451C39.6577 34.2849 39.9888 34.368 40.1544 34.534C40.32 34.617 40.4856 34.783 40.6512 34.866C40.8168 34.9491 40.9824 35.1151 41.1479 35.1981C41.8103 35.6132 42.4726 36.0282 43.2177 36.3603C44.6252 37.0244 46.1983 37.4395 47.6885 37.6885C48.5165 37.8546 49.2616 37.9376 50.0895 38.0206C50.9174 38.1036 51.7454 38.1866 52.5733 38.2696C53.4012 38.3526 54.2291 38.3526 54.9743 38.2696C55.7194 38.1866 56.5473 38.0206 57.2925 37.7715C58.0376 37.5225 58.6999 37.1904 59.2795 36.7754C59.6107 36.5263 59.859 36.3603 60.1074 36.0282C60.3558 35.7792 60.6042 35.4471 60.8526 35.1981C61.1009 34.9491 61.3493 34.7 61.6805 34.617C62.0116 34.534 62.26 34.866 62.4256 35.1151C62.5912 35.4471 62.5912 35.7792 62.674 36.1113C62.7568 36.5263 62.7568 36.9414 62.7568 37.2735C62.8396 38.9337 62.7568 40.511 62.5084 42.1713C62.3428 42.9184 62.1772 43.7486 61.9289 44.4957C61.8461 44.8278 61.7633 45.1598 61.5149 45.4919C61.4321 45.5749 61.3493 45.7409 61.1837 45.8239C61.1009 45.9069 60.9353 45.9069 60.8526 45.9069C60.7698 45.8239 60.7698 45.6579 60.8526 45.4919C60.9353 45.3258 61.0181 45.1598 61.0181 44.9108C61.1009 44.4957 61.1837 44.1636 61.2665 43.7486C61.4321 42.9184 61.5149 42.1713 61.6805 41.3412C61.7633 40.9261 61.7633 40.511 61.8461 40.0959C61.9288 39.7639 61.9288 39.3488 61.8461 39.0168C61.7633 38.8507 61.6805 38.7677 61.5977 38.6847C61.5149 38.6017 61.3493 38.6017 61.1837 38.6017C60.8526 38.6847 60.5214 38.8507 60.273 39.0168C59.9418 39.1828 59.6107 39.4318 59.3623 39.6809C59.1967 39.7639 59.0311 39.9299 58.9483 40.0959C58.8655 40.179 58.6999 40.345 58.6172 40.428C58.5344 40.594 58.5344 40.7601 58.5344 40.8431C58.6171 41.0091 58.6999 41.0921 58.7827 41.1751C58.8655 41.2581 59.0311 41.4242 59.0311 41.5902C59.1139 41.7562 59.1139 41.9223 59.1139 42.1713C59.1139 42.5034 59.1139 42.9184 59.3623 43.1675C59.4451 43.2505 59.5279 43.2505 59.6107 43.2505C59.6935 43.2505 59.7762 43.2505 59.7762 43.3335C59.859 43.4165 59.7762 43.6656 59.7762 43.7486C59.6935 44.1636 59.859 44.4957 60.1074 44.8278C60.273 45.1598 60.5214 45.4089 60.7698 45.7409C61.0181 45.99 61.2665 46.322 61.5149 46.5711C61.7633 46.8201 61.9288 47.1522 62.1772 47.4842C62.5912 48.1483 62.8396 48.8124 63.0879 49.5596C63.5019 51.0538 63.5019 52.7141 63.1707 54.2914C62.8396 55.7857 62.3428 57.2799 61.5977 58.6911C60.9353 60.1024 60.1074 61.4306 59.1967 62.6758C58.286 64.0041 57.2925 65.1663 56.299 66.4115C55.2227 67.6567 54.1464 68.7359 52.9873 69.8981C51.8282 71.0603 50.5863 72.1395 49.4272 73.3017C48.1853 74.3809 47.0262 75.5431 45.7843 76.6222C45.2048 77.2033 44.6252 77.7844 44.0457 78.3655C43.4661 78.9466 42.9694 79.5277 42.3898 80.0258C42.307 80.1088 42.1414 80.2749 42.0587 80.3579L41.9759 80.5239C41.9759 80.6069 42.1414 80.5239 42.1414 80.4409C42.3898 80.1919 42.721 79.9428 42.9694 79.6108C43.4661 79.0297 43.9629 78.4486 44.3768 77.8675C45.2048 76.6222 45.5359 75.128 45.4531 73.6337C45.4531 73.2187 45.3704 72.8866 45.2876 72.4715C45.2048 72.0565 45.122 71.7244 45.0392 71.3093C45.0392 71.2263 44.9564 71.0603 44.8736 71.0603C44.7908 71.0603 44.7908 71.1433 44.708 71.2263C44.6252 71.3093 44.6252 71.3923 44.5424 71.3923C44.2113 71.6414 43.8801 71.5584 43.5489 71.8074C43.3833 71.8904 43.3833 72.0565 43.2177 72.1395C43.0522 72.2225 42.9694 72.2225 42.8866 72.0565C42.8866 71.8904 42.8866 71.8074 42.8866 71.6414C42.8866 71.4754 42.8866 71.2263 42.8038 71.0603C42.8038 70.8943 42.721 70.6452 42.721 70.4792C42.721 70.3132 42.8038 70.0641 42.5554 70.0641C42.4726 70.0641 42.3898 70.1471 42.3898 70.1471C42.307 70.2301 42.307 70.2301 42.2242 70.3131C42.0587 70.3962 41.9759 70.5622 41.8103 70.6452C41.7275 70.7282 41.6447 70.8112 41.4791 70.8943C41.3135 70.8943 41.2307 70.7282 41.1479 70.6452C40.9824 70.3132 40.6512 70.0641 40.4028 69.8151C40.32 69.7321 40.1544 69.566 40.0716 69.483C39.9888 69.4 39.906 69.317 39.8233 69.317C39.6577 69.317 39.7405 69.566 39.7405 69.649C39.7405 69.8151 39.8233 70.0641 39.8233 70.2301C39.8233 70.6452 39.8233 71.0603 39.906 71.3923C39.906 71.5584 39.9888 71.7244 39.9888 71.8904C39.9888 71.8904 39.9888 71.9734 39.9888 72.0565C39.906 72.0565 39.906 71.9734 39.8233 71.9734C39.8233 71.8904 39.7405 71.8074 39.7405 71.7244C39.6577 71.6414 39.6577 71.5584 39.5749 71.4754C39.4921 71.3093 39.3265 71.2263 39.1609 71.1433C38.9953 71.0603 38.9125 70.8943 38.747 70.8943C38.5814 70.8943 38.4986 71.0603 38.5814 71.2263C38.5814 71.3093 38.6642 71.4754 38.5814 71.6414C38.4986 71.8074 38.333 71.7244 38.2502 71.6414C38.0846 71.5584 37.919 71.3923 37.7534 71.3093C37.5879 71.2263 37.4223 71.1433 37.2567 70.9773C36.9255 70.8112 36.5943 70.6452 36.2632 70.3962C36.1804 70.3132 36.0148 70.2301 35.932 70.3962C35.8492 70.5622 35.8492 70.7282 35.8492 70.8943C35.8492 71.0603 35.8492 71.3093 35.932 71.4754C36.0148 71.6414 36.0976 71.8074 36.1804 71.9734C36.1804 72.0564 36.2632 72.1395 36.2632 72.1395C36.2632 72.2225 36.0976 72.2225 36.0976 72.2225C36.0148 72.2225 35.932 72.2225 35.8492 72.2225C35.7664 72.2225 35.6836 72.2225 35.6008 72.3055C35.1869 72.3885 34.8557 72.5545 34.5245 72.7206C34.359 72.8036 34.1934 72.8866 34.0278 72.9696C33.8622 73.0526 33.6966 73.0526 33.531 73.1356C33.4482 73.2187 33.2827 73.3017 33.2827 73.3847C33.2827 73.5507 33.4482 73.5507 33.6138 73.6337C33.945 73.8828 34.1934 74.1318 34.5245 74.3809C35.1041 74.8789 35.7664 75.46 36.346 75.9581C37.5879 77.0373 38.8297 78.0335 40.0716 79.0297C40.4028 79.2787 40.6512 79.5277 40.9824 79.7768C41.1479 79.9428 41.3963 80.1088 41.6447 80.1919C41.7275 80.1919 41.8103 80.2749 41.8103 80.1919C41.8103 80.1088 41.7275 80.1088 41.6447 80.0258C41.5619 79.9428 41.4791 79.9428 41.3963 79.8598C41.0651 79.6108 40.734 79.4447 40.4028 79.1957C39.7405 78.6976 39.0781 78.1995 38.4986 77.7014C37.8362 77.2033 37.2567 76.7053 36.5944 76.2072C35.3525 75.211 34.0278 74.1318 32.7859 73.0526C31.544 71.9734 30.3021 70.9773 29.0602 69.8981C27.8183 68.8189 26.6593 67.7397 25.4174 66.5775C24.2583 65.4983 23.0164 64.3361 21.8573 63.1739C20.2014 61.5136 18.6284 59.6873 17.4693 57.612C17.1381 57.0309 16.8897 56.4498 16.5586 55.8687C15.979 54.4574 15.4823 52.9632 15.3167 51.4689C15.1511 49.8916 15.2339 48.3144 15.5651 46.7371C15.8962 45.3258 16.5586 43.9976 17.3865 42.7524C18.2144 41.5902 19.2907 40.594 20.4498 39.7639C21.6917 38.9337 23.0164 38.3526 24.5066 38.1036C26.0797 37.7715 27.6528 37.7715 29.2258 38.1036C29.6398 38.1866 30.0537 38.2696 30.3849 38.3526C30.6333 38.4357 30.9645 38.5187 31.2128 38.6017C31.2128 38.6017 31.3784 38.6847 31.2956 38.6847C31.2956 38.6847 31.2128 38.6847 31.13 38.6847C31.0473 38.6847 31.0473 38.6847 30.9645 38.6017C30.6333 38.5187 30.2193 38.3526 29.8054 38.2696C28.2323 37.9376 26.6593 37.9376 25.0862 38.1866C23.6787 38.4357 22.2712 39.0168 21.0294 39.8469C19.8703 40.594 18.8768 41.6732 18.0488 42.8354C17.6349 43.4995 17.3037 44.1636 17.0553 44.9108C16.8897 45.2428 16.8069 45.6579 16.7242 45.99C16.7242 46.073 16.6414 46.156 16.7242 46.239H16.8069C16.8897 46.156 16.8897 46.073 16.8897 46.073C17.0553 45.7409 17.1381 45.3258 17.3037 44.9938C17.4693 44.6617 17.6349 44.3297 17.8832 43.9976C18.2972 43.3335 18.794 42.7524 19.2907 42.2543C20.2842 41.1751 21.5261 40.345 22.8508 39.6809C24.2583 39.0168 25.7485 38.6017 27.2388 38.5187C28.0667 38.4357 28.8119 38.5187 29.6398 38.6017C29.7226 38.6017 29.8054 38.6017 29.8882 38.6017C29.9709 38.6017 30.0537 38.6017 30.1365 38.6847C30.1365 38.7677 30.0537 38.7677 29.971 38.7677C29.8882 38.7677 29.7226 38.7677 29.6398 38.7677C29.2258 38.7677 28.8119 38.6847 28.3979 38.7677C27.9839 38.7677 27.57 38.8507 27.2388 38.9337C26.8248 39.0168 26.4937 39.0998 26.0797 39.1828C26.0797 39.1828 25.8313 39.2658 25.9141 39.3488C25.9969 39.3488 26.0797 39.3488 26.1625 39.3488C26.5765 39.3488 26.9076 39.1828 27.2388 39.1828C28.0667 39.0998 28.8119 39.1828 29.6398 39.2658C30.4677 39.3488 31.2128 39.5148 31.958 39.6809C33.3654 40.0959 34.7729 40.677 36.0976 41.5072C36.7599 41.9223 37.3395 42.3373 37.919 42.8354C38.4986 43.3335 39.0781 43.9146 39.5749 44.5787C39.8233 44.9108 40.0716 45.1598 40.32 45.4919C40.32 45.4919 40.4856 45.6579 40.4028 45.6579C40.4028 45.7409 40.32 45.5749 40.2372 45.5749C40.0716 45.4089 39.9888 45.3258 39.906 45.1598C39.4093 44.5787 38.9125 44.0806 38.333 43.5825C37.1739 42.6694 35.8492 41.9223 34.5245 41.3412C34.1934 41.1751 33.7794 41.0921 33.4482 40.9261C33.2827 40.8431 33.1171 40.7601 32.9515 40.7601C32.9515 40.7601 32.8687 40.7601 32.7859 40.7601C32.7031 40.7601 32.7031 40.8431 32.7859 40.8431C32.7859 40.8431 32.8687 40.9261 32.9515 40.9261C33.0343 41.0091 33.1171 41.0091 33.1999 41.0921C33.3654 41.1751 33.531 41.3412 33.6966 41.4242C34.0278 41.6732 34.359 41.9223 34.6901 42.0883C35.0213 42.3373 35.3525 42.5864 35.6836 42.7524C35.8492 42.8354 36.0148 42.9184 36.1804 43.0845C36.2632 43.1675 36.346 43.1675 36.346 43.2505L36.4288 43.3335C36.4288 43.4165 36.346 43.3335 36.346 43.3335C36.2632 43.3335 36.2632 43.2505 36.1804 43.2505C36.0976 43.1675 36.0148 43.1675 35.932 43.0845C35.6008 42.9184 35.2697 42.7524 34.8557 42.5864C33.3654 42.0883 31.7924 41.7562 30.1365 41.7562C29.7226 41.7562 29.3086 41.7562 28.8946 41.8392C28.4807 41.8392 28.0667 41.9223 27.7356 41.9223C27.57 41.9223 27.3216 41.9223 27.156 42.0053C27.0732 42.0053 26.8248 42.0883 26.9076 42.1713C26.9076 42.2543 27.0732 42.2543 27.0732 42.2543C27.156 42.2543 27.2388 42.2543 27.3216 42.2543C27.57 42.2543 27.7356 42.1713 27.9839 42.1713C28.3979 42.1713 28.7291 42.1713 29.143 42.1713C29.557 42.1713 29.9709 42.2543 30.3021 42.3373C31.0473 42.4203 31.8752 42.5864 32.6203 42.8354C33.0343 42.9184 33.3654 43.0845 33.7794 43.2505C34.1934 43.4165 34.5245 43.5825 34.8557 43.7486C35.1869 43.9146 35.518 43.9976 35.7664 44.1636L35.8492 44.2467H35.7664C35.6836 44.2467 35.6008 44.1636 35.518 44.1636C34.8557 43.8316 34.1106 43.5825 33.3654 43.3335C32.6203 43.0845 31.7924 42.9184 31.0473 42.7524C29.557 42.5034 27.9011 42.5034 26.4109 42.9184C25.0862 43.2505 23.8443 43.9146 22.8508 44.9108C22.6024 45.1598 22.354 45.4089 22.1885 45.7409C22.1057 45.9069 21.9401 46.073 21.8573 46.239C21.6089 46.156 21.4433 46.488 21.5261 46.5711Z" fill="#FF7D00"/>
<path fill-rule="evenodd" clip-rule="evenodd" d="M40.2372 60.0193C39.4093 59.4382 38.4986 58.9401 37.5051 58.4421C35.2697 57.4459 32.9515 56.7818 30.5505 56.2007C29.143 55.8686 27.7356 55.5366 26.5765 54.7894C25.3346 54.0423 24.4239 52.7971 24.3411 51.3028C24.3411 49.8916 25.5002 48.3973 26.9076 48.5634C25.583 48.2313 24.1755 49.4765 24.0099 50.8878C23.7615 53.0461 25.583 54.6234 27.3216 55.4535C29.143 56.3667 31.2128 56.8648 33.1171 57.4459C35.1869 58.027 37.2567 58.7741 39.0781 60.1023C42.4726 62.5928 44.4596 66.6605 45.122 70.8112C45.2048 71.1432 45.2048 71.3923 45.2876 71.7243C45.2876 71.8904 45.2876 71.9734 45.3704 72.1394C45.3704 72.0564 45.6187 71.7243 45.7015 71.5583C45.7843 71.3093 45.7015 71.0602 45.7015 70.8112C45.7843 68.8188 47.523 67.7397 48.9304 66.6605C50.6691 65.3322 52.0766 63.5889 53.2357 61.7626L53.3184 61.6796C54.5603 59.6043 55.3883 57.1968 54.8915 54.8724C56.4646 54.0423 58.286 53.7102 60.0246 54.2083C59.9418 52.7141 59.7763 51.0538 58.6172 50.2236C57.3753 49.3105 55.6366 49.7256 54.312 50.5557C51.1658 52.382 49.0132 55.7856 45.6187 57.1138C48.2681 57.0308 50.5035 54.8724 53.1529 54.7894C50.5035 56.3667 47.6886 57.2799 44.708 58.027C43.5489 58.276 43.7973 59.3552 43.6317 60.2684C43.6317 61.2645 43.4661 62.3437 43.3006 63.3399C42.3898 61.8456 41.3963 60.8495 40.2372 60.0193ZM52.1593 48.3143C52.0766 48.3143 52.1593 48.3143 52.1593 48.3143C51.6626 48.0653 51.1658 47.8992 50.7519 47.8992C50.3379 47.8992 49.8412 47.8992 49.4272 48.0653C49.2616 48.1483 49.096 48.2313 48.9304 48.3973C48.7649 48.5634 48.6821 48.7294 48.5165 48.8954C48.4337 49.0614 48.2681 49.3105 48.1853 49.4765C48.1025 49.6425 47.9369 49.8916 47.8541 50.0576C47.6886 50.3067 47.6058 50.5557 47.523 50.7217C47.523 50.8047 47.4402 50.8878 47.523 50.8878C47.6886 51.1368 52.0766 48.3143 52.0766 48.3143H52.1593ZM41.4791 44.8277C41.3135 44.6617 41.1479 44.7447 41.1479 44.9937C41.1479 45.2428 41.5619 48.2313 41.6447 48.1483C41.8103 47.8992 42.0587 47.5672 42.307 47.0691C42.3898 46.737 42.721 46.0729 42.721 45.8239C42.721 45.7409 42.721 45.6579 42.6382 45.6579C42.6382 45.5748 42.5554 45.5748 42.4726 45.4918L41.4791 44.8277ZM50.7519 48.8954C50.4207 48.7294 50.2551 48.6464 49.924 48.6464C49.6756 48.6464 49.4272 48.6464 49.1788 48.7294C49.096 48.8124 49.0132 48.8124 48.9304 48.8954C48.8476 48.9784 48.7649 49.0614 48.6821 49.1445C48.5993 49.2275 48.5993 49.3935 48.5165 49.4765C48.4337 49.5595 48.3509 49.7256 48.3509 49.8086C48.2681 49.9746 48.1853 50.0576 48.1853 50.2236V50.3067C48.2681 50.4727 50.6691 48.9784 50.7519 48.8954C50.7519 48.9784 50.7519 48.9784 50.7519 48.8954Z" fill="white"/>
<path fill-rule="evenodd" clip-rule="evenodd" d="M41.6443 45.4919C41.5616 45.4089 41.4788 45.4919 41.4788 45.5749C41.4788 45.6579 41.7271 47.4012 41.7271 47.4012C41.8099 47.2352 41.9755 47.0691 42.0583 46.8201C42.1411 46.6541 42.3067 46.239 42.3067 46.073C42.3067 45.99 42.3067 45.99 42.3067 45.99L42.2239 45.9069L41.6443 45.4919ZM50.9171 48.6464C50.8343 48.6464 50.9171 48.6464 50.9171 48.6464C50.6687 48.4804 50.4203 48.3974 50.172 48.3974C49.9236 48.3974 49.6752 48.3974 49.5096 48.4804C49.4268 48.4804 49.344 48.5634 49.2613 48.6464C49.1785 48.7294 49.0957 48.8124 49.0129 48.8955C48.9301 48.9785 48.9301 49.0615 48.8473 49.2275C48.7645 49.3105 48.7645 49.4766 48.6817 49.5596C48.5989 49.6426 48.5161 49.8086 48.5161 49.8916V49.9746C48.5161 50.1407 50.8343 48.7294 50.9171 48.6464C50.9171 48.7294 50.8343 48.7294 50.9171 48.6464Z" fill="#151B19"/>
<path fill-rule="evenodd" clip-rule="evenodd" d="M41.2308 42.4203C41.2308 42.5033 41.3136 42.6693 41.3136 42.7523C41.3964 42.8354 41.562 42.8354 41.6448 42.9184C41.6448 42.9184 41.7276 42.9184 41.7276 42.8354C41.8104 42.6693 41.9759 42.5863 42.0587 42.4203C42.2243 42.1712 42.3899 41.8392 42.3071 41.5071C42.2243 41.2581 42.8867 40.4279 42.8867 40.0959C42.8039 39.7638 42.5555 39.5978 42.6383 39.5148C42.7211 39.3488 42.8867 39.4318 43.135 39.2657C43.2178 39.1827 43.3006 39.0997 43.3834 38.9337C43.4662 38.7677 43.3834 38.6846 43.3834 38.5186C43.3006 38.4356 43.2178 38.2696 43.135 38.1866C42.9695 38.1035 42.8867 37.9375 42.7211 37.8545C42.4727 37.6055 42.2243 37.4394 41.8931 37.2734C41.6448 37.1074 41.3964 36.9413 41.0652 36.9413C40.9824 36.9413 40.8168 36.9413 40.7341 37.0244C40.6513 37.1074 40.5685 37.1904 40.4857 37.3564C40.4029 37.6885 40.4029 38.0205 40.4857 38.2696C40.5685 38.6016 40.5685 38.9337 40.6513 39.3488C40.7341 40.0129 40.8168 40.76 40.9824 41.4241C41.0652 41.7562 41.148 42.0882 41.2308 42.4203Z" fill="white"/>
<path fill-rule="evenodd" clip-rule="evenodd" d="M43.4659 55.7026C43.3003 55.5366 40.8166 53.5443 40.651 53.4613C40.5682 53.3782 40.4854 53.3782 40.4026 53.2952C40.4026 53.2952 40.3198 53.2952 40.237 53.2952C40.237 53.2952 40.1542 53.2952 40.0714 53.2952C40.0714 53.2952 40.0714 53.2952 40.0714 53.3782V53.4613C40.0714 53.5443 39.9886 53.5443 39.9886 53.6273C39.9059 53.7103 39.9059 53.7933 39.8231 53.8763C39.7403 54.0424 39.6575 54.2084 39.6575 54.4574C39.5747 54.7895 39.6575 55.2046 39.8231 55.5366C39.9886 55.9517 40.4026 56.2837 40.7338 56.4498C40.8994 56.5328 41.065 56.6158 41.3133 56.6988C41.4789 56.7818 42.7208 56.8648 42.8036 56.8648C42.8864 56.8648 42.9692 56.8648 43.1348 56.8648C43.2176 56.8648 43.3003 56.8648 43.4659 56.8648C43.5487 56.8648 43.6315 56.8648 43.7143 56.7818C43.7971 56.7818 43.8799 56.6988 43.8799 56.6158C43.8799 56.5328 43.8799 56.4498 43.7971 56.3668C43.7971 56.0347 43.6315 55.8687 43.4659 55.7026C43.5487 55.7026 43.5487 55.7026 43.4659 55.7026Z" fill="#1B201C"/>
</svg>
