<svg width="169" height="148" viewBox="0 0 169 148" fill="none" xmlns="http://www.w3.org/2000/svg">
<path d="M167.092 39.063C157.82 30.6524 148.548 22.2418 139.276 13.8312C138.279 12.9301 136.983 12.1291 135.687 11.7286C125.917 8.12406 116.047 4.61965 106.376 0.914995C103.984 0.0138613 101.99 -0.0862646 99.4972 0.714743C88.9294 4.0189 78.4612 4.11902 67.9931 0.314239C66.9961 -0.0862646 65.7001 -0.0862646 64.7031 0.214113C55.9298 3.31802 47.3559 6.7223 38.5826 9.62595C33.4981 11.3281 29.2111 14.0315 25.3229 17.636C16.9484 25.3457 8.47421 32.6549 0 40.0642V42.7676C0.697876 43.3684 1.49545 43.9691 2.09363 44.67C7.37755 50.978 12.7612 57.2859 17.9454 63.5938C19.5405 65.5964 20.8366 65.7966 22.8305 64.1946C25.1235 62.3923 27.616 60.6902 30.4075 58.6877V62.2922C30.4075 89.4263 30.3078 116.56 30.3078 143.695C30.3078 147.7 30.5072 147.9 34.2956 147.9C67.694 147.9 100.993 148 134.391 148C138.18 148 138.479 147.7 138.479 143.795L138.578 59.1883C141.37 61.0907 143.663 62.5926 145.657 64.2947C147.75 65.9969 149.146 65.8967 150.941 63.694C156.324 57.0856 161.907 50.6776 167.391 44.2695C169.584 41.7664 169.584 41.2657 167.092 39.063ZM73.277 5.92129C75.0715 6.3218 76.7664 6.7223 78.5609 6.92255C80.2558 7.1228 81.9506 7.32305 83.7451 7.22293C87.3342 7.22293 91.023 6.62217 94.5124 6.02142C96.3069 5.72104 98.0018 5.32054 99.7963 4.92003C99.9957 4.81991 101.591 4.61965 101.591 4.4194C99.896 15.6335 92.3191 23.4433 83.8448 22.9427C75.4703 22.4421 67.8934 14.0315 67.4946 4.61965C67.4946 4.81991 72.7785 5.82117 73.277 5.92129ZM148.049 61.2909C145.158 59.2884 142.466 57.2859 139.675 55.3835C138.578 54.6826 137.183 54.3822 135.986 53.8816C135.587 55.2834 134.89 56.6851 134.89 57.9868C134.79 81.5164 134.79 105.146 134.79 128.676V143.895L34.0962 143.795L34.1959 57.4862C34.1959 56.7853 34.1959 56.0844 34.1959 55.2834C33.9965 52.9805 32.7005 52.2796 30.8063 53.6814C27.5163 55.9843 24.326 58.3873 20.8366 60.8904C15.2536 54.4824 9.86996 48.0743 4.28695 41.5661C11.2657 35.2582 18.3442 29.3508 24.9242 22.9427C30.6069 17.4358 36.9874 13.7311 44.4647 11.5283C50.1474 9.8262 55.531 7.62343 61.114 5.62091C61.8119 5.42066 62.5098 5.22041 63.3073 5.02016C66.1985 16.835 71.5822 26.9477 85.1409 26.5472C97.9021 26.1467 103.086 16.5346 105.678 4.92003C115.548 8.52457 125.219 11.9288 134.79 15.5334C135.488 15.8338 136.186 16.2343 136.784 16.835C145.756 24.9452 154.829 33.1555 163.802 41.3659C164.001 41.5661 164.101 41.7664 164.4 42.1669C159.016 48.3747 153.632 54.7828 148.049 61.2909Z" fill="#666666"/>
<path d="M101.591 4.4194C99.896 15.6335 92.3191 23.4433 83.8449 22.9427C75.4704 22.4421 67.8934 14.0315 67.4946 4.61965C67.4946 4.81991 72.7785 5.82117 73.277 5.92129C75.0716 6.3218 76.7664 6.7223 78.561 6.92255C80.2558 7.1228 81.9506 7.32306 83.7452 7.22293C87.3343 7.22293 91.023 6.62217 94.5124 6.02142C96.307 5.72104 98.0018 5.32054 99.7963 4.92003C99.9957 4.81991 101.591 4.61966 101.591 4.4194Z" fill="white"/>
<path d="M164.4 42.0668C159.016 48.4748 153.632 54.7828 148.049 61.3911C145.158 59.3885 142.466 57.386 139.675 55.4836C138.578 54.7828 137.182 54.4824 135.986 53.9817C135.587 55.3835 134.889 56.7853 134.889 58.0869C134.79 81.6165 134.79 105.246 134.79 128.776V143.995L34.0962 143.895L34.1958 57.5863C34.1958 56.8854 34.1958 56.1845 34.1958 55.3835C33.9965 53.0806 32.7004 52.3797 30.8062 53.7815C27.5162 56.0844 24.3259 58.4874 20.8365 60.9906C15.2535 54.4824 9.86987 48.0743 4.28687 41.5661C11.2656 35.2582 18.3441 29.3508 24.9241 22.9427C30.6068 17.4358 36.9874 13.7311 44.4646 11.5284C50.1473 9.82621 55.5309 7.62344 61.1139 5.62093C61.8118 5.42067 62.5097 5.22042 63.3073 5.02017C66.1985 16.835 71.5821 26.9477 85.1408 26.5472C97.902 26.1467 103.086 16.5347 105.678 4.92004C115.548 8.52458 125.219 11.9289 134.79 15.5334C135.488 15.8338 136.185 16.2343 136.784 16.835C145.756 24.9452 154.829 33.1556 163.801 41.3659C164.001 41.3659 164.101 41.5661 164.4 42.0668Z" fill="white"/>
<path d="M67.3945 80.2147C68.2918 80.9156 69.4882 81.1159 70.3854 80.8155C69.3885 80.9156 68.2918 80.8155 67.3945 80.2147Z" fill="#1A1D1E"/>
<path d="M94.1136 71.3035C93.2163 70.6026 93.5154 67.7991 94.3129 65.7966C95.1105 63.7941 96.5063 62.7928 98.5002 62.9931C100.494 63.1933 103.186 64.6952 103.385 65.8967C103.585 67.0982 101.391 67.9994 99.2978 69.2009C97.1045 70.5025 95.0108 72.1045 94.1136 71.3035Z" fill="#1B1918"/>
<path d="M83.1469 65.5963C83.446 65.4962 82.7481 63.7941 82.449 62.9931C81.9505 61.8917 81.6514 61.2909 81.452 60.8904C81.2526 60.3898 80.9536 59.6889 80.5548 55.1832C80.3554 52.6801 80.2557 50.978 80.9536 50.3772C81.7511 49.6763 82.449 50.8778 83.446 51.2783C84.4429 51.5787 84.4429 51.8791 85.3402 52.3797C91.2223 55.8841 100.693 56.8854 106.775 53.8816C107.872 53.2809 110.165 51.5787 110.264 51.3785C110.663 50.177 112.358 50.0768 112.258 50.4773C111.959 51.5787 113.355 53.6814 113.156 54.7827C112.657 58.0869 112.358 61.7916 110.962 64.6952C110.962 64.6952 111.062 64.8955 111.162 64.9956C111.261 65.0957 114.651 70.0019 113.056 77.0107C112.159 81.0157 110.165 84.7204 107.872 88.1247C103.485 94.8331 97.5032 100.54 91.7208 106.047C88.8296 108.851 84.0442 113.957 84.0442 113.957C84.0442 113.957 74.4733 106.047 71.6818 103.644C65.2015 98.0372 59.0203 92.1297 53.4373 85.5214C50.8452 82.4175 48.4525 79.614 47.7546 75.5088C47.1564 71.8042 47.6549 67.9994 49.1503 64.5951C49.7485 63.2935 50.4464 62.2922 50.7455 61.8917C50.8452 61.5913 52.8391 58.8879 55.7303 57.0856C59.0203 54.983 63.407 53.7815 67.6939 54.7827C74.573 56.3848 80.8539 62.9931 81.9505 64.495C82.0502 64.6952 82.8478 65.6965 83.1469 65.5963Z" fill="white"/>
<path d="M55.9295 66.5976C56.0291 66.5976 56.0291 66.4975 56.1288 66.3974C56.2285 66.2972 56.2285 66.1971 56.3282 65.9969C56.4279 65.7966 56.6273 65.5964 56.8267 65.3961C57.2255 64.9956 57.5246 64.6952 57.9234 64.2947C59.5185 62.9931 61.4128 62.1921 63.4067 61.7916C65.5003 61.3911 67.6937 61.3911 69.887 61.8917C71.9806 62.2922 73.8748 62.9931 75.7691 64.0945C77.4639 65.0957 79.0591 66.2972 80.1557 67.8993C80.7539 68.7003 81.2524 69.6014 81.4518 70.6026C81.8506 71.704 81.8506 72.8054 81.7509 73.9068C81.6512 75.0082 81.3521 76.2097 81.2524 77.211C81.1527 78.1121 82.05 78.5126 82.6481 79.3136C83.0469 79.7141 82.9472 79.9144 83.346 80.0145C83.8445 80.1146 84.1436 80.1146 84.6421 80.1146C84.8415 80.1146 85.2403 80.3149 85.4396 80.2147C85.639 80.1146 85.4396 80.5151 85.34 80.3149C85.2403 80.2147 85.1406 80.0145 85.0409 79.9144C84.9412 79.7141 84.6421 79.5139 84.5424 79.3136C84.2433 78.9131 84.1436 78.012 83.8445 77.6115C83.4457 77.211 83.0469 77.0107 82.7478 76.7103C82.3491 76.3098 81.7509 76.6102 81.7509 76.1096C81.6512 75.5088 81.8506 75.0082 81.9503 74.5076C82.2494 73.4062 82.4488 72.3048 82.5485 71.2034C82.6481 70.102 82.6481 68.9005 82.6481 67.7991C82.5484 65.4962 82.2494 63.2935 81.6512 61.1908C81.053 59.0882 80.3551 56.8854 80.1557 54.6826C80.056 53.5812 80.056 52.4799 80.2554 51.3785C80.3551 51.0781 80.3551 50.7777 80.4548 50.4773C80.5545 50.177 80.6542 49.8766 80.8536 49.7765C81.1527 49.5762 81.4518 49.6763 81.7509 49.8766C81.9503 49.9767 82.1497 50.177 82.3491 50.3772C82.5484 50.4773 82.7478 50.6776 82.9472 50.8778C83.8445 51.4786 84.7418 51.9792 85.7387 52.4799C87.7327 53.381 89.8263 53.9817 91.9199 54.2821C93.0166 54.4824 94.2129 54.6826 95.2099 54.7827C96.3066 54.8829 97.5029 55.0831 98.5996 55.1833C99.6963 55.2834 100.893 55.2834 101.989 55.1833C103.086 55.0831 104.083 54.7828 105.18 54.4824C106.177 54.0819 107.074 53.5812 107.971 53.0806C108.37 52.7802 108.868 52.4799 109.167 52.0793C109.566 51.6788 109.865 51.2783 110.264 50.978C110.663 50.5775 110.962 50.2771 111.46 50.177C111.959 50.0768 112.358 50.4773 112.457 50.8778C112.657 51.2783 112.757 51.779 112.856 52.2796C112.956 52.8804 112.956 53.381 112.956 53.9817C113.056 56.2846 112.956 58.4874 112.557 60.7903C112.358 61.8917 112.059 62.9931 111.76 64.0945C111.66 64.495 111.46 64.9956 111.161 65.3961C111.062 65.4962 110.862 65.6965 110.663 65.7966C110.563 65.8967 110.264 65.8967 110.164 65.8967C110.065 65.7966 110.065 65.4962 110.164 65.296C110.264 64.9956 110.264 64.7953 110.364 64.495C110.463 63.9943 110.663 63.3936 110.763 62.8929C110.962 61.7916 111.161 60.6902 111.361 59.5888C111.46 58.988 111.46 58.4874 111.56 57.8867C111.66 57.386 111.66 56.7853 111.56 56.3848C111.46 56.1845 111.361 55.9843 111.161 55.8841C111.062 55.4836 110.862 55.4836 110.663 55.4836C110.164 55.5838 109.766 55.8841 109.367 56.0844C108.968 56.3848 108.47 56.6851 108.071 56.9855C107.871 57.0856 107.672 57.386 107.473 57.4862C107.373 57.5863 107.174 57.7865 107.074 57.9868C106.974 58.187 106.974 58.3873 106.974 58.5875C107.074 58.7878 107.174 58.988 107.373 59.0882C107.473 59.1883 107.672 59.4887 107.772 59.6889C107.871 59.8892 107.871 60.1896 107.871 60.4899C107.871 60.8904 107.871 61.4912 108.27 61.7916C108.37 61.8917 108.47 61.8917 108.569 61.8917C108.669 61.8917 108.769 61.9918 108.868 61.9918C108.968 62.0919 108.868 62.3923 108.868 62.5926C108.769 63.0932 108.968 63.694 109.267 64.0945C109.566 64.495 109.865 64.9956 110.264 65.296C110.663 65.6965 110.962 66.097 111.361 66.3974C111.76 66.7979 111.959 67.1984 112.258 67.5989C112.856 68.5 113.255 69.4011 113.454 70.4024C114.053 72.505 114.053 74.8079 113.554 76.9106C113.056 79.0132 112.358 81.0157 111.46 83.0183C110.464 84.9207 109.367 86.823 108.17 88.6253C106.874 90.4276 105.578 92.1297 104.183 93.8319C102.687 95.534 101.192 97.136 99.5966 98.6379C98.0014 100.24 96.3066 101.842 94.6117 103.344C92.9169 104.946 91.3218 106.448 89.6269 108.05C88.7296 108.851 88.0318 109.652 87.1345 110.353C86.3369 111.154 85.5393 111.955 84.8415 112.656C84.7418 112.756 84.4427 112.956 84.343 113.156C84.2433 113.256 84.2433 113.356 84.2433 113.457C84.343 113.557 84.4427 113.356 84.4427 113.356C84.8415 112.956 85.2403 112.656 85.5393 112.255C86.2372 111.454 86.9351 110.653 87.5333 109.752C88.6299 107.95 89.1284 105.947 89.0287 103.844C89.0287 103.244 88.929 102.743 88.8293 102.242C88.7296 101.742 88.6299 101.141 88.4305 100.64C88.4305 100.54 88.3309 100.24 88.1315 100.34C88.0318 100.44 88.0318 100.44 87.9321 100.54C87.8324 100.64 87.8324 100.741 87.633 100.841C87.2342 101.141 86.636 101.041 86.3369 101.441C86.2372 101.542 86.0378 101.842 85.9381 101.942C85.8384 102.042 85.639 102.042 85.5393 101.842C85.4397 101.742 85.4396 101.441 85.4396 101.241C85.4396 100.941 85.4396 100.64 85.34 100.34C85.34 100.24 85.2403 99.9395 85.2403 99.6392C85.2403 99.539 85.34 99.0384 85.0409 99.0384C84.9412 99.0384 84.8415 99.1385 84.7418 99.1385C84.6421 99.2387 84.6421 99.2387 84.4427 99.4389C84.2433 99.539 84.0439 99.7393 83.8445 99.9395C83.7448 100.04 83.5454 100.24 83.346 100.24C83.1466 100.34 82.9472 100.04 82.9472 99.8394C82.6481 99.4389 82.3491 98.9383 81.8506 98.6379C81.7509 98.5378 81.5515 98.3375 81.3521 98.2374C81.2524 98.1373 81.1527 98.0372 80.9533 98.0372C80.7539 98.0372 80.8536 98.4377 80.8536 98.5378C80.9533 98.738 80.9533 99.0384 80.9533 99.2387C81.053 99.8394 81.053 100.34 81.053 100.841C81.1527 101.041 81.1527 101.341 81.1527 101.542C81.1527 101.642 81.1527 101.642 81.053 101.742C80.9533 101.842 80.9533 101.642 80.8536 101.642C80.7539 101.542 80.7539 101.441 80.7539 101.241C80.6542 101.141 80.6542 101.041 80.5545 100.941C80.4548 100.741 80.1557 100.54 80.056 100.44C79.9563 100.34 79.6572 100.14 79.4578 100.04C79.2585 100.04 79.1588 100.24 79.1588 100.44C79.1588 100.54 79.2585 100.841 79.2585 100.941C79.1588 101.241 78.8597 101.041 78.76 100.941C78.5606 100.841 78.3612 100.64 78.0621 100.54C77.8627 100.44 77.5636 100.24 77.3642 100.14C76.9654 99.9395 76.467 99.6392 76.0682 99.3388C75.9685 99.2387 75.6694 99.1385 75.5697 99.3388C75.47 99.539 75.47 99.7393 75.47 99.9395C75.47 100.24 75.5697 100.44 75.5697 100.741C75.6694 101.041 75.7691 101.241 75.9685 101.441C76.0682 101.542 76.0682 101.642 76.0682 101.742C75.9685 101.842 75.9685 101.842 75.7691 101.842C75.5697 101.842 75.5697 101.842 75.3703 101.842C75.1709 101.842 75.0712 101.942 74.9715 101.942C74.473 102.042 73.9745 102.343 73.4761 102.543C73.2767 102.643 72.9776 102.743 72.7782 102.943C72.5788 103.043 72.3794 103.043 72.18 103.144C72.0803 103.244 71.7812 103.344 71.7812 103.544C71.8809 103.744 72.0803 103.844 72.18 103.945C72.5788 104.245 73.0773 104.645 73.4761 105.046C74.3733 105.847 75.1709 106.548 76.0682 107.349C77.763 108.851 79.4579 110.253 81.2524 111.654C81.6512 112.055 82.1497 112.355 82.5485 112.656C82.8475 112.856 83.1466 113.056 83.4457 113.256C83.5454 113.256 83.7448 113.356 83.6451 113.156C83.6451 113.056 83.5454 113.056 83.5454 113.056C83.4457 112.956 83.346 112.956 83.2463 112.856C82.7478 112.555 82.3491 112.255 81.8506 111.855C80.9533 111.254 80.056 110.553 79.1588 109.752C78.2615 109.051 77.3642 108.35 76.4669 107.649C74.6724 106.247 72.9776 104.746 71.183 103.344C69.3885 101.842 67.6936 100.44 65.9988 98.8382C64.304 97.3363 62.6091 95.8344 61.014 94.2324C59.4188 92.6303 57.724 91.1285 56.1288 89.4263C53.8358 87.1234 51.6425 84.5201 50.0474 81.7166C49.6486 80.9156 49.1501 80.1146 48.851 79.3136C47.9537 77.3111 47.3555 75.3086 47.1562 73.1058C46.8571 70.903 47.0565 68.7003 47.5549 66.5976C48.0534 64.5951 48.9507 62.7928 50.147 61.0907C51.2437 59.4887 52.7392 58.0869 54.434 56.9855C56.1288 55.8841 58.0231 55.0831 60.017 54.6826C62.2103 54.2821 64.4037 54.2821 66.597 54.6826C67.1952 54.7827 67.6937 54.8829 68.2918 55.0831C68.6906 55.1833 69.0894 55.2834 69.3885 55.4836C69.3885 55.4836 69.6876 55.5838 69.4882 55.5838C69.3885 55.5838 69.3885 55.5838 69.2888 55.5838C69.1891 55.5838 69.1891 55.4836 69.0894 55.4836C68.5909 55.3835 67.9927 55.1833 67.4943 55.0831C65.4006 54.5825 63.1076 54.5825 60.9143 54.983C58.9203 55.3835 57.0261 56.0844 55.3313 57.2859C53.7361 58.3873 52.3404 59.789 51.2437 61.3911C50.6455 62.2922 50.2467 63.1933 49.848 64.1946C49.6486 64.6952 49.4492 65.1958 49.3495 65.7966C49.3495 65.8967 49.2498 65.9969 49.2498 66.1971C49.2498 66.2972 49.3495 66.2972 49.3495 66.1971C49.4492 66.097 49.4492 65.9969 49.4492 65.8967C49.6486 65.3961 49.848 64.8955 50.0474 64.3948C50.2467 63.8942 50.5458 63.4937 50.8449 62.9931C51.4431 62.0919 52.141 61.2909 52.8389 60.4899C54.2346 59.0882 55.9295 57.8867 57.724 56.9855C59.6182 56.0844 61.7119 55.4836 63.9052 55.3835C65.0018 55.2834 66.0985 55.3835 67.1952 55.4836C67.2949 55.4836 67.3946 55.4836 67.594 55.5838C67.6937 55.5838 67.893 55.6839 67.893 55.6839C67.893 55.784 67.7934 55.784 67.6937 55.784C67.594 55.784 67.3946 55.784 67.2949 55.6839C66.6967 55.5838 66.1982 55.5838 65.6 55.6839C65.0018 55.784 64.5034 55.784 64.0049 55.9843C63.4067 56.0844 62.9082 56.1845 62.4097 56.3848C62.31 56.3848 62.0109 56.4849 62.1106 56.585C62.2103 56.6851 62.31 56.585 62.5094 56.585C63.0079 56.4849 63.5064 56.3848 64.1046 56.3848C65.2012 56.2846 66.2979 56.2846 67.3946 56.4849C68.4912 56.585 69.5879 56.7853 70.6846 57.0856C72.6785 57.6864 74.6724 58.4874 76.3673 59.5888C77.2645 60.1895 78.1618 60.7903 78.9594 61.4912C79.8566 62.1921 80.5545 62.9931 81.2524 63.7941C81.6512 64.1946 81.9503 64.5951 82.2494 64.9956C82.2494 65.0957 82.3491 65.1958 82.3491 65.296C82.2494 65.3961 82.2494 65.1958 82.1497 65.1958C81.9503 64.9956 81.7509 64.7953 81.6512 64.5951C81.053 63.694 80.2554 62.9931 79.3582 62.3923C77.763 61.0907 75.9685 60.0894 74.0742 59.2884C73.5758 59.0882 73.0773 58.8879 72.4791 58.6877C72.18 58.5875 71.9806 58.5875 71.6815 58.3873C71.5818 58.3873 71.5818 58.2872 71.4821 58.3873C71.3824 58.3873 71.3824 58.4874 71.4821 58.4874C71.5818 58.5875 71.5818 58.5875 71.6815 58.5875C71.7812 58.6877 71.8809 58.6877 72.0803 58.7878C72.2797 58.8879 72.4791 59.0882 72.6785 59.1883C73.0773 59.5888 73.5757 59.789 73.9745 60.1895C74.3733 60.5901 74.8718 60.7903 75.3703 61.0907C75.5697 61.1908 75.7691 61.3911 75.9685 61.4912C76.0682 61.5913 76.1679 61.5913 76.2676 61.6914L76.3673 61.7916C76.3673 61.7916 76.2676 61.8917 76.2676 61.7916C76.1679 61.6914 76.1679 61.6914 76.0682 61.6914C75.9685 61.5913 75.7691 61.5913 75.6694 61.4912C75.1709 61.1908 74.7721 60.9906 74.2736 60.8904C72.18 60.1895 69.9867 59.789 67.7933 59.6889C67.1952 59.6889 66.6967 59.6889 66.0985 59.789C65.5003 59.8892 64.9021 60.0894 64.4037 60.0894C64.1046 60.0894 63.9052 60.0894 63.6061 60.1895C63.5064 60.1895 63.2073 60.2897 63.2073 60.3898C63.2073 60.4899 63.4067 60.4899 63.5064 60.4899C63.6061 60.4899 63.8055 60.4899 63.9052 60.4899C64.2043 60.4899 64.5034 60.3898 64.8025 60.3898C65.4006 60.3898 65.8991 60.3898 66.3976 60.4899C66.8961 60.5901 67.4943 60.5901 67.9927 60.6902C69.0894 60.7903 70.0864 61.0907 71.183 61.3911C71.6815 61.4912 72.2797 61.7916 72.7782 61.9918C73.2767 62.1921 73.7751 62.3923 74.3733 62.6927C74.7721 62.8929 75.2706 63.0932 75.6694 63.2935C75.7691 63.2935 75.7691 63.3936 75.7691 63.3936C75.7691 63.3936 75.6694 63.4937 75.6694 63.3936C75.5697 63.3936 75.3703 63.2935 75.2706 63.2935C74.2736 62.893 73.2767 62.4924 72.2797 62.1921C71.183 61.7916 70.1861 61.5913 68.9897 61.3911C66.8961 60.9906 64.7028 60.9906 62.5094 61.5913C60.7149 62.0919 58.9204 62.9931 57.5246 64.3948C57.1258 64.7953 56.9264 65.0957 56.5276 65.4962C56.4279 65.6965 56.1288 65.8967 56.0292 66.097C56.0292 66.097 55.7301 66.4975 55.9295 66.5976Z" fill="#FF7D00"/>
<path d="M81.9504 85.4213C80.754 84.5201 79.458 83.8193 78.1619 83.2185C75.0713 81.8167 71.7813 80.9156 68.4913 80.1146C66.5971 79.614 64.6032 79.2135 62.9083 78.1121C61.2135 77.0107 59.9174 75.3086 59.9174 73.306C59.8177 71.3035 61.5126 69.301 63.5065 69.5013C61.6123 69.1007 59.718 70.8029 59.5186 72.8054C59.2195 75.8092 61.712 78.012 64.1047 79.2135C66.6968 80.5151 69.4883 81.216 72.2798 82.017C75.171 82.9181 78.0622 83.8193 80.5546 85.7216C85.2404 89.2261 87.9322 94.8331 88.9291 100.54C89.0288 100.941 89.0288 101.441 89.0288 101.842C89.0288 102.042 89.1285 102.242 89.1285 102.443C89.1285 102.343 89.5273 101.842 89.5273 101.642C89.627 101.241 89.5273 100.941 89.627 100.54C89.7267 97.7368 92.2191 96.2349 94.1134 94.733C96.5061 92.9307 98.5 90.4276 100.095 87.8243C100.095 87.7242 100.195 87.7242 100.195 87.7242C101.89 84.9206 103.086 81.5164 102.288 78.2122C104.382 77.0107 107.074 76.6102 109.467 77.2109C109.367 75.1083 109.068 72.8054 107.473 71.6039C105.778 70.3023 103.285 71.0031 101.491 72.0044C97.1043 74.5075 94.1134 79.2135 89.3279 81.1159C93.0167 81.0157 96.1073 78.1121 99.7961 77.8117C96.1073 80.0145 92.2191 81.3161 88.0319 82.3174C86.5364 82.6177 86.7358 84.0195 86.6361 85.3211C86.6361 86.7229 86.337 88.1247 86.2373 89.5264C84.8416 87.9244 83.4458 86.5227 81.9504 85.4213ZM98.4003 69.1007C98.4003 69.0006 98.3006 69.0006 98.3006 69.0006C97.7024 68.7002 97.1043 68.5 96.4064 68.3999C95.8082 68.2997 95.1103 68.3999 94.6118 68.7002C94.4125 68.8004 94.1134 68.9005 94.0137 69.1007C93.8143 69.301 93.6149 69.5012 93.4155 69.8016C93.2161 70.102 93.1164 70.4024 93.0167 70.6026C92.917 70.903 92.6179 71.2034 92.5182 71.5038C92.3188 71.8041 92.1194 72.1045 92.0197 72.505C92.0197 72.6052 91.92 72.7053 92.0197 72.7053C92.2191 73.0057 98.3006 69.2009 98.4003 69.2009C98.4003 69.1007 98.4003 69.1007 98.4003 69.1007ZM83.6452 64.1946C83.3461 63.9943 83.1467 64.0945 83.1467 64.3948C83.1467 64.6952 83.7449 68.9005 83.7449 68.9005C84.044 68.5 84.3431 67.9994 84.6422 67.3986C84.7419 66.9981 85.2404 65.9968 85.2404 65.5963C85.2404 65.4962 85.1407 65.3961 85.1407 65.296C85.041 65.1958 85.041 65.1958 84.9413 64.9956L83.6452 64.1946ZM96.5061 69.9018C96.1073 69.7015 95.8082 69.5013 95.4094 69.5013C95.0106 69.5013 94.7115 69.5013 94.4124 69.6014C94.3128 69.7015 94.1134 69.7015 94.0137 69.8016C93.914 69.9018 93.8143 70.102 93.7146 70.2021C93.6149 70.3023 93.6149 70.5025 93.4155 70.6026C93.3158 70.7028 93.2161 70.903 93.1164 71.1033C93.0167 71.2034 92.917 71.5038 92.8173 71.704C92.8173 71.704 92.7176 71.8041 92.8173 71.8041C93.1164 72.1045 96.5061 70.0019 96.5061 69.9018Z" fill="white"/>
<path d="M83.8447 65.1958C83.745 65.0957 83.5457 65.0957 83.5457 65.296C83.5457 65.3961 83.9444 67.7991 83.9444 67.7991C84.0441 67.5989 84.3432 67.2985 84.4429 66.898C84.5426 66.6977 84.8417 66.097 84.742 65.8967C84.742 65.7966 84.742 65.7966 84.6423 65.7966C84.6423 65.6965 84.5426 65.6965 84.5426 65.6965L83.8447 65.1958ZM96.7056 69.6014C96.7056 69.5012 96.7056 69.6014 96.7056 69.6014C96.3068 69.4011 96.0077 69.301 95.6089 69.2009C95.2102 69.2009 95.0108 69.2009 94.612 69.301C94.5123 69.4011 94.3129 69.4011 94.2132 69.5013C94.1135 69.6014 94.0138 69.7015 93.9141 69.9018C93.8144 70.0019 93.8144 70.2021 93.7147 70.3023C93.615 70.4024 93.615 70.6026 93.4156 70.7028C93.3159 70.8029 93.2162 71.1033 93.1165 71.2034C93.1165 71.2034 93.0168 71.3035 93.1165 71.3035C93.4156 71.6039 96.6059 69.5012 96.7056 69.6014Z" fill="#151B19"/>
<path d="M83.3462 60.7903C83.4459 60.8904 83.4459 61.0907 83.4459 61.1908C83.5456 61.2909 83.745 61.2909 83.9444 61.3911L84.0441 61.2909C84.1438 61.0907 84.3432 60.8904 84.4429 60.6902C84.6423 60.2897 84.8417 59.7891 84.742 59.3886C84.6423 58.9881 85.6393 57.7865 85.5396 57.386C85.4399 56.8854 85.1408 56.7853 85.2405 56.4849C85.3402 56.2847 85.6393 56.3848 85.9383 56.0844C86.038 55.9843 86.2374 55.8841 86.3371 55.6839C86.4368 55.4836 86.3371 55.2834 86.2374 55.0831C86.1377 54.983 86.038 54.7828 85.8387 54.6826C85.739 54.5825 85.4399 54.3823 85.2405 54.182C84.8417 53.8816 84.4429 53.5813 84.1438 53.2809C83.745 53.0806 83.4459 52.8804 83.0472 52.7802C82.9475 52.7802 82.6484 52.7802 82.5487 52.8804C82.449 52.9805 82.2496 53.1807 82.2496 53.2809C82.1499 53.6814 82.1499 54.182 82.2496 54.5825C82.3493 55.0831 82.3493 55.5838 82.449 56.0844C82.5487 57.0857 82.7481 58.0869 82.9475 58.9881C83.1468 59.8892 83.1468 60.3898 83.3462 60.7903Z" fill="white"/>
<path d="M86.437 79.4137C86.3373 79.2135 82.8479 76.41 82.5488 76.2097C82.4491 76.1096 82.3494 76.1096 82.15 76.1096C82.0503 76.1096 82.0503 76.0095 82.0503 76.0095C81.9506 76.0095 81.9506 76.0095 81.8509 76.0095C81.8509 76.0095 81.8509 76.1096 81.7512 76.1096C81.7512 76.1096 81.7512 76.2097 81.6515 76.2097C81.6515 76.3098 81.5518 76.3098 81.5518 76.41C81.5518 76.5101 81.4521 76.6102 81.4521 76.8105C81.3524 77.1108 81.2527 77.3111 81.2527 77.6115C81.153 78.1121 81.2527 78.7129 81.4521 79.1134C81.7512 79.7141 82.2497 80.1146 82.7482 80.415C83.0473 80.5151 83.3464 80.6153 83.6455 80.8155C83.8448 80.9156 85.5397 81.0158 85.7391 81.0158C85.9385 81.0158 86.0382 81.0158 86.1379 80.9156C86.2376 80.9156 86.437 80.9156 86.5367 80.8155C86.6364 80.8155 86.8357 80.8155 86.9354 80.7154C87.0351 80.6153 87.0351 80.6153 87.1348 80.5151C87.1348 80.415 87.1348 80.2147 87.0351 80.1146C86.8357 79.7141 86.6363 79.614 86.437 79.4137C86.5367 79.4137 86.437 79.4137 86.437 79.4137Z" fill="#1B201C"/>
</svg>
