<svg width="30" height="30" viewBox="0 0 30 30" fill="none" xmlns="http://www.w3.org/2000/svg">
<path d="M19.6216 0C11.1892 0 18.8108 0 10.4595 0C2.10811 0 0 2.02703 0 10.3784C0 15.0811 0 11.1892 0 19.5405C0 27.973 2.02703 30 10.3784 30C18.7297 30 11.1892 30 19.5405 30C27.8919 30 30 27.973 30 19.6216C30 11.1892 30 18.8108 30 10.4595C30 2.10811 27.973 0 19.6216 0ZM24.2432 21.4054H22.0541C21.2432 21.4054 21 20.7568 19.4595 19.2973C18.1622 18.0811 17.5946 17.9189 17.2703 17.9189C16.8649 17.9189 16.7027 18.0811 16.7027 18.6486V20.5946C16.7027 21.1622 16.5405 21.4054 15.1622 21.4054C12.8108 21.4054 10.2973 20.027 8.51351 17.4324C5.83784 13.6216 5.02703 10.7838 5.02703 10.2162C5.02703 9.89189 5.18919 9.56757 5.75676 9.56757H7.94595C8.51351 9.56757 8.67568 9.81081 8.91892 10.3784C9.97297 13.4595 11.7568 16.2162 12.5676 16.2162C12.8108 16.2162 12.973 16.0541 12.973 15.4054V12.1622C12.8919 10.7027 12.0811 10.5405 12.0811 10.0541C12.0811 9.81081 12.3243 9.56757 12.6486 9.56757H16.0541C16.5405 9.56757 16.7027 9.81081 16.7027 10.3784V14.6757C16.7027 15.1622 16.8649 15.3243 17.027 15.3243C17.2703 15.3243 17.5135 15.1622 18.0811 14.6757C19.6216 12.8919 20.7568 10.2162 20.7568 10.2162C20.9189 9.89189 21.1622 9.56757 21.7297 9.56757H23.9189C24.5676 9.56757 24.7297 9.89189 24.5676 10.3784C24.3243 11.6757 21.6486 15.4054 21.6486 15.4054C21.4054 15.8108 21.3243 15.973 21.6486 16.3784C21.8919 16.7027 22.6216 17.3514 23.1892 17.9189C24.1622 18.973 24.8108 19.8649 25.0541 20.5135C25.1351 21.0811 24.8108 21.4054 24.2432 21.4054Z" fill="#00636D"/>
</svg>
