<svg width="194" height="35" viewBox="0 0 194 35" fill="none" xmlns="http://www.w3.org/2000/svg">
<path d="M25.4001 9.51562H10.5V14.4156H23.3001V21.9156H10.5V33.3156H0.800052V1.51562H25.3001L25.4001 9.51562Z" fill="#FF7D00"/>
<path d="M60.9 17.4156C60.9 27.3156 54.5 34.0156 45 34.0156C35.3 34.0156 28.8001 27.4156 28.8001 17.4156C28.8001 7.31556 35.3001 0.815558 45.1001 0.815558C54.6001 0.715558 60.9 7.41556 60.9 17.4156ZM38.7 17.2156C38.7 22.9156 41 26.1156 45 26.1156C49 26.1156 51.1001 22.9156 51.1001 16.9156C51.1001 11.6156 48.8 8.41556 45 8.41556C41 8.51556 38.7 11.8156 38.7 17.2156Z" fill="#FF7D00"/>
<path d="M82.7001 16.4156L94.0001 33.2156H82.3001L79.2001 28.0156C78.3001 26.5156 77.6001 25.0156 76.9001 23.5156C76.1001 25.1156 75.3001 26.7156 74.4001 28.2156L71.4001 33.2156H60.1001L71.6001 16.4156L61.1001 1.51562H72.5001L74.9001 5.71563C75.8001 7.21563 76.5001 8.81562 77.3001 10.4156C78.0001 9.01562 78.6001 7.61563 79.4001 6.21563L82.0001 1.51562H92.8001L82.7001 16.4156Z" fill="#FF7D00"/>
<path d="M106.6 13.3157C110.7 13.3157 113.6 15.2157 113.6 19.5157C113.6 23.7157 110.6 25.6157 106.8 25.6157H102.5V32.5157H98.3001V13.3157H106.6ZM102.6 22.2157H106.3C108.2 22.2157 109.6 21.6157 109.6 19.5157C109.6 17.5157 108.2 16.7157 106.3 16.7157H102.5V22.2157H102.6Z" fill="black"/>
<path d="M133.4 32.4157H129.2V24.2157H121.4V32.4157H117.2V13.3157H121.4V20.5157H129.2V13.3157H133.4V32.4157Z" fill="black"/>
<path d="M156.1 22.9156C156.1 28.9156 152.3 32.9156 146.7 32.9156C141 32.9156 137.2 28.9156 137.2 22.9156C137.2 16.8156 141 12.9156 146.7 12.9156C152.3 12.8156 156.1 16.9156 156.1 22.9156ZM141.5 22.8156C141.5 26.9156 143.5 29.4156 146.7 29.4156C149.9 29.4156 151.8 26.9156 151.8 22.8156C151.8 18.8156 149.8 16.3156 146.6 16.3156C143.5 16.3156 141.5 18.8156 141.5 22.8156Z" fill="black"/>
<path d="M173.3 16.8156H167.5V32.4156H163.3V16.8156H157.5V13.2156H173.2V16.8156H173.3Z" fill="black"/>
<path d="M193.6 22.9156C193.6 28.9156 189.8 32.9156 184.2 32.9156C178.5 32.9156 174.7 28.9156 174.7 22.9156C174.7 16.8156 178.5 12.9156 184.2 12.9156C189.8 12.8156 193.6 16.9156 193.6 22.9156ZM179 22.8156C179 26.9156 181 29.4156 184.2 29.4156C187.4 29.4156 189.3 26.9156 189.3 22.8156C189.3 18.8156 187.3 16.3156 184.1 16.3156C181 16.3156 179 18.8156 179 22.8156Z" fill="black"/>
</svg>
