<svg width="50" height="47" viewBox="0 0 50 47" fill="none" xmlns="http://www.w3.org/2000/svg">
<path d="M15.6001 21.9155C16.2001 22.4155 17.1001 22.5155 17.8001 22.3155C17.1001 22.4155 16.3001 22.4155 15.6001 21.9155Z" fill="#1A1D1E"/>
<path d="M34.9001 15.5155C34.2001 15.0155 34.5001 12.9155 35.1001 11.5155C35.7001 10.1155 36.7001 9.31552 38.1001 9.51552C39.5001 9.71552 41.5001 10.7155 41.6001 11.6155C41.8001 12.5155 40.2001 13.1155 38.6001 14.0155C37.1001 14.9155 35.6001 16.0155 34.9001 15.5155Z" fill="#1B1918"/>
<path d="M49 15.1155C48.8 14.4155 48.5 13.7155 48.1 13.0155C47.9 12.7155 47.7001 12.4155 47.5 12.1155C47.3 11.8155 47 11.5155 46.7001 11.3155C46.4001 11.0155 46.2001 10.7155 46 10.4155C45.8 10.1155 45.6001 9.71547 45.7001 9.31547C45.7001 9.21547 45.8 9.01547 45.7001 8.91547C45.6001 8.91547 45.6 8.91547 45.5 8.81547C45.4001 8.81547 45.3 8.71547 45.3 8.71547C45 8.51547 45 8.11547 45 7.71547C45 7.51547 45 7.31547 44.9001 7.11547C44.8001 6.91547 44.7 6.81547 44.6 6.71547C44.5 6.61547 44.4 6.51547 44.3 6.31547C44.2001 6.11547 44.3 6.01547 44.3 5.91547C44.4 5.81547 44.5 5.61547 44.6 5.51547C44.7 5.41547 44.9 5.21547 45.1 5.11547C45.4 4.91547 45.7001 4.61547 46 4.41547C46.3 4.21547 46.6001 4.01547 46.9001 4.01547C47 4.01547 47.2001 4.01547 47.3 4.11547C47.4 4.21547 47.5 4.31547 47.6 4.51547C47.7 4.81547 47.7 5.21547 47.6 5.61547C47.6 6.01547 47.5 6.41547 47.4001 6.81547C47.3001 7.61547 47.2001 8.41547 47 9.21547C46.9001 9.61547 46.8 10.0155 46.7001 10.4155C46.6001 10.6155 46.6 10.8155 46.5 11.0155C46.5 11.1155 46.4001 11.3155 46.5 11.4155C46.6 11.5155 46.8 11.4155 46.8 11.3155C46.9 11.2155 47.1 11.1155 47.1 11.0155C47.3 10.7155 47.4001 10.4155 47.5 10.0155C47.7001 9.21547 47.9 8.51547 48.1 7.71547C48.4 6.11547 48.5 4.41547 48.4001 2.81547C48.4001 2.41547 48.3 2.01547 48.3 1.61547C48.3 1.31547 48.2 0.91547 48.1 0.61547C48 0.31547 47.7001 0.0154701 47.4001 0.11547C47.1001 0.21547 46.8 0.41547 46.5 0.71547C46.2001 1.01547 46 1.31547 45.7001 1.51547C45.4001 1.81547 45.1 2.01547 44.8 2.21547C44.2001 2.61547 43.5 3.01547 42.8 3.21547C42.1 3.51547 41.3 3.61547 40.5 3.71547C39.7001 3.81547 38.9 3.81547 38.1 3.71547C37.3 3.61547 36.5 3.51547 35.6 3.41547C34.8 3.31547 34 3.21547 33.2001 3.01547C32 2.91547 30.5 2.51547 29 1.81547C28.3 1.51547 27.6001 1.11547 26.9001 0.71547C26.7001 0.61547 26.6001 0.51547 26.4001 0.41547C26.2001 0.31547 26.1001 0.21547 25.9001 0.11547C25.7001 0.0154701 25.4001 -0.0845299 25.2001 0.11547C25 0.21547 24.9001 0.41547 24.9001 0.61547C25.0001 0.71547 25.0001 0.91547 24.9001 1.11547C24.8001 1.91547 24.8 2.71547 24.8 3.51547C25 5.11547 25.5001 6.61547 25.9001 8.11547C26.3001 9.71547 26.6 11.3155 26.6 12.9155C26.6 13.7155 26.6 14.5155 26.5 15.4155C26.4 16.2155 26.2001 17.0155 26 17.8155C25.9 18.2155 25.8001 18.6155 25.9001 19.0155C25.9001 19.3155 26.4 19.2155 26.6 19.4155C26.9 19.7155 27.1001 19.8155 27.4001 20.1155C27.7001 20.3155 27.7001 21.0155 27.9001 21.3155C28.0001 21.5155 28.1 21.6155 28.2001 21.8155C28.3001 21.9155 28.3001 22.0155 28.4001 22.1155C28.3001 22.1155 28.0001 22.0155 27.9001 22.0155C27.5001 22.0155 27.3 22.0155 27 21.9155C26.7001 21.8155 26.7001 21.6155 26.5 21.4155C26 20.9155 25.4 20.6155 25.5 19.9155C25.6 19.1155 25.8001 18.3155 25.9001 17.5155C26.0001 16.7155 25.9001 15.9155 25.7001 15.1155C25.5 14.4155 25.1 13.8155 24.7001 13.2155C23.9001 12.1155 22.7001 11.2155 21.5 10.5155C20.2001 9.71547 18.7 9.21547 17.3 8.91547C15.8 8.61547 14.2 8.51547 12.6 8.81547C11.2 9.11547 9.80005 9.71547 8.70005 10.6155C8.40005 10.8155 8.10005 11.1155 7.90005 11.3155C7.80005 11.4155 7.70005 11.6155 7.60005 11.7155C7.50005 11.8155 7.50005 11.9155 7.40005 11.9155C7.40005 11.9155 7.30005 12.0155 7.20005 12.0155C7.10005 12.0155 7.30005 11.6155 7.40005 11.6155C7.50005 11.4155 7.60005 11.3155 7.70005 11.1155C7.90005 10.8155 8.10005 10.5155 8.40005 10.3155C9.40005 9.31547 10.6 8.71547 12 8.31547C13.5 7.91547 15.1 7.91547 16.6 8.21547C17.4 8.31547 18.2 8.51547 18.9 8.81547C19.6 9.01547 20.4 9.31547 21 9.61547C21.1 9.61547 21.2 9.71547 21.3 9.71547H21.4L21.3 9.61547C21 9.41547 20.7 9.31547 20.4 9.21547C20 9.01547 19.7 8.91547 19.3 8.71547C18.9 8.61547 18.6 8.41547 18.2001 8.31547C17.6 8.11547 16.8 7.91547 16 7.81547C15.6 7.71547 15.2 7.71547 14.8 7.71547C14.4 7.71547 14 7.71547 13.6 7.71547C13.4 7.71547 13.2 7.71547 13 7.81547C12.9 7.81547 12.8 7.81547 12.7 7.81547H12.5C12.5 7.71547 12.7 7.71547 12.8 7.71547C13 7.71547 13.2 7.61547 13.4 7.61547C13.8 7.61547 14.2 7.51547 14.6 7.51547C15 7.51547 15.4 7.41547 15.8 7.51547C17.4 7.51547 19 7.81547 20.5 8.41547C20.9 8.51547 21.2001 8.71547 21.5 8.91547C21.6 8.91547 21.7 9.01547 21.8 9.01547C21.9 8.81547 22 8.91547 22 8.91547H22.1C22.1 8.91547 22.1 8.81547 22 8.81547C22 8.71547 22 8.71547 21.9 8.61547C21.7 8.51547 21.6 8.41547 21.4 8.31547C21.1 8.11547 20.7 7.91547 20.4 7.61547C20.1 7.41547 19.8 7.11547 19.4 6.91547C19.2 6.81547 19.1 6.71547 18.9 6.61547C18.8 6.51547 18.7001 6.51547 18.7001 6.51547L18.6 6.41547C18.6 6.41547 18.5 6.31547 18.6 6.31547H18.7001C18.9001 6.41547 19.1 6.41547 19.2001 6.51547C19.6 6.61547 20 6.71547 20.4 6.91547C21.8 7.41547 23.1 8.21547 24.2001 9.11547C24.8001 9.61547 25.3 10.1155 25.8 10.7155C25.9 10.8155 26 11.0155 26.2001 11.1155L26.3 11.2155C26.3 11.1155 26.2001 11.0155 26.2001 11.0155C26 10.7155 25.7001 10.4155 25.5 10.1155C25 9.51547 24.5001 8.91547 23.9001 8.41547C23.3001 7.91547 22.7 7.41547 22.1 7.01547C20.8 6.21547 19.4 5.61547 18 5.21547C17.2001 5.01547 16.4 4.91547 15.7 4.81547C14.9 4.71547 14.1 4.71547 13.3 4.71547C12.9 4.71547 12.6 4.81547 12.2 4.91547C12.1 4.91547 12 4.91547 12 4.91547C11.7 4.81547 12 4.81547 12 4.71547C12.4 4.61547 12.8 4.51547 13.2 4.51547C13.6 4.41547 14 4.41547 14.4 4.31547C14.8 4.31547 15.2 4.31547 15.6 4.31547C15.7 4.31547 15.8 4.31547 15.9 4.31547C15.9 4.31547 16.1 4.31547 16 4.31547C16 4.21547 15.8 4.21547 15.8 4.21547C15.7 4.21547 15.6 4.21547 15.5 4.21547C14.7 4.11547 13.9 4.11547 13.1 4.11547C11.6 4.21547 10.1 4.61547 8.70005 5.31547C7.40005 5.91547 6.20005 6.81547 5.20005 7.81547C4.70005 8.31547 4.20005 8.91547 3.80005 9.61547C3.60005 9.91547 3.40005 10.3155 3.20005 10.6155C3.00005 10.9155 2.90005 11.3155 2.80005 11.7155C2.80005 11.8155 2.80005 11.9155 2.70005 11.9155H2.60005C2.60005 11.8155 2.60005 11.7155 2.60005 11.7155C2.70005 11.3155 2.80005 11.0155 3.00005 10.6155C3.30005 9.91547 3.60005 9.21547 4.00005 8.61547C4.80005 7.41547 5.80005 6.41547 7.00005 5.61547C8.20005 4.81547 9.60005 4.21547 11.1 4.01547C12.7 3.71547 14.3 3.71547 15.8 4.11547C16.2 4.21547 16.6 4.31547 16.9 4.41547H17H17.1C17.2001 4.41547 17 4.31547 17 4.31547C16.7 4.21547 16.5 4.11547 16.2 4.01547C15.8 3.91547 15.4 3.81547 15 3.71547C13.4 3.41547 11.8 3.41547 10.3 3.71547C8.90005 4.01547 7.50005 4.61547 6.20005 5.41547C5.00005 6.21547 4.00005 7.21547 3.10005 8.41547C2.20005 9.61547 1.60005 10.9155 1.20005 12.4155C0.800049 13.9155 0.700048 15.5155 0.900048 17.1155C1.10005 18.6155 1.50005 20.1155 2.10005 21.5155C2.40005 22.1155 2.70005 22.7155 3.00005 23.2155C4.20005 25.3155 5.70005 27.1155 7.40005 28.8155C8.50005 30.0155 9.70005 31.1155 10.9 32.2155C12.1 33.3155 13.3 34.4155 14.5 35.5155C17 37.7155 19.7 40.1155 22.3 42.3155C22.7 42.7155 24.8 44.2155 25.8 45.1155C26.2 45.5155 26.7001 45.8155 27.2001 46.1155C27.6 46.3155 27.7001 46.2155 28 45.8155C28.4 45.4155 28.8001 45.0155 29.2001 44.7155C29.6 44.3155 30.0001 43.9155 30.4001 43.4155C31.9001 41.8155 33.4 40.3155 35.1 38.8155C36.3 37.7155 37.5 36.6155 38.7001 35.4155C39.8 34.3155 41 33.1155 42 31.9155C43 30.7155 44 29.5155 44.9001 28.2155C45.8001 26.9155 46.6 25.6155 47.3 24.2155C48 22.8155 48.5 21.3155 48.8 19.8155C49.4 18.2155 49.4001 16.6155 49 15.1155ZM31 41.0155C30.9 41.5155 30.8 42.0155 30.5 42.5155C30 43.5155 29.2 44.4155 28.3 45.1155C28 45.3155 27.8001 45.6155 27.4001 45.3155C27.4001 45.2155 26.8001 44.9155 26.7001 44.8155C26.4001 44.6155 26.2001 44.4155 25.9001 44.2155C25.5001 43.9155 25 43.5155 24.6 43.2155C23.7 42.5155 22.9 41.8155 22.1 41.1155C21.6 40.7155 21.1 40.3155 20.6 39.8155C20.1 39.4155 19.6 39.1155 19.2001 38.6155C19.2001 38.6155 19.2 38.6155 19.3 38.6155C20.1 38.3155 20.9 37.9155 21.8 37.7155C22.1 37.6155 22.2 37.6155 22.1 37.3155C21.9 36.9155 21.8 36.5155 21.8 36.1155C21.8 35.5155 22.5 36.1155 22.8 36.3155C23.1 36.5155 23.4 36.7155 23.8 36.9155C24 37.0155 24.6 37.5155 24.5 36.9155C24.5 36.8155 24.5 36.7155 24.5 36.6155C24.6 36.0155 25.7 37.2155 25.8 37.4155C25.9 37.6155 26 37.6155 26 37.4155C26.1 37.2155 25.9001 36.8155 25.9001 36.6155C25.8001 36.1155 25.8001 35.5155 25.7001 35.0155C25.7001 34.9155 25.7001 34.9155 25.7001 34.8155C25.9001 34.5155 27 35.9155 27.2001 36.1155C27.3001 36.2155 27.4 36.4155 27.5 36.3155C27.6 36.3155 27.7 36.2155 27.8 36.1155C28 35.9155 28.2001 35.7155 28.4001 35.6155C28.6001 35.4155 28.7 35.5155 28.8 35.7155C28.9 36.1155 28.9001 36.5155 28.9001 36.9155C28.9001 37.1155 28.8 37.4155 29 37.5155C29.2001 37.7155 29.6 37.1155 29.8 37.0155C30.1 36.9155 30.5 36.9155 30.7001 36.6155C30.7001 36.5155 30.8001 36.5155 30.9001 36.4155C31.0001 36.3155 31.1 36.5155 31.1 36.6155C31.2 37.1155 31.1 37.6155 31.1 38.1155C31 39.2155 31.1 40.1155 31 41.0155Z" fill="#FF7D00"/>
<path d="M31.0002 41.0154C30.9002 41.5154 30.8002 42.0154 30.5002 42.5154C30.0002 43.5154 29.2002 44.4154 28.3002 45.1154C28.0002 45.3154 27.8002 45.6154 27.4002 45.3154C27.4002 45.2154 26.8002 44.9154 26.7002 44.8154C26.4002 44.6154 26.2002 44.4154 25.9002 44.2154C25.5002 43.9154 25.0002 43.5154 24.6002 43.2154C23.7002 42.5154 22.9002 41.8154 22.1002 41.1154C21.6002 40.7154 21.1002 40.3154 20.6002 39.8154C20.1002 39.4154 19.6002 39.1154 19.2002 38.6154C19.2002 38.6154 19.2002 38.6154 19.3002 38.6154C20.1002 38.3154 20.9002 37.9154 21.8002 37.7154C22.1002 37.6154 22.2002 37.6154 22.1002 37.3154C21.9002 36.9154 21.8002 36.5154 21.8002 36.1154C21.8002 35.5154 22.5002 36.1154 22.8002 36.3154C23.1002 36.5154 23.4002 36.7154 23.8002 36.9154C24.0002 37.0154 24.6002 37.5154 24.5002 36.9154C24.5002 36.8154 24.5002 36.7154 24.5002 36.6154C24.6002 36.0154 25.7002 37.2154 25.8002 37.4154C25.9002 37.6154 26.0002 37.6154 26.0002 37.4154C26.1002 37.2154 25.9002 36.8154 25.9002 36.6154C25.8002 36.1154 25.8002 35.5154 25.7002 35.0154C25.7002 34.9154 25.7002 34.9154 25.7002 34.8154C25.9002 34.5154 27.0002 35.9154 27.2002 36.1154C27.3002 36.2154 27.4002 36.4154 27.5002 36.3154C27.6002 36.3154 27.7002 36.2154 27.8002 36.1154C28.0002 35.9154 28.2002 35.7154 28.4002 35.6154C28.6002 35.4154 28.7002 35.5154 28.8002 35.7154C28.9002 36.1154 28.9002 36.5154 28.9002 36.9154C28.9002 37.1154 28.8002 37.4154 29.0002 37.5154C29.2002 37.7154 29.6002 37.1154 29.8002 37.0154C30.1002 36.9154 30.5002 36.9154 30.7002 36.6154C30.7002 36.5154 30.8002 36.5154 30.9002 36.4154C31.0002 36.3154 31.1002 36.5154 31.1002 36.6154C31.2002 37.1154 31.1002 37.6154 31.1002 38.1154C31.0002 39.2154 31.1002 40.1154 31.0002 41.0154Z" fill="white"/>
<path d="M26.1 25.6155C25.2 25.0155 24.3 24.5155 23.4 24.0155C21.2 23.0155 18.8 22.3155 16.4 21.8155C15 21.5155 13.6 21.1155 12.4 20.4155C11.2 19.6155 10.2 18.4155 10.2 16.9155C10.2 15.5155 11.4 14.0155 12.8 14.1155C11.4 13.8155 10.1 15.0155 9.90004 16.4155C9.70004 18.5155 11.5 20.1155 13.2 21.0155C15 21.9155 17.1 22.4155 19 23.0155C21.1 23.6155 23.2 24.3155 25 25.6155C28.4 28.1155 30.4 32.2155 31 36.3155C31 36.6155 31.1 36.9155 31.1 37.2155C31.1 37.3155 31.1 37.5155 31.1 37.6155C31.1 37.5155 31.4 37.2155 31.4 37.0155C31.4 36.8155 31.4 36.5155 31.4 36.2155C31.5 34.2155 33.2 33.1155 34.6 32.0155C36.3 30.7155 37.8 28.9155 38.9 27.1155C38.9 27.1155 38.9 27.0155 39 27.0155C40.2 25.0155 41.1 22.5155 40.5 20.2155C42 19.3155 43.9 19.1155 45.6 19.5155C45.5 18.0155 45.3 16.4155 44.2 15.5155C43 14.6155 41.2 15.0155 39.9 15.8155C36.7 17.6155 34.6 21.1155 31.1 22.3155C33.8 22.2155 36 20.1155 38.7 19.9155C36 21.5155 33.2 22.4155 30.2 23.1155C29.1 23.4155 29.3 24.4155 29.2 25.3155C29.2 26.3155 29 27.3155 28.9 28.3155C28.3 27.4155 27.2 26.4155 26.1 25.6155ZM38 13.9155C38 13.8155 38 13.8155 38 13.9155C37.5 13.6155 37 13.5155 36.5 13.4155C36.1 13.4155 35.6 13.4155 35.2 13.6155C35 13.7155 34.9 13.8155 34.7 13.9155C34.5 14.0155 34.4 14.2155 34.3 14.4155C34.2 14.6155 34.1 14.8155 34 15.0155C33.9 15.2155 33.8 15.4155 33.7 15.6155C33.6 15.8155 33.4 16.1155 33.3 16.3155C33.3 16.3155 33.2 16.4155 33.3 16.5155C33.5 16.7155 37.8 13.9155 37.9 13.9155C38 13.9155 38 13.9155 38 13.9155ZM27.3 10.4155C27.1 10.3155 27 10.3155 27 10.6155C27 10.8155 27.4 13.8155 27.5 13.8155C27.7 13.6155 28 13.2155 28.1 12.7155C28.2 12.4155 28.5 11.7155 28.5 11.4155C28.5 11.3155 28.5 11.3155 28.4 11.2155C28.4 11.2155 28.3 11.1155 28.2 11.0155L27.3 10.4155ZM36.7 14.5155C36.6 14.4155 36.7 14.5155 36.7 14.5155C36.4 14.4155 36.2 14.3155 35.9 14.2155C35.7 14.2155 35.4 14.2155 35.2 14.3155C35.1 14.3155 35 14.4155 34.9 14.5155C34.8 14.6155 34.7 14.7155 34.7 14.8155C34.6 14.9155 34.6 15.0155 34.5 15.1155C34.4 15.2155 34.4 15.3155 34.3 15.4155C34.2 15.5155 34.1 15.7155 34.1 15.8155V15.9155C34.1 16.1155 36.6 14.5155 36.7 14.5155C36.6 14.5155 36.6 14.5155 36.7 14.5155Z" fill="white"/>
<path d="M27.5 11.1154C27.4 11.0154 27.3 11.1154 27.3 11.2154C27.3 11.3154 27.5 13.0154 27.6 13.0154C27.7 12.9154 27.9 12.7154 28 12.4154C28.1 12.2154 28.2 11.8154 28.2 11.7154V11.6154C28.2 11.6154 28.2 11.5154 28.1 11.5154L27.5 11.1154ZM36.8 14.2154C36.5 14.1154 36.3 14.0154 36 14.0154C35.8 14.0154 35.5 14.0154 35.3 14.1154C35.2 14.1154 35.1 14.2154 35 14.3154C34.9 14.4154 34.9 14.5154 34.8 14.6154C34.7 14.7154 34.7 14.8154 34.6 14.9154C34.5 15.0154 34.5001 15.1154 34.4001 15.2154C34.3001 15.3154 34.3 15.4154 34.2 15.6154V15.7154C34.4 15.7154 36.7 14.3154 36.8 14.2154Z" fill="#151B19"/>
<path d="M27.1002 7.91553C27.1002 8.01553 27.2002 8.11553 27.2002 8.21553C27.3002 8.31553 27.4002 8.31553 27.5002 8.31553H27.6002C27.7002 8.21553 27.8002 8.01553 27.9002 7.91553C28.1002 7.61553 28.3002 7.31553 28.2002 7.01553C28.1002 6.81553 28.8002 5.91553 28.7002 5.61553C28.6002 5.21553 28.4002 5.11553 28.5002 5.01553C28.6002 4.91553 28.8002 5.01553 29.0002 4.81553C29.1002 4.71553 29.2002 4.61553 29.3002 4.51553C29.3002 4.41553 29.3002 4.21553 29.3002 4.11553C29.2002 3.91553 29.1002 3.81553 29.0002 3.71553C28.9002 3.61553 28.7002 3.51553 28.6002 3.41553C28.3002 3.21553 28.1002 3.01553 27.8002 2.81553C27.6002 2.61553 27.3002 2.51553 27.0002 2.41553C26.9002 2.41553 26.7002 2.41553 26.6002 2.51553C26.5002 2.61553 26.4002 2.71553 26.4002 2.81553C26.3002 3.11553 26.3002 3.41553 26.4002 3.71553C26.4002 4.11553 26.5002 4.41553 26.6002 4.81553C26.7002 5.51553 26.8002 6.21553 26.9002 6.91553C26.9002 7.31553 27.0002 7.61553 27.1002 7.91553Z" fill="white"/>
<path d="M29.4001 21.3155C29.3001 21.2155 26.8 19.1155 26.6 19.0155C26.5 19.0155 26.4001 18.9155 26.4001 18.9155H26.3H26.2C26.2 18.9155 26.2 18.9155 26.2 19.0155C26.2 19.0155 26.2 19.1155 26.1 19.1155C26.1 19.2155 26 19.3155 26 19.4155C25.9 19.6155 25.9 19.8155 25.8 19.9155C25.8 20.3155 25.8 20.7155 26 21.0155C26.2 21.4155 26.5001 21.7155 26.9001 21.9155C27.1001 22.0155 27.3 22.1155 27.5 22.1155C27.7 22.2155 28.9 22.3155 29 22.2155C29.1 22.2155 29.2 22.2155 29.3 22.2155C29.4 22.2155 29.5 22.2155 29.6 22.2155C29.7 22.2155 29.8001 22.2155 29.9001 22.1155C30.0001 22.1155 30 22.0155 30 21.9155C30 21.8155 30.0001 21.7155 29.9001 21.6155C29.7001 21.6155 29.5001 21.4155 29.4001 21.3155Z" fill="#1B201C"/>
</svg>
