<svg width="72" height="43" viewBox="0 0 72 43" fill="none" xmlns="http://www.w3.org/2000/svg">
<path d="M62.2001 4.41553H68.1C69.5 4.41553 70.7 5.51553 70.7 7.01553V38.9155C70.7 40.3155 69.6 41.5155 68.1 41.5155H45.8" stroke="black" stroke-width="2.0417" stroke-miterlimit="10" stroke-linecap="round" stroke-linejoin="round"/>
<path d="M29.4 41.5155H4.6C3.2 41.5155 2 40.3155 2 38.9155V7.01553C2 5.61553 3.1 4.41553 4.6 4.41553H13.6" stroke="black" stroke-width="2.0417" stroke-miterlimit="10" stroke-linecap="round" stroke-linejoin="round"/>
<path d="M12.7 4.41553H4.80005L5.50005 2.01553C5.80005 1.41553 6.40005 0.915527 7.10005 0.915527H10.4C11.1 0.915527 11.7 1.41553 12 2.11553L12.7 4.41553Z" fill="black"/>
<path d="M65.8999 10.8156C65.8999 11.4156 65.3999 11.8156 64.8999 11.8156H62.3999C61.7999 11.8156 61.3999 11.3156 61.3999 10.8156V9.71558C61.3999 9.11558 61.8999 8.71558 62.3999 8.71558H64.8999C65.4999 8.71558 65.8999 9.21558 65.8999 9.71558V10.8156Z" fill="black"/>
</svg>
