<svg width="111" height="98" viewBox="0 0 111 98" fill="none" xmlns="http://www.w3.org/2000/svg">
<path d="M95.0618 12.4568C95.1186 12.4568 95.1754 12.4568 95.2322 12.4568C95.3458 12.4568 95.4026 12.5137 95.5161 12.5137C95.5729 12.5137 95.6297 12.5137 95.6865 12.5706C95.8001 12.5706 95.8569 12.6274 95.9704 12.6843C96.0272 12.6843 96.084 12.7412 96.1408 12.7412C96.2544 12.7981 96.3679 12.8549 96.4815 12.9118C96.4815 12.9118 96.5383 12.9118 96.5383 12.9687C96.6519 13.0256 96.8222 13.0824 96.9358 13.1962C96.9926 13.1962 96.9926 13.2531 97.0494 13.2531C97.163 13.31 97.2197 13.3668 97.3333 13.4237C97.3901 13.4806 97.4469 13.4806 97.4469 13.5375C97.5037 13.5943 97.6173 13.6512 97.674 13.7081C97.7308 13.765 97.7876 13.765 97.7876 13.8218C97.8444 13.8787 97.9012 13.9356 97.958 13.9925C98.0148 14.0494 98.0148 14.1062 98.0716 14.1062C98.1283 14.1631 98.1851 14.22 98.2419 14.3337C98.2987 14.3906 98.2987 14.4475 98.3555 14.5044C98.4123 14.5613 98.4691 14.675 98.5258 14.7319C98.5826 14.7888 98.5826 14.8456 98.6394 14.9025C98.6962 14.9594 98.753 15.0731 98.753 15.13C98.8098 15.1869 98.8098 15.2438 98.8098 15.3007C98.8666 15.4144 98.8666 15.4713 98.9234 15.585C98.9234 15.6419 98.9801 15.6988 98.9801 15.7557C99.0369 15.8694 99.0369 15.9832 99.0937 16.0401C99.0937 16.0969 99.1505 16.1538 99.1505 16.2107C99.2073 16.3813 99.2073 16.552 99.2641 16.7226L108.293 78.7756C108.691 81.5625 106.874 84.0083 104.091 84.4064L29.0752 95.2131C28.848 95.2699 28.6209 95.2699 28.3938 95.2699H28.337C28.2802 95.2699 28.2234 95.2699 28.2234 95.2699C28.1666 95.2699 28.1098 95.2699 27.9962 95.2699C27.8827 95.2699 27.8259 95.2699 27.7123 95.2699C27.6555 95.2699 27.5987 95.2699 27.5419 95.2699C27.4284 95.2699 27.3716 95.2131 27.258 95.2131C27.2012 95.2131 27.1444 95.2131 27.0876 95.1562C26.9741 95.1562 26.9173 95.0993 26.8037 95.0424C26.7469 95.0424 26.6901 94.9855 26.6334 94.9855C26.5198 94.9287 26.4062 94.8718 26.2926 94.8149C26.2926 94.8149 26.2358 94.8149 26.2358 94.758C26.1223 94.7012 25.9519 94.6443 25.8383 94.5305C25.7815 94.5305 25.7815 94.4736 25.7248 94.4736C25.6112 94.4168 25.5544 94.3599 25.4408 94.303C25.384 94.2461 25.3272 94.2461 25.3272 94.1893C25.2705 94.1324 25.1569 94.0755 25.1001 94.0186C25.0433 93.9618 24.9865 93.9618 24.9865 93.9049C24.9297 93.848 24.873 93.7911 24.8162 93.7342C24.7594 93.6774 24.7594 93.6205 24.7026 93.6205C24.6458 93.5636 24.589 93.5067 24.5322 93.393C24.4754 93.3361 24.4754 93.2792 24.4187 93.2224C24.3619 93.1655 24.3051 93.0517 24.2483 92.9949C24.1915 92.938 24.1915 92.8811 24.1347 92.8242C24.0779 92.7673 24.0211 92.6536 24.0211 92.5967C23.9644 92.5398 23.9644 92.483 23.9644 92.4261C23.9076 92.3123 23.9076 92.2554 23.8508 92.1417C23.8508 92.0848 23.794 92.0279 23.794 91.9711C23.7372 91.8573 23.7372 91.7435 23.6804 91.6867C23.6804 91.6298 23.6236 91.5729 23.6236 91.516C23.5668 91.3454 23.5668 91.1748 23.5101 91.0041L22.1472 82.0744H21.5793H19.4214L20.7275 91.0041C21.2954 95.0993 24.7026 98 28.7345 98C29.132 98 29.5295 97.9432 29.9838 97.8863L104.034 87.0796C108.52 86.3971 111.587 82.3588 110.905 77.8655L101.99 16.6657C101.422 12.9118 98.5826 10.2386 95.0618 9.78357V10.068V12.4568Z" fill="#666666"/>
<path d="M27.4851 95.213C27.3715 95.213 27.3147 95.1561 27.2012 95.1561C27.3147 95.213 27.3715 95.213 27.4851 95.213Z" fill="white"/>
<path d="M27.0305 95.1561C26.9169 95.1561 26.8602 95.0992 26.7466 95.0424C26.8602 95.0992 26.9169 95.0992 27.0305 95.1561Z" fill="white"/>
<path d="M26.5763 94.9856C26.4627 94.9287 26.3492 94.8718 26.2356 94.8149C26.3492 94.9287 26.4627 94.9287 26.5763 94.9856Z" fill="white"/>
<path d="M26.179 94.8149C26.0654 94.758 25.8951 94.7012 25.7815 94.5874C25.8951 94.7012 26.0654 94.758 26.179 94.8149Z" fill="white"/>
<path d="M25.6677 94.5305C25.5542 94.4736 25.4974 94.4167 25.3838 94.3599C25.4974 94.4167 25.5542 94.4736 25.6677 94.5305Z" fill="white"/>
<path d="M99.1504 16.2107C99.2072 16.3813 99.2072 16.552 99.264 16.7226C99.264 16.4951 99.2072 16.3244 99.1504 16.2107Z" fill="white"/>
<path d="M99.0366 15.6987C99.0934 15.8125 99.0934 15.9262 99.1502 15.9831C99.0934 15.9262 99.0934 15.8125 99.0366 15.6987Z" fill="white"/>
<path d="M95.6863 12.5706C95.7999 12.5706 95.8566 12.6274 95.9702 12.6843C95.9134 12.6274 95.7999 12.6274 95.6863 12.5706Z" fill="white"/>
<path d="M24.0777 92.8811C24.0209 92.8242 23.9641 92.7104 23.9641 92.6536C24.0209 92.7104 24.0209 92.7673 24.0777 92.8811Z" fill="white"/>
<path d="M23.6802 92.0279C23.6234 91.9142 23.6234 91.8004 23.5667 91.7435C23.6234 91.8004 23.6802 91.9142 23.6802 92.0279Z" fill="white"/>
<path d="M98.8662 15.3007C98.923 15.4144 98.923 15.4713 98.9798 15.585C98.923 15.4713 98.923 15.3575 98.8662 15.3007Z" fill="white"/>
<path d="M25.2704 94.2462C25.2136 94.1893 25.1 94.1324 25.0432 94.0756C25.1 94.1324 25.2136 94.1893 25.2704 94.2462Z" fill="white"/>
<path d="M23.5667 91.5159C23.5099 91.3453 23.5099 91.1747 23.4531 91.004C23.5099 91.2315 23.5099 91.4022 23.5667 91.5159Z" fill="white"/>
<path d="M23.8506 92.4261C23.7938 92.3124 23.7938 92.2555 23.7371 92.1417C23.7938 92.2555 23.8506 92.3692 23.8506 92.4261Z" fill="white"/>
<path d="M24.9296 93.9618C24.8729 93.9049 24.8161 93.848 24.7593 93.7911C24.8161 93.848 24.8729 93.9049 24.9296 93.9618Z" fill="white"/>
<path d="M24.3049 93.2223C24.2481 93.1654 24.1913 93.0516 24.1345 92.9948C24.2481 93.1085 24.2481 93.1654 24.3049 93.2223Z" fill="white"/>
<path d="M24.5888 93.6205C24.532 93.5636 24.4752 93.5067 24.4185 93.3929C24.4752 93.4498 24.532 93.5636 24.5888 93.6205Z" fill="white"/>
<path d="M97.0493 13.1962C97.1629 13.253 97.2197 13.3099 97.3332 13.3668C97.2197 13.3099 97.1629 13.253 97.0493 13.1962Z" fill="white"/>
<path d="M97.4465 13.4805C97.5033 13.5373 97.6169 13.5942 97.6737 13.6511C97.6169 13.5942 97.5601 13.5373 97.4465 13.4805Z" fill="white"/>
<path d="M97.7874 13.765C97.8441 13.8219 97.9009 13.8788 97.9577 13.9356C97.9577 13.8788 97.9009 13.8219 97.7874 13.765Z" fill="white"/>
<path d="M98.6392 14.8456C98.6959 14.9025 98.7527 15.0162 98.7527 15.0731C98.7527 15.0162 98.6959 14.9593 98.6392 14.8456Z" fill="white"/>
<path d="M95.2319 12.5137C95.3455 12.5137 95.4023 12.5705 95.5159 12.5705C95.4591 12.5137 95.3455 12.5137 95.2319 12.5137Z" fill="white"/>
<path d="M96.1406 12.7411C96.2542 12.798 96.3678 12.8548 96.4813 12.9117C96.3678 12.798 96.2542 12.798 96.1406 12.7411Z" fill="white"/>
<path d="M96.5381 12.9117C96.6517 12.9686 96.822 13.0255 96.9356 13.1393C96.822 13.0255 96.7084 12.9686 96.5381 12.9117Z" fill="white"/>
<path d="M98.1282 14.1061C98.185 14.163 98.2418 14.2198 98.2985 14.3336C98.2418 14.2198 98.185 14.163 98.1282 14.1061Z" fill="white"/>
<path d="M98.4121 14.4474C98.4689 14.5043 98.5257 14.618 98.5825 14.6749C98.5257 14.618 98.4689 14.5611 98.4121 14.4474Z" fill="white"/>
<path d="M23.5667 91.516C23.5667 91.5729 23.6234 91.6298 23.6234 91.6867C23.6802 91.8004 23.6802 91.9142 23.737 91.971C23.737 92.0279 23.7938 92.0848 23.7938 92.1417C23.8506 92.2554 23.8506 92.3123 23.9074 92.4261C23.9074 92.4829 23.9642 92.5398 23.9642 92.5967C24.0209 92.6536 24.0209 92.7673 24.0777 92.8242C24.1345 92.8811 24.1345 92.938 24.1913 92.9948C24.2481 93.0517 24.3049 93.1655 24.3617 93.2223C24.4185 93.2792 24.4185 93.3361 24.4752 93.393C24.532 93.4499 24.5888 93.5067 24.6456 93.6205C24.7024 93.6774 24.7024 93.7342 24.7592 93.7342C24.816 93.7911 24.8728 93.848 24.9295 93.9049C24.9863 93.9617 25.0431 93.9617 25.0431 94.0186C25.0999 94.0755 25.2135 94.1324 25.2703 94.1892C25.3271 94.2461 25.3838 94.2461 25.3838 94.303C25.4974 94.3599 25.5542 94.4168 25.6678 94.4736C25.7246 94.4736 25.7246 94.5305 25.7813 94.5305C25.8949 94.5874 26.0653 94.7011 26.1789 94.758C26.1789 94.758 26.2356 94.758 26.2356 94.8149C26.3492 94.8718 26.4628 94.9287 26.5764 94.9855C26.6332 94.9855 26.6899 95.0424 26.7467 95.0424C26.8603 95.0993 26.9171 95.0993 27.0307 95.1562C27.0875 95.1562 27.1442 95.1562 27.201 95.213C27.3146 95.213 27.3714 95.2699 27.485 95.2699C27.5417 95.2699 27.5985 95.2699 27.6553 95.2699C27.7689 95.2699 27.8257 95.2699 27.9393 95.2699C27.996 95.2699 28.0528 95.2699 28.1664 95.2699C28.2232 95.2699 28.3368 95.2699 28.3936 95.2699C28.6207 95.2699 28.8479 95.2699 29.075 95.213L104.091 84.2926C106.873 83.8945 108.691 81.4488 108.293 78.6618L99.2639 16.6657C99.2639 16.4951 99.2071 16.3244 99.1503 16.1538C99.1503 16.0969 99.0935 16.04 99.0935 15.9832C99.0367 15.8694 99.0367 15.7557 98.9799 15.6988C98.9799 15.6419 98.9232 15.585 98.9232 15.5281C98.8664 15.4144 98.8664 15.3575 98.8096 15.2438C98.8096 15.1869 98.7528 15.13 98.7528 15.0731C98.696 15.0163 98.696 14.9025 98.6392 14.8456C98.5824 14.7887 98.5824 14.7319 98.5257 14.675C98.4689 14.6181 98.4121 14.5044 98.3553 14.4475C98.2985 14.3906 98.2985 14.3337 98.2417 14.2768C98.1849 14.22 98.1281 14.1631 98.0714 14.0493C98.0146 13.9925 98.0146 13.9356 97.9578 13.9356C97.901 13.8787 97.8442 13.8218 97.7874 13.765C97.7306 13.7081 97.6738 13.7081 97.6738 13.6512C97.6171 13.5943 97.5035 13.5374 97.4467 13.4806C97.3899 13.4237 97.3899 13.4237 97.3331 13.3668C97.2195 13.3099 97.1628 13.2531 97.0492 13.1962C96.9924 13.1962 96.9924 13.1393 96.9356 13.1393C96.822 13.0824 96.6517 12.9687 96.5381 12.9118C96.5381 12.9118 96.4813 12.9118 96.4813 12.8549C96.3677 12.798 96.2542 12.7412 96.1406 12.6843C96.0838 12.6843 96.027 12.6274 95.9702 12.6274C95.8567 12.5705 95.7999 12.5705 95.6863 12.5137C95.6295 12.5137 95.5727 12.5137 95.5159 12.4568C95.4024 12.4568 95.3456 12.3999 95.232 12.3999C95.1752 12.3999 95.1184 12.3999 95.0616 12.3999V12.798V69.9027C95.0616 76.728 89.7236 82.0175 82.966 82.0175H22.147L23.4531 91.0041C23.5099 91.2316 23.5099 91.4023 23.5667 91.516Z" fill="white"/>
<path d="M18.8533 78.093H21.5791H82.966C87.509 78.093 91.0865 74.5097 91.0865 69.9596V12.8549V10.0679V8.1341C91.0865 3.58393 87.509 0.00066781 82.966 0.00066781H8.12056C3.57759 -0.0562093 0 3.52705 0 8.07722V69.9596C0 74.5097 3.57759 78.093 8.12056 78.093H18.8533ZM7.60947 75.306C4.82691 75.306 2.66899 73.1447 2.66899 70.3577V7.67908C2.66899 4.8921 4.82691 2.73077 7.60947 2.73077H83.4771C86.2596 2.73077 88.4175 4.8921 88.4175 7.67908V70.3577C88.4175 73.1447 86.2596 75.306 83.4771 75.306H7.60947Z" fill="#666666"/>
<path d="M83.477 75.306C86.2596 75.306 88.4175 73.1446 88.4175 70.3576V7.67903C88.4175 4.89205 86.2596 2.73071 83.477 2.73071H7.60942C4.82686 2.73071 2.66895 4.89205 2.66895 7.67903V70.3576C2.66895 73.1446 4.82686 75.306 7.60942 75.306H83.477Z" fill="white"/>
<path fill-rule="evenodd" clip-rule="evenodd" d="M34.5833 37.9948C35.1511 38.4498 35.9461 38.6204 36.6276 38.3929C35.9461 38.5066 35.2647 38.4498 34.5833 37.9948Z" fill="#1A1D1E"/>
<path fill-rule="evenodd" clip-rule="evenodd" d="M52.6417 32.0225C52.0171 31.5675 52.2442 29.6337 52.8121 28.3255C53.38 27.0173 54.2886 26.3348 55.6515 26.4485C57.0143 26.6192 58.7747 27.6429 58.9451 28.4392C59.1155 29.2355 57.639 29.8612 56.1625 30.6574C54.6861 31.4537 53.2664 32.4775 52.6417 32.0225Z" fill="#1B1918"/>
<path fill-rule="evenodd" clip-rule="evenodd" d="M45.2593 28.155C45.4297 28.0412 45.0322 26.9606 44.7483 26.3918C44.4643 25.7093 44.2372 25.2542 44.1236 25.0267C43.9532 24.6855 43.7829 24.2305 43.4989 21.1591C43.3286 19.4528 43.2718 18.3152 43.7829 17.8602C44.294 17.4052 44.8051 18.2015 45.4865 18.429C46.1679 18.6565 46.1679 18.8271 46.7926 19.2253C50.7677 21.5572 57.1846 22.2398 61.3301 20.2491C62.0683 19.9078 63.6016 18.7134 63.7152 18.5427C63.9991 17.7465 65.1348 17.6896 65.0213 17.974C64.8509 18.6565 65.7595 20.1353 65.6459 20.8178C65.3052 23.036 65.0781 25.5386 64.1695 27.5293L64.283 27.7C64.3398 27.7568 66.6113 31.0557 65.5891 35.7765C64.9645 38.5066 63.6016 41.0092 62.0683 43.3981C59.1154 47.9482 55.0835 51.8159 51.1084 55.5129C49.1209 57.3898 45.9408 60.8025 45.9408 60.8025C45.9408 60.8025 39.4671 55.456 37.5931 53.8635C33.1637 50.0527 28.9047 46.0144 25.2135 41.578C23.4531 39.4735 21.8631 37.5966 21.352 34.8096C20.8977 32.307 21.2384 29.6907 22.2606 27.4156C22.6581 26.5055 23.1124 25.823 23.3395 25.5955C23.4531 25.4249 24.7592 23.6048 26.69 22.3535C28.9047 20.9885 31.9144 20.1353 34.7537 20.8178C39.4103 21.8416 43.6693 26.3918 44.3508 27.4156C44.5211 27.5862 45.089 28.2687 45.2593 28.155Z" fill="white"/>
<path fill-rule="evenodd" clip-rule="evenodd" d="M26.8034 28.7806C26.8034 28.7806 26.8034 28.8375 26.8034 28.7806C26.8602 28.7806 26.917 28.6668 26.9738 28.6668C27.0306 28.61 27.0874 28.4962 27.1442 28.4393C27.2577 28.3256 27.3713 28.1549 27.4281 28.0412C27.6552 27.8137 27.9392 27.5293 28.1663 27.3587C29.2453 26.5055 30.4946 25.9367 31.8575 25.6523C33.2772 25.368 34.8104 25.4248 36.2301 25.7092C37.593 25.9936 38.9559 26.5055 40.2052 27.188C41.3409 27.8137 42.4199 28.6668 43.1581 29.7475C43.5556 30.3163 43.8964 30.885 44.0667 31.5676C44.2939 32.307 44.3507 33.0464 44.2939 33.7858C44.2371 34.5252 44.0099 35.2646 43.9532 36.0609C43.8964 36.6865 44.4642 36.9709 44.9185 37.4259C45.1457 37.6534 45.0889 37.8241 45.4296 37.9378C45.7703 38.0516 45.9407 37.9947 46.2814 38.0516C46.395 38.0516 46.6789 38.2222 46.7925 38.1084C46.9061 38.0516 46.7925 38.2791 46.7357 38.1653C46.6789 38.0516 46.6221 37.9378 46.5086 37.824C46.395 37.6534 46.2814 37.5397 46.1679 37.369C45.9407 37.0846 45.9407 36.459 45.6568 36.2315C45.3728 36.004 45.1457 35.8333 44.8617 35.6058C44.6346 35.3783 44.2371 35.4921 44.1803 35.2077C44.1235 34.8664 44.2371 34.4683 44.2939 34.127C44.4642 33.3876 44.6346 32.6482 44.7482 31.9088C44.8617 31.1694 44.8617 30.3731 44.8617 29.6337C44.805 28.0981 44.5778 26.6193 44.1803 25.1404C43.8396 23.7185 43.3285 22.2966 43.1581 20.7609C43.1581 20.0215 43.1581 19.2821 43.3285 18.5427C43.3853 18.3721 43.3853 18.1446 43.4421 17.9739C43.4989 17.8033 43.5556 17.5758 43.726 17.462C43.8964 17.3483 44.1803 17.4052 44.3507 17.5189C44.521 17.6327 44.6346 17.7464 44.805 17.8033C44.9753 17.917 45.0889 18.0308 45.2593 18.0877C45.8839 18.4858 46.5086 18.8271 47.19 19.1683C48.5529 19.794 49.9726 20.1353 51.3923 20.4196C52.1305 20.5334 52.9255 20.6471 53.6637 20.7609C54.4588 20.8747 55.197 20.9315 55.992 20.9884C56.7303 21.0453 57.5253 21.0453 58.2635 20.9884C59.0017 20.9315 59.74 20.7609 60.4214 20.5334C61.1029 20.3059 61.7275 19.9646 62.2954 19.5665C62.5793 19.339 62.8633 19.1683 63.0904 18.884C63.3176 18.6564 63.5447 18.3721 63.8286 18.0877C64.0558 17.8602 64.2829 17.5758 64.6237 17.5189C64.9644 17.462 65.1915 17.6895 65.3051 17.9739C65.4187 18.2583 65.4755 18.5996 65.5323 18.9408C65.589 19.339 65.589 19.6802 65.6458 20.0784C65.7594 21.6141 65.6458 23.1497 65.3619 24.6854C65.2483 25.4248 65.078 26.1642 64.8508 26.8468C64.7372 27.1311 64.6805 27.4724 64.4533 27.7568C64.3965 27.8705 64.2829 27.9843 64.1126 28.0412C63.999 28.0981 63.8854 28.1549 63.7719 28.0981C63.6583 27.9843 63.7151 27.8137 63.7719 27.6999C63.8286 27.5293 63.8854 27.3587 63.9422 27.188C64.0558 26.8468 64.1126 26.4486 64.1694 26.1074C64.3397 25.368 64.4533 24.6286 64.5669 23.8323C64.6237 23.4341 64.6805 23.0929 64.7372 22.6947C64.794 22.3535 64.794 22.0122 64.7372 21.6709C64.6805 21.5572 64.6237 21.3866 64.5101 21.3297C64.3965 21.2728 64.2262 21.2728 64.1126 21.2728C63.8286 21.3297 63.4879 21.5003 63.2608 21.6709C62.9768 21.8416 62.6361 22.0691 62.3522 22.2966C62.1818 22.4103 62.0682 22.5241 61.9547 22.6379C61.8411 22.7516 61.7275 22.8654 61.6707 22.9791C61.6139 23.0929 61.5572 23.2635 61.6139 23.3773C61.6707 23.491 61.7843 23.6048 61.8979 23.7185C62.0115 23.8323 62.125 23.946 62.1818 24.1167C62.2386 24.2873 62.2386 24.4579 62.2386 24.6286C62.2386 24.9129 62.2386 25.3111 62.4658 25.5386C62.5225 25.5955 62.5793 25.6523 62.6929 25.6523C62.7497 25.6523 62.8065 25.7092 62.8633 25.7092C62.9768 25.823 62.8633 25.9936 62.8633 26.1074C62.8065 26.4486 62.9768 26.8468 63.1472 27.1311C63.3176 27.4155 63.5447 27.6999 63.8286 27.9274C64.0558 28.2118 64.3397 28.4393 64.5669 28.7237C64.794 29.0081 64.9644 29.2356 65.1915 29.5769C65.589 30.2025 65.8162 30.8282 66.0433 31.5107C66.4409 32.9326 66.3841 34.4683 66.1001 35.9471C65.8162 37.369 65.3051 38.7341 64.6805 40.0423C64.0558 41.3504 63.2608 42.6017 62.409 43.7961C61.5572 44.9906 60.6486 46.185 59.6832 47.2657C58.7178 48.4032 57.6388 49.4839 56.5599 50.5645C55.4809 51.6452 54.3452 52.7259 53.2094 53.7496C52.0737 54.7734 50.938 55.8541 49.8022 56.8779C49.2344 57.3898 48.6665 57.9586 48.1554 58.4705C47.6443 58.9823 47.1332 59.5511 46.5654 60.063C46.4518 60.1768 46.3382 60.2905 46.2246 60.4043C46.2246 60.4612 46.1111 60.518 46.1111 60.5749C46.1678 60.6318 46.2246 60.5749 46.2814 60.518C46.5654 60.2905 46.7925 60.0061 47.0197 59.7786C47.5307 59.2667 47.985 58.698 48.3825 58.1292C49.1208 56.9348 49.4615 55.5128 49.4047 54.1478C49.4047 53.8065 49.3479 53.4084 49.2911 53.0671C49.2344 52.7259 49.1776 52.3277 49.064 51.9865C49.064 51.8727 49.0072 51.7021 48.8936 51.8158C48.8368 51.8727 48.7801 51.9296 48.7233 51.9865C48.6665 52.0433 48.6097 52.1002 48.5529 52.1571C48.269 52.3277 47.8715 52.3277 47.6443 52.5552C47.5307 52.669 47.474 52.7827 47.3604 52.8965C47.2468 53.0102 47.19 52.9534 47.1332 52.8396C47.0764 52.7259 47.1332 52.6121 47.0764 52.4984C47.0764 52.3277 47.0764 52.1571 47.0197 51.9296C47.0197 51.759 46.9629 51.5883 46.9629 51.3608C46.9629 51.2471 47.0197 50.9627 46.8493 50.9627C46.7925 50.9627 46.6789 51.0196 46.6789 51.0764C46.6221 51.1333 46.5654 51.1902 46.5086 51.2471C46.395 51.3608 46.2246 51.4746 46.1111 51.5883C45.9975 51.6452 45.9407 51.7589 45.8271 51.7589C45.6568 51.7589 45.6 51.6452 45.5432 51.4746C45.3728 51.1902 45.0889 50.9058 44.8617 50.6783C44.7482 50.5645 44.6346 50.4508 44.521 50.3939C44.4642 50.337 44.3507 50.2233 44.2371 50.2233C44.1235 50.2233 44.1235 50.4508 44.1803 50.5645C44.1803 50.7352 44.2371 50.9058 44.2371 51.1333C44.2939 51.5314 44.2939 51.8727 44.3507 52.2708C44.3507 52.4415 44.4074 52.6121 44.4074 52.7827C44.4074 52.8396 44.4074 52.8965 44.3507 52.8965C44.2939 52.9534 44.2371 52.8396 44.2371 52.7827C44.1803 52.7259 44.1803 52.6121 44.1235 52.5552C44.0667 52.4984 44.0099 52.3846 43.9532 52.3277C43.8396 52.214 43.726 52.1002 43.6124 51.9865C43.4989 51.8727 43.3285 51.7589 43.2149 51.7589C43.0446 51.7589 42.9878 51.9296 43.0446 52.0433C43.0446 52.1571 43.1013 52.2708 43.1013 52.3846C43.0446 52.5552 42.8742 52.4415 42.7606 52.3846C42.5903 52.2708 42.4767 52.1571 42.3063 52.1002C42.136 51.9865 41.9656 51.9296 41.7952 51.8158C41.5113 51.6452 41.1706 51.4746 40.8866 51.2471C40.7731 51.1902 40.6595 51.0764 40.5459 51.2471C40.4891 51.3608 40.4891 51.5314 40.4891 51.7021C40.4891 51.8727 40.5459 52.0433 40.6027 52.214C40.6595 52.3846 40.7163 52.5552 40.8299 52.669C40.8866 52.7259 40.8866 52.7827 40.8866 52.8396C40.8866 52.8965 40.7731 52.8965 40.7163 52.8965C40.6595 52.8965 40.5459 52.8965 40.4891 52.8965C40.3756 52.8965 40.3188 52.9534 40.2052 52.9534C39.8645 53.0671 39.5238 53.2378 39.183 53.3515C39.0127 53.4084 38.8423 53.5221 38.6719 53.579C38.5584 53.6359 38.388 53.6928 38.2177 53.7496C38.1041 53.8065 37.9337 53.8634 37.9905 54.034C38.0473 54.1478 38.1609 54.2047 38.2744 54.3184C38.5584 54.5459 38.8423 54.7734 39.1262 55.0009C39.6941 55.5128 40.262 56.0247 40.8299 56.5366C41.9656 57.5604 43.1581 58.5273 44.3507 59.4374C44.6346 59.6649 44.9185 59.8924 45.2025 60.1199C45.3728 60.2905 45.6 60.4043 45.8271 60.518C45.8839 60.518 45.9975 60.5749 45.9407 60.4612C45.9407 60.4043 45.8839 60.3474 45.8271 60.3474C45.7703 60.2905 45.7136 60.2336 45.6 60.1768C45.2593 59.9493 44.9753 59.7786 44.6346 59.5511C44.0099 59.0961 43.4421 58.6411 42.8174 58.1292C42.1928 57.6742 41.6249 57.1623 41.0002 56.7073C39.8077 55.7404 38.6152 54.7734 37.4226 53.7496C36.2301 52.7827 35.0944 51.759 33.9586 50.7352C32.8229 49.7114 31.6871 48.6876 30.5514 47.6638C29.4156 46.64 28.3367 45.5593 27.2577 44.4787C25.7245 42.8861 24.248 41.1798 23.1691 39.246C22.8851 38.7341 22.6012 38.1653 22.3173 37.5965C21.7494 36.2884 21.2951 34.8664 21.1247 33.4445C20.9544 31.9657 21.0112 30.43 21.4087 29.0081C21.7494 27.6999 22.374 26.3917 23.1691 25.3111C23.9641 24.2304 24.9295 23.2635 26.0652 22.5241C27.201 21.7847 28.5071 21.2159 29.8699 20.9315C31.3464 20.6472 32.8797 20.6472 34.2993 20.9315C34.6969 20.9884 35.0376 21.1022 35.4351 21.2159C35.719 21.2728 35.9462 21.3297 36.2301 21.4434C36.2301 21.4434 36.4005 21.5003 36.3437 21.5572C36.2869 21.5572 36.2301 21.5572 36.2301 21.5572C36.1733 21.5572 36.1733 21.5572 36.1165 21.5003C35.7758 21.3866 35.4351 21.2728 35.0376 21.2159C33.5611 20.8747 32.0279 20.8747 30.6082 21.159C29.2453 21.3866 27.9392 21.9553 26.8034 22.6947C25.7245 23.4341 24.7591 24.401 24.0209 25.4817C23.6234 26.1074 23.3394 26.733 23.0555 27.4155C22.9419 27.7568 22.7716 28.0981 22.7148 28.4393C22.7148 28.4962 22.658 28.61 22.7148 28.6668C22.7148 28.7237 22.7716 28.7237 22.7716 28.6668C22.8283 28.61 22.8283 28.5531 22.8851 28.4962C22.9987 28.1549 23.1123 27.8137 23.2826 27.4724C23.453 27.1311 23.6234 26.8468 23.7937 26.5624C24.1912 25.9936 24.6455 25.4248 25.1566 24.9129C26.122 23.946 27.2577 23.1497 28.4503 22.5241C29.7564 21.8984 31.1761 21.5003 32.5957 21.3866C33.334 21.3297 34.0722 21.3866 34.8104 21.4434C34.8672 21.4434 34.9808 21.4434 35.0376 21.4434C35.0944 21.4434 35.2079 21.4434 35.2647 21.5003C35.2647 21.5572 35.1511 21.5572 35.1511 21.5572C35.0376 21.5572 34.9808 21.5572 34.8672 21.5572C34.4697 21.5003 34.129 21.5003 33.7315 21.5572C33.334 21.6141 32.9932 21.6709 32.5957 21.7278C32.255 21.7847 31.8575 21.8416 31.5168 21.9553C31.46 21.9553 31.2328 22.0122 31.3464 22.0691C31.4032 22.126 31.5168 22.0691 31.5736 22.0691C31.9143 22.0122 32.255 21.9553 32.5957 21.8984C33.334 21.8416 34.0722 21.8984 34.8104 21.9553C35.5487 22.0122 36.2869 22.1828 37.0251 22.3535C38.388 22.6947 39.6941 23.3204 40.8866 24.0598C41.5113 24.4579 42.0792 24.8561 42.5903 25.368C43.1581 25.8798 43.6692 26.3917 44.1235 26.9605C44.3507 27.2449 44.5778 27.4724 44.805 27.8137C44.805 27.8705 44.9185 27.9274 44.9185 27.9843C44.8617 28.0412 44.805 27.9274 44.805 27.9274C44.6914 27.8137 44.5778 27.643 44.4642 27.5293C44.0099 26.9605 43.4989 26.5055 42.931 26.0505C41.852 25.1973 40.6027 24.4579 39.2966 23.946C38.9559 23.8323 38.6152 23.7185 38.2744 23.6048C38.1041 23.5479 37.9337 23.491 37.7634 23.4341C37.7066 23.4341 37.6498 23.3773 37.6498 23.4341C37.593 23.4341 37.593 23.491 37.6498 23.5479C37.7066 23.6048 37.7066 23.6048 37.7634 23.6048C37.8201 23.6616 37.9337 23.7185 37.9905 23.7185C38.1609 23.8323 38.2744 23.946 38.4448 24.0029C38.7287 24.2304 39.0695 24.4579 39.3534 24.6854C39.6373 24.9129 39.9781 25.1404 40.3188 25.3111C40.4891 25.4248 40.6027 25.4817 40.7731 25.5955C40.8299 25.6523 40.8866 25.7092 40.9434 25.7661L41.0002 25.823C41.0002 25.8798 40.9434 25.8798 40.8866 25.823C40.8299 25.823 40.7731 25.7661 40.7163 25.7092C40.6027 25.6523 40.5459 25.5955 40.4323 25.5955C40.0916 25.4248 39.8077 25.2542 39.467 25.1404C38.0473 24.6286 36.5708 24.3442 35.0376 24.3442C34.6401 24.3442 34.2993 24.3442 33.9018 24.401C33.5043 24.4579 33.1636 24.4579 32.7661 24.5148C32.5957 24.5148 32.4254 24.5148 32.255 24.5717C32.1982 24.5717 31.9711 24.6286 31.9711 24.6854C31.9711 24.7423 32.0846 24.7423 32.1414 24.7423C32.1982 24.7423 32.3118 24.7423 32.3686 24.7423C32.5389 24.7423 32.7661 24.6854 32.9365 24.6854C33.2772 24.6854 33.6747 24.6854 34.0154 24.6854C34.4129 24.6854 34.7536 24.7423 35.1511 24.7992C35.8894 24.9129 36.6276 25.0836 37.3091 25.3111C37.6498 25.4248 37.9905 25.5386 38.388 25.7092C38.7287 25.823 39.0695 25.9936 39.4102 26.1642C39.6941 26.278 40.0348 26.3917 40.262 26.5624C40.262 26.5624 40.3756 26.6193 40.3188 26.6761C40.3188 26.733 40.262 26.6761 40.2052 26.6761C40.0916 26.6761 40.0348 26.6193 39.9213 26.5624C39.2966 26.278 38.6152 25.9936 37.9337 25.823C37.1955 25.5955 36.4573 25.4248 35.719 25.3111C34.2993 25.0836 32.7661 25.0836 31.3464 25.4248C30.0971 25.7661 28.9046 26.3917 27.996 27.3018C27.7688 27.5293 27.5417 27.8137 27.3713 28.0412C27.2577 28.2118 27.1442 28.3256 27.0306 28.4962C26.917 28.4393 26.6899 28.7806 26.8034 28.7806Z" fill="#FF7D00"/>
<path fill-rule="evenodd" clip-rule="evenodd" d="M44.4075 41.4643C43.6125 40.8955 42.7607 40.4405 41.8521 39.9855C39.7509 39.0186 37.5362 38.4498 35.3215 37.881C34.0154 37.5397 32.7093 37.2554 31.5736 36.516C30.4378 35.7766 29.5293 34.5821 29.4725 33.274C29.4725 31.9089 30.5514 30.5439 31.9143 30.6576C30.665 30.3732 29.3589 31.5108 29.2453 32.8189C29.0182 34.8096 30.7218 36.2884 32.3686 37.1416C34.0722 38.0516 36.003 38.5067 37.877 39.0185C39.8077 39.5873 41.7953 40.2698 43.4421 41.4643C46.6222 43.8531 48.4962 47.6639 49.1208 51.4746C49.1776 51.759 49.1776 52.0434 49.2344 52.3278C49.2344 52.4416 49.2344 52.6122 49.2912 52.7259C49.2912 52.6122 49.5183 52.3278 49.5751 52.1572C49.6319 51.9297 49.5751 51.7022 49.6319 51.4746C49.7455 49.5977 51.3355 48.5739 52.6416 47.5501C54.2317 46.2988 55.6513 44.6494 56.7303 42.8862C56.7303 42.8293 56.7871 42.8293 56.7871 42.7724C57.9228 40.8386 58.7746 38.5635 58.2068 36.3453C59.6832 35.549 61.4436 35.2647 63.0337 35.7197C62.9769 34.3546 62.8065 32.7621 61.6708 31.9658C60.535 31.1126 58.8314 31.5108 57.6389 32.2502C54.686 33.9565 52.6416 37.1985 49.4047 38.3929C51.9034 38.336 54.0045 36.3453 56.5031 36.1747C54.0045 37.6535 51.3923 38.5635 48.5529 39.2461C47.474 39.5304 47.6444 40.4974 47.5876 41.3505C47.5876 42.2606 47.4172 43.2843 47.3036 44.1944C46.4518 43.1706 45.4864 42.2605 44.4075 41.4643ZM55.5945 30.487C55.5945 30.4301 55.5378 30.4301 55.5378 30.4301C55.1402 30.2595 54.7427 30.0888 54.2317 30.032C53.8341 30.032 53.3798 30.032 52.9823 30.2026C52.812 30.2595 52.6416 30.3732 52.528 30.487C52.3577 30.6007 52.2441 30.7714 52.1873 30.9989C52.0737 31.1695 51.9602 31.3401 51.9034 31.5676C51.7898 31.7383 51.6762 31.9658 51.5627 32.1364C51.4491 32.3639 51.3355 32.5914 51.2219 32.8189C51.2219 32.8758 51.1651 32.9327 51.2219 32.9896C51.3923 33.1602 55.481 30.6007 55.5378 30.6007C55.5378 30.487 55.5945 30.487 55.5945 30.487ZM45.5432 27.1881C45.3729 27.0743 45.2025 27.1312 45.2025 27.3587C45.2025 27.5862 45.6 30.3732 45.6568 30.3732C45.8272 30.1457 46.0543 29.8045 46.2815 29.4063C46.395 29.1219 46.679 28.4394 46.6222 28.2119C46.6222 28.155 46.5654 28.0981 46.5654 28.0413C46.5654 27.9844 46.5086 27.9275 46.395 27.8706L45.5432 27.1881ZM54.2884 31.0557C54.0045 30.942 53.7774 30.8282 53.5502 30.8282C53.3231 30.8282 53.0959 30.8282 52.8688 30.942C52.7552 30.9989 52.6984 31.0557 52.6416 31.1126C52.5848 31.1695 52.4713 31.2833 52.4145 31.397C52.3577 31.5108 52.3009 31.6245 52.2441 31.6814C52.1873 31.7952 52.1305 31.9089 52.0737 32.0227C52.017 32.1364 51.9602 32.2502 51.9034 32.3639C51.9034 32.3639 51.8466 32.4208 51.9034 32.4777C52.017 32.5914 54.2884 31.1126 54.2884 31.1126C54.2884 31.0557 54.2884 31.0557 54.2884 31.0557Z" fill="white"/>
<path fill-rule="evenodd" clip-rule="evenodd" d="M45.7136 27.8705C45.6 27.8136 45.5432 27.8136 45.5432 27.9274C45.5432 28.0411 45.7704 29.6337 45.7704 29.6337C45.8839 29.5199 45.9975 29.3493 46.1111 29.0649C46.1679 28.8943 46.3382 28.4961 46.3382 28.3824C46.3382 28.3255 46.3382 28.3255 46.2814 28.2686C46.2814 28.2686 46.2247 28.2118 46.2247 28.1549L45.7136 27.8705ZM54.4588 30.8281C54.402 30.8281 54.4588 30.8281 54.4588 30.8281C54.1749 30.7143 54.0045 30.6006 53.7206 30.6006C53.4934 30.6006 53.2663 30.6006 53.0391 30.7143C52.9255 30.7712 52.8688 30.8281 52.812 30.885C52.7552 30.9419 52.6984 31.0556 52.6416 31.1694C52.5848 31.2831 52.528 31.34 52.4712 31.4538C52.4145 31.5675 52.3577 31.6813 52.3009 31.7381C52.2441 31.8519 52.1873 31.9656 52.1305 32.0794C52.1305 32.0794 52.1305 32.1363 52.1305 32.1932C52.1873 32.3069 54.402 30.9419 54.402 30.885C54.402 30.8281 54.402 30.8281 54.4588 30.8281Z" fill="#151B19"/>
<path fill-rule="evenodd" clip-rule="evenodd" d="M45.3729 24.9129C45.4297 25.0267 45.4297 25.1404 45.4865 25.2542C45.6 25.311 45.7136 25.3679 45.8272 25.3679C45.8272 25.3679 45.884 25.3679 45.884 25.311C45.9976 25.1973 46.1111 25.0835 46.1679 24.9129C46.3383 24.6854 46.5086 24.3441 46.3951 24.0597C46.3383 23.8322 46.9629 23.0359 46.9061 22.7516C46.8494 22.4103 46.6222 22.2965 46.679 22.1828C46.7358 22.069 46.9061 22.1259 47.1901 21.9553C47.2469 21.8984 47.3604 21.7847 47.4172 21.6709C47.474 21.5571 47.4172 21.4434 47.3604 21.3296C47.3037 21.2159 47.1901 21.1021 47.1333 21.0452C47.0197 20.9315 46.9062 20.8177 46.7358 20.7609C46.5086 20.5902 46.2247 20.3627 45.9408 20.1921C45.7136 20.0215 45.4297 19.9077 45.2025 19.8508C45.089 19.8508 44.9754 19.8508 44.8618 19.9077C44.7482 19.9646 44.6915 20.0783 44.6347 20.1921C44.5211 20.4765 44.5779 20.8177 44.6347 21.1021C44.6915 21.4434 44.7482 21.7847 44.7482 22.069C44.8618 22.7516 44.9186 23.3772 45.089 24.0597C45.2025 24.2872 45.2593 24.6285 45.3729 24.9129Z" fill="white"/>
<path fill-rule="evenodd" clip-rule="evenodd" d="M47.4741 37.4258C47.3605 37.3121 45.0322 35.3783 44.8619 35.2645C44.8051 35.2076 44.6915 35.1508 44.6347 35.1508C44.5779 35.1508 44.5779 35.0939 44.5211 35.0939C44.4644 35.0939 44.4076 35.0939 44.4076 35.0939C44.4076 35.0939 44.4076 35.0939 44.4076 35.1508C44.4076 35.1508 44.4076 35.2076 44.3508 35.2076C44.3508 35.2645 44.294 35.3214 44.294 35.3214C44.2372 35.4351 44.2372 35.492 44.1804 35.6058C44.1236 35.7764 44.0669 35.947 44.0101 36.1177C43.9533 36.4589 44.0101 36.8002 44.1804 37.1415C44.3508 37.5396 44.6915 37.824 45.0322 37.9946C45.2026 38.1084 45.373 38.1652 45.5433 38.2221C45.7137 38.279 46.8494 38.3927 46.963 38.3359C47.0766 38.3359 47.1334 38.3359 47.2469 38.279C47.3605 38.279 47.4173 38.279 47.5309 38.279C47.5877 38.279 47.7012 38.279 47.758 38.2221C47.8148 38.1652 47.8716 38.1084 47.8716 38.0515C47.8716 37.9377 47.8716 37.8809 47.8148 37.824C47.758 37.7102 47.6444 37.5965 47.4741 37.4258Z" fill="#1B201C"/>
<path fill-rule="evenodd" clip-rule="evenodd" d="M10.3243 10.1674C10.2656 10.2262 10.2139 10.3214 10.2139 10.4661V66.4901C10.2139 66.6348 10.2656 66.7301 10.3243 66.7888C10.3829 66.8475 10.4769 66.8984 10.6193 66.8984H79.3317C79.4741 66.8984 79.5681 66.8475 79.6267 66.7888C79.6854 66.7301 79.7371 66.6348 79.7371 66.4901V10.4661C79.7371 10.3214 79.6854 10.2262 79.6267 10.1674C79.5681 10.1087 79.4741 10.0578 79.3317 10.0578H10.6193C10.4769 10.0578 10.3829 10.1087 10.3243 10.1674ZM7.61743 10.4661C7.61743 8.78449 8.93475 7.46179 10.6193 7.46179H79.3317C81.0163 7.46179 82.3336 8.78449 82.3336 10.4661V66.4901C82.3336 68.1717 81.0163 69.4944 79.3317 69.4944H10.6193C8.93475 69.4944 7.61743 68.1717 7.61743 66.4901V10.4661Z" fill="#666666"/>
</svg>
