<svg width="95" height="95" viewBox="0 0 95 95" fill="none" xmlns="http://www.w3.org/2000/svg">
<path d="M94.3845 0C94.1793 0 93.9741 0 93.9741 0H1.07721C0.87203 0 0.666847 0 0.666847 0C0.410367 0.205517 0 0.411033 0 0.667929C0 0.924824 0 1.13034 0 1.13034V93.921C0 94.1266 0 94.3321 0 94.3321C0.205184 94.5376 0.410367 95 0.666847 95C0.87203 95 1.07721 95 1.07721 95H93.7176C93.9228 95 94.128 95 94.128 95C94.3332 94.7945 94.7948 94.589 94.7948 94.3321C94.7948 94.1266 94.7948 93.921 94.7948 93.921V1.07896H95C95 0.873445 95 0.61655 95 0.61655C94.7948 0.411033 94.5896 0 94.3845 0ZM90.6911 2.36344L83.0993 9.96755H11.9006L4.30886 2.36344H90.6911ZM82.2273 12.5879V82.4121H12.5675V12.5879H82.2273ZM2.35961 4.11033L9.9514 11.92V83.2342L2.35961 90.8383V4.11033ZM4.30886 92.5852L11.9006 84.9811H83.0993L90.6911 92.5852H4.30886ZM92.4352 90.8383L84.8434 83.0287V11.92L92.4352 4.31585V90.8383Z" fill="#666666"/>
<path d="M90.6911 92.5852H4.30884L11.9006 84.9811H83.0993L90.6911 92.5852Z" fill="white"/>
<path d="M92.4353 4.31598V90.8384L84.8435 83.0288V11.9201L92.4353 4.31598Z" fill="white"/>
<path d="M90.6911 2.36353L83.0993 9.96764H11.9006L4.30884 2.36353H90.6911Z" fill="white"/>
<path d="M9.95117 11.9199V83.2341L2.35937 90.8383V4.11029L9.95117 11.9199Z" fill="white"/>
<path d="M12.5674 55.9519V82.3607H82.2785V55.9519V53.3315V12.5879H12.5674V53.3315V55.9519Z" fill="white"/>
<path fill-rule="evenodd" clip-rule="evenodd" d="M37.959 49.735C38.5745 50.2488 39.4466 50.4029 40.1647 50.1974C39.3953 50.2488 38.6771 50.1974 37.959 49.735C37.959 49.735 37.959 49.6836 37.959 49.735Z" fill="#1A1D1E"/>
<path fill-rule="evenodd" clip-rule="evenodd" d="M57.3488 43.3126C56.6819 42.7988 56.8871 40.7437 57.5027 39.3051C58.1182 37.8664 59.0928 37.1471 60.5291 37.3013C61.9654 37.4554 63.9147 38.5344 64.0685 39.4078C64.2224 40.2813 62.6323 40.9492 61.0934 41.8226C59.5545 42.6961 58.0156 43.775 57.3488 43.3126Z" fill="#1B1918"/>
<path fill-rule="evenodd" clip-rule="evenodd" d="M49.3981 39.151C49.6033 39.0482 49.1416 37.8665 48.8851 37.2499C48.5773 36.4793 48.3209 36.0168 48.2183 35.7599C48.0644 35.4003 47.8592 34.8865 47.5514 31.6496C47.3975 29.8513 47.3462 28.6182 47.8592 28.1558C48.4234 27.642 48.9364 28.5155 49.6546 28.7724C50.3727 28.9779 50.3727 29.2348 51.0395 29.5945C55.2971 32.112 62.1707 32.8313 66.5822 30.6734C67.4029 30.2624 69.0444 29.0293 69.0957 28.8751C69.4035 28.0017 70.5833 27.9503 70.532 28.2586C70.3268 29.0293 71.3014 30.5707 71.1988 31.3413C70.8398 33.7048 70.6346 36.3765 69.6087 38.5344C69.6087 38.5344 69.7112 38.6886 69.7625 38.7399C69.8138 38.7913 72.276 42.3365 71.1475 47.423C70.4807 50.3516 68.9931 53.0233 67.3516 55.5923C64.1713 60.4733 59.8624 64.5836 55.6049 68.5398C53.4504 70.5436 50.0136 74.1915 50.0136 74.1915C50.0136 74.1915 43.0887 68.3857 41.1394 66.6388C36.4202 62.5799 31.9062 58.3154 27.9051 53.5371C26.0071 51.2764 24.3144 49.2727 23.7501 46.2927C23.2885 43.621 23.6475 40.8465 24.776 38.3803C25.2377 37.4041 25.6994 36.6848 25.9045 36.4279C26.0071 36.2224 27.4434 34.27 29.4953 32.9341C31.8549 31.4441 35.0865 30.5707 38.1643 31.29C43.14 32.4203 47.7053 37.2499 48.4747 38.3289C48.5773 38.5344 49.1929 39.2537 49.3981 39.151Z" fill="white"/>
<path fill-rule="evenodd" clip-rule="evenodd" d="M29.5978 39.8188C29.6491 39.8188 29.7004 39.716 29.7517 39.6647C29.803 39.5619 29.8543 39.5105 29.9056 39.4078C30.0081 39.2536 30.1107 39.0995 30.2646 38.9967C30.5211 38.7398 30.7776 38.483 31.0854 38.2261C32.2139 37.3012 33.5989 36.6847 35.0351 36.4278C36.574 36.1195 38.1642 36.1709 39.7031 36.4792C41.1906 36.7874 42.6269 37.3012 43.9606 38.0719C45.1917 38.7912 46.3202 39.6647 47.141 40.795C47.5513 41.3602 47.9104 42.0281 48.1156 42.7474C48.3721 43.5181 48.4234 44.3402 48.3208 45.1109C48.2695 45.9329 48.013 46.7036 47.9617 47.5257C47.9104 48.1936 48.526 48.5019 48.9876 49.0157C49.2441 49.2726 49.1928 49.4267 49.5006 49.5295C49.8597 49.6322 50.0648 49.5808 50.4239 49.6322C50.5778 49.6322 50.8856 49.7864 50.9882 49.6836C51.0908 49.5808 50.9882 49.8891 50.9369 49.7864C50.8856 49.6322 50.783 49.5295 50.7317 49.4267C50.6291 49.2726 50.5265 49.1184 50.3726 48.9643C50.1674 48.656 50.1161 47.9881 49.8597 47.7312C49.5519 47.4743 49.2954 47.3202 49.0389 47.0633C48.7824 46.8577 48.3721 46.9605 48.3208 46.6522C48.2695 46.2412 48.3721 45.8815 48.4747 45.4705C48.6798 44.6998 48.8337 43.8778 48.9363 43.1071C49.0389 42.285 49.0902 41.4629 49.0389 40.6409C48.9876 38.9967 48.7311 37.404 48.3208 35.8626C47.9104 34.3212 47.3975 32.7799 47.2436 31.1871C47.141 30.365 47.1923 29.5944 47.2949 28.7723C47.3462 28.5668 47.3462 28.3613 47.4487 28.1557C47.5 27.9502 47.6026 27.7447 47.7565 27.642C47.9617 27.4878 48.2182 27.5906 48.4234 27.6933C48.5773 27.7961 48.7311 27.8989 48.885 28.053C49.0389 28.1557 49.1928 28.2585 49.3467 28.4126C50.0135 28.8237 50.6804 29.2347 51.3985 29.543C52.8348 30.2109 54.3737 30.6219 55.9126 30.8788C56.7333 31.033 57.554 31.1357 58.3235 31.2385C59.1442 31.3413 59.9649 31.444 60.7857 31.4954C61.6064 31.5468 62.4272 31.5981 63.2479 31.4954C64.0173 31.444 64.7868 31.2385 65.5562 30.9816C66.2743 30.7247 66.9412 30.365 67.5567 29.954C67.8645 29.7485 68.1723 29.4916 68.4288 29.2347C68.6852 28.9778 68.9417 28.6695 69.1982 28.4126C69.4547 28.1557 69.7112 27.8989 70.0702 27.8475C70.4293 27.7961 70.6858 28.053 70.7884 28.3613C70.9423 28.6695 70.9936 29.0292 71.0449 29.3888C71.0962 29.7999 71.1474 30.2109 71.1474 30.6219C71.25 32.2661 71.1474 33.9102 70.891 35.5543C70.7371 36.325 70.5319 37.1471 70.3267 37.9178C70.2241 38.2261 70.1215 38.5857 69.9164 38.894C69.8138 38.9967 69.7112 39.0995 69.5573 39.2023C69.4547 39.2536 69.3008 39.305 69.1982 39.2536C69.0956 39.1509 69.1469 38.9454 69.1982 38.8426C69.2495 38.6371 69.3008 38.483 69.3521 38.2774C69.4547 37.9178 69.5573 37.5067 69.6086 37.0957C69.7625 36.2736 69.9164 35.503 70.0189 34.6809C70.0702 34.2699 70.1215 33.8588 70.1728 33.4478C70.2241 33.0881 70.2754 32.6771 70.1728 32.3688C70.1215 32.2147 70.0189 32.0606 69.9164 32.0092C69.8138 31.9064 69.6599 31.9064 69.506 31.9578C69.1469 32.0092 68.8391 32.2147 68.5827 32.3688C68.2749 32.5744 67.9158 32.8312 67.608 33.0368C67.4542 33.1395 67.3003 33.2937 67.1464 33.3964C67.0438 33.4992 66.9412 33.6019 66.8386 33.7561C66.7873 33.9102 66.736 34.0643 66.7873 34.2185C66.8386 34.3726 66.9412 34.4754 67.0951 34.5781C67.1977 34.6809 67.3003 34.835 67.4029 34.9892C67.4541 35.1433 67.4541 35.3488 67.4541 35.5543C67.4541 35.8626 67.4541 36.2736 67.7106 36.5305C67.7619 36.5819 67.8645 36.6333 67.9158 36.6333C67.9671 36.6333 68.0697 36.6847 68.121 36.7361C68.2236 36.8388 68.121 37.0443 68.121 37.1985C68.0697 37.5581 68.2236 37.9692 68.4288 38.2774C68.6339 38.5857 68.8904 38.894 69.1469 39.1509C69.4034 39.4078 69.6599 39.7161 69.9164 39.9729C70.1728 40.2298 70.378 40.5381 70.5832 40.8464C70.9936 41.4629 71.3013 42.1822 71.4552 42.9016C71.8656 44.4429 71.8656 46.0871 71.5578 47.6284C71.25 49.1698 70.6858 50.6084 70.0189 52.047C69.3008 53.4343 68.4801 54.8215 67.608 56.106C66.6847 57.3905 65.7101 58.6236 64.6842 59.8567C63.607 61.0898 62.4784 62.2201 61.3499 63.3504C60.1701 64.5322 58.9903 65.6625 57.7592 66.7415C56.5281 67.8718 55.3483 69.0022 54.1172 70.1325C53.5017 70.6977 52.9374 71.2628 52.3219 71.828C51.7576 72.3932 51.1933 72.9583 50.6291 73.5235C50.5265 73.6263 50.3726 73.729 50.27 73.8832C50.2187 73.9345 50.1674 74.0373 50.1674 74.0887C50.2187 74.1401 50.3213 74.0373 50.3213 74.0373C50.6291 73.7804 50.8856 73.5235 51.1421 73.2152C51.655 72.6501 52.168 72.0849 52.5783 71.417C53.3991 70.1325 53.7581 68.6425 53.6556 67.1525C53.6556 66.7415 53.553 66.3818 53.5017 65.9708C53.4504 65.5597 53.3478 65.2001 53.2452 64.7891C53.2452 64.6863 53.1939 64.5322 53.04 64.5835C52.9887 64.6349 52.9374 64.6863 52.8861 64.7377C52.8348 64.7891 52.7835 64.8918 52.6809 64.9432C52.3732 65.1487 51.9628 65.0973 51.7063 65.3542C51.6037 65.457 51.5011 65.6111 51.3985 65.7139C51.2959 65.8166 51.1933 65.7653 51.1421 65.6625C51.0908 65.5597 51.0908 65.4056 51.0908 65.2515C51.0908 65.046 51.0908 64.8404 51.0395 64.6349C50.9882 64.4294 50.9882 64.2239 50.9882 64.0184C50.9882 63.9156 51.0395 63.6073 50.8343 63.556C50.7317 63.556 50.6804 63.6073 50.6291 63.6587C50.5778 63.7101 50.5265 63.7615 50.4239 63.8642C50.27 63.967 50.1161 64.0698 50.0135 64.2239C49.911 64.3267 49.8084 64.4294 49.6545 64.4294C49.5006 64.4808 49.398 64.2753 49.3467 64.1725C49.1415 63.8642 48.885 63.556 48.5773 63.2991C48.4747 63.1963 48.3721 63.0936 48.2182 62.9908C48.1669 62.9394 48.0643 62.8367 47.9617 62.8367C47.8078 62.8367 47.8591 63.0936 47.8591 63.1963C47.9104 63.4018 47.9104 63.6073 47.9617 63.7615C48.013 64.1725 48.013 64.5835 48.0643 64.9432C48.1156 65.0973 48.1156 65.3029 48.1156 65.457C48.1156 65.5084 48.1156 65.5597 48.0643 65.6111C48.013 65.6625 47.9617 65.5597 47.9104 65.5084C47.8591 65.457 47.8591 65.3542 47.8078 65.2515C47.7565 65.1487 47.7052 65.0973 47.6539 65.046C47.5513 64.8918 47.3975 64.7891 47.2949 64.6863C47.1923 64.5835 46.9871 64.4808 46.8332 64.4294C46.6793 64.4294 46.628 64.5835 46.628 64.7377C46.628 64.8404 46.6793 64.9946 46.6793 65.0973C46.628 65.3029 46.4228 65.1487 46.3202 65.0973C46.1664 64.9946 46.0125 64.8918 45.8073 64.7891C45.6534 64.6863 45.4482 64.5835 45.2943 64.4808C44.9865 64.3267 44.6275 64.1211 44.3197 63.9156C44.2171 63.8129 44.0632 63.7615 43.9606 63.9156C43.858 64.0698 43.9093 64.2239 43.9093 64.378C43.9093 64.5835 43.9606 64.7377 44.0119 64.9432C44.0632 65.1487 44.1658 65.3029 44.2684 65.457C44.3197 65.5084 44.3197 65.6111 44.3197 65.6625C44.2684 65.7139 44.2171 65.7139 44.1145 65.7139C44.0119 65.7139 43.9606 65.7139 43.858 65.7139C43.7554 65.7139 43.6529 65.7653 43.5503 65.7653C43.1912 65.868 42.8321 66.0735 42.473 66.2277C42.3192 66.3304 42.114 66.3818 41.9601 66.4846C41.8062 66.5359 41.6523 66.5873 41.4984 66.6387C41.3958 66.6901 41.2419 66.7929 41.2419 66.947C41.2932 67.1011 41.4471 67.1525 41.5497 67.2039C41.8575 67.4094 42.1653 67.7177 42.473 67.9746C43.0886 68.5397 43.7041 69.0535 44.3197 69.6187C45.5508 70.6977 46.7819 71.7252 48.0643 72.7528C48.3721 73.0097 48.6798 73.2666 48.9876 73.4721C49.1928 73.6263 49.398 73.7804 49.6545 73.8832C49.7058 73.8832 49.8597 73.9345 49.8084 73.8318C49.8084 73.7804 49.7058 73.729 49.7058 73.729C49.6545 73.6777 49.5519 73.6263 49.5006 73.5749C49.1415 73.3694 48.8337 73.1125 48.4747 72.8556C47.8078 72.3932 47.1923 71.8794 46.5254 71.3656C45.8586 70.8518 45.243 70.338 44.5762 69.8242C43.2938 68.7966 42.0114 67.7177 40.729 66.6901C39.4466 65.6111 38.2155 64.5835 36.9844 63.4532C35.7533 62.3742 34.5222 61.2439 33.3424 60.1136C32.1626 58.9832 30.9315 57.8529 29.803 56.6712C28.1102 54.9757 26.5713 53.126 25.3915 51.0708C25.0837 50.5057 24.776 49.9405 24.5195 49.3239C23.9039 47.8853 23.4423 46.3953 23.2884 44.854C23.0832 43.2612 23.1858 41.6685 23.5962 40.1271C23.9552 38.6885 24.6221 37.3526 25.4941 36.1195C26.3148 34.9378 27.3921 33.9102 28.5719 33.1395C29.803 32.3175 31.1879 31.7523 32.6242 31.444C34.2144 31.1357 35.8046 31.1357 37.3948 31.444C37.8051 31.4954 38.2155 31.5981 38.6259 31.7009C38.8823 31.7523 39.1901 31.855 39.4466 31.9578C39.4466 31.9578 39.6518 32.0606 39.5492 32.0606C39.4979 32.0606 39.4466 32.0606 39.3953 32.0606C39.344 32.0606 39.2927 32.0092 39.2414 32.0092C38.8823 31.9064 38.472 31.8037 38.1129 31.7009C36.574 31.3413 34.9326 31.3413 33.3424 31.6495C31.9061 31.9064 30.5211 32.4716 29.29 33.2937C28.1102 34.0643 27.0843 35.0919 26.3148 36.2736C25.9045 36.9416 25.5967 37.6095 25.2889 38.3288C25.135 38.6885 24.9811 39.0481 24.9299 39.4592C24.9299 39.5105 24.8786 39.6133 24.8786 39.7161C24.8786 39.7674 24.9299 39.7674 24.9299 39.7161C24.9811 39.6647 24.9811 39.5619 25.0324 39.5105C25.1863 39.1509 25.2889 38.7912 25.4428 38.4316C25.5967 38.0719 25.8019 37.7636 26.0071 37.404C26.4174 36.7874 26.9304 36.1709 27.4434 35.6057C28.4693 34.5781 29.7004 33.7047 30.9828 33.0368C32.3678 32.3688 33.9066 31.9578 35.4455 31.855C36.2662 31.8037 37.0357 31.855 37.8564 31.9064C37.959 31.9064 38.0103 31.9064 38.1129 31.9578C38.1642 31.9578 38.3181 32.0092 38.3181 32.0606C38.3181 32.1119 38.2155 32.1119 38.1642 32.1119C38.0616 32.1119 37.959 32.1119 37.8564 32.0606C37.4461 32.0092 37.0357 32.0092 36.6253 32.0606C36.2149 32.1119 35.8046 32.1633 35.4455 32.2661C35.0351 32.3175 34.6761 32.4202 34.2657 32.523C34.2144 32.523 33.9579 32.6257 34.0605 32.6771C34.1118 32.7285 34.2144 32.6771 34.317 32.6771C34.6761 32.6257 35.0351 32.523 35.4455 32.523C36.2149 32.4716 37.0357 32.4716 37.8564 32.5744C38.6772 32.6771 39.4466 32.7799 40.216 32.9854C41.6523 33.3964 43.0886 34.013 44.371 34.7837C45.0378 35.1947 45.6534 35.6571 46.2176 36.1709C46.8332 36.6847 47.3462 37.2499 47.8591 37.8664C48.1156 38.1747 48.3721 38.4316 48.5773 38.7398C48.5773 38.7912 48.6798 38.894 48.6798 38.9454C48.6286 38.9967 48.5773 38.894 48.526 38.894C48.3721 38.7398 48.2695 38.5857 48.1669 38.483C47.7052 37.8664 47.141 37.3526 46.5254 36.8902C45.3456 35.9654 44.0632 35.1947 42.6782 34.6295C42.3192 34.4754 41.9601 34.3726 41.5497 34.2185C41.3445 34.1671 41.1906 34.1157 40.9855 34.013C40.9342 34.013 40.8829 33.9616 40.8316 34.013C40.7803 34.013 40.7803 34.1157 40.8316 34.1157C40.8829 34.1671 40.9342 34.1671 40.9855 34.2185C41.0881 34.2699 41.1394 34.3212 41.2419 34.3726C41.3958 34.4754 41.5497 34.5781 41.7036 34.6809C42.0114 34.9378 42.3705 35.1433 42.6782 35.4002C42.986 35.6571 43.3451 35.8626 43.7041 36.0681C43.858 36.1709 44.0119 36.2737 44.1658 36.3764C44.2171 36.4278 44.3197 36.4792 44.371 36.5305C44.371 36.5305 44.4223 36.5819 44.4223 36.6333C44.4223 36.6847 44.371 36.6847 44.3197 36.6333C44.2684 36.5819 44.2171 36.5819 44.1658 36.5305C44.0632 36.4792 43.9606 36.4278 43.9093 36.3764C43.5503 36.1709 43.2425 36.0168 42.8834 35.914C41.3958 35.4002 39.7544 35.0919 38.1642 35.0405C37.7538 35.0405 37.3435 35.0406 36.9331 35.0919C36.5227 35.1433 36.1124 35.1947 35.7533 35.1947C35.5481 35.1947 35.3942 35.1947 35.189 35.2461C35.1377 35.2461 34.8813 35.2974 34.8813 35.4002C34.8813 35.4516 35.0351 35.4516 35.0864 35.4516C35.189 35.4516 35.2916 35.4516 35.3429 35.4516C35.5481 35.4516 35.7533 35.4002 35.9585 35.4002C36.3688 35.4002 36.7279 35.4002 37.1383 35.4516C37.5486 35.503 37.959 35.503 38.3181 35.6057C39.0875 35.7085 39.857 35.914 40.6264 36.1195C40.9855 36.2223 41.3958 36.3764 41.7549 36.5305C42.114 36.6847 42.473 36.8388 42.8834 37.0443C43.1912 37.1985 43.5503 37.3012 43.8067 37.5067C43.858 37.5067 43.9093 37.5581 43.9093 37.6095C43.9093 37.6609 43.858 37.6609 43.8067 37.6095C43.7041 37.6095 43.6016 37.5581 43.5503 37.5067C42.8321 37.1985 42.114 36.9416 41.3958 36.6847C40.6264 36.4278 39.857 36.2737 39.0362 36.1195C37.4973 35.8626 35.9072 35.8626 34.3683 36.2736C33.0346 36.6333 31.7522 37.3012 30.7776 38.2774C30.5211 38.5343 30.3159 38.7912 30.0594 39.0995C29.9568 39.2536 29.803 39.4078 29.7004 39.5619C29.7517 39.4592 29.4952 39.7674 29.5978 39.8188Z" fill="#FF7D00"/>
<path fill-rule="evenodd" clip-rule="evenodd" d="M48.4744 53.4343C47.6024 52.8177 46.679 52.3039 45.7557 51.8415C43.4987 50.8139 41.1391 50.1974 38.7282 49.5808C37.3432 49.2212 35.9069 48.9129 34.6758 48.1422C33.4447 47.3715 32.4701 46.0871 32.4701 44.6484C32.4188 43.2098 33.6499 41.7712 35.0862 41.874C33.7012 41.5657 32.3675 42.7988 32.2136 44.2374C32.0084 46.3953 33.8038 47.9881 35.5478 48.8615C37.3945 49.8377 39.4463 50.3001 41.4468 50.8653C43.55 51.4819 45.6531 52.2012 47.4485 53.537C50.834 56.0546 52.8345 60.1649 53.5014 64.2753C53.5527 64.5835 53.604 64.8918 53.604 65.2001C53.604 65.3542 53.6553 65.457 53.6553 65.6111C53.6553 65.5084 53.9117 65.1487 53.963 65.0459C54.0143 64.7891 53.963 64.5322 54.0143 64.2753C54.1169 62.2715 55.861 61.1411 57.246 60.0622C58.99 58.7263 60.4263 56.9794 61.6061 55.0784C61.6061 55.027 61.6574 55.027 61.6574 54.9756C62.8885 52.9205 63.7606 50.4543 63.1963 48.0908C64.7352 47.2174 66.6331 46.9605 68.3772 47.3715C68.3259 45.8815 68.1207 44.186 66.9409 43.3126C65.7098 42.3878 63.9144 42.8502 62.5808 43.6209C59.4004 45.4705 57.1947 48.9129 53.7579 50.1974C56.4252 50.146 58.6823 47.9881 61.3497 47.8339C58.6823 49.4267 55.861 50.3515 52.8345 51.1222C51.706 51.3791 51.9112 52.4581 51.8086 53.3829C51.8086 54.4105 51.6034 55.4381 51.5008 56.4143C50.6801 55.2325 49.6029 54.2563 48.4744 53.4343ZM60.4776 41.6171C60.4776 41.5657 60.4263 41.5657 60.375 41.5657C59.9134 41.3602 59.503 41.206 58.99 41.1547C58.5797 41.1033 58.0667 41.1547 57.6563 41.3602C57.5025 41.4116 57.2973 41.5143 57.1947 41.6684C57.0408 41.8226 56.8869 41.9767 56.7843 42.1822C56.6817 42.3878 56.5791 42.5933 56.4765 42.7474C56.374 42.9529 56.2201 43.1584 56.1175 43.364C55.9636 43.5695 55.861 43.8264 55.7584 44.0833C55.7584 44.1346 55.7071 44.2374 55.7584 44.2374C55.9123 44.4429 60.3237 41.6684 60.375 41.6684C60.4263 41.6684 60.4776 41.6684 60.4776 41.6171ZM49.7055 38.1233C49.5003 37.9691 49.3464 38.0719 49.3464 38.2774C49.3464 38.4829 49.7568 41.5143 49.8081 41.5143C50.0133 41.2574 50.2697 40.8978 50.4749 40.4353C50.5775 40.1271 50.8853 39.4078 50.8853 39.1509C50.8853 39.0481 50.834 38.9967 50.834 38.9454C50.7827 38.894 50.7314 38.8426 50.6801 38.7398L49.7055 38.1233ZM59.0926 42.2336C58.7849 42.0795 58.5797 41.9767 58.2719 41.9767C58.0154 41.9767 57.7589 41.9767 57.5538 42.0795C57.4512 42.1309 57.3486 42.1822 57.2973 42.2336C57.1947 42.3364 57.1434 42.4391 57.0921 42.5419C57.0408 42.6447 56.9895 42.7474 56.8869 42.8502C56.8356 42.9529 56.733 43.0557 56.6817 43.2098C56.6304 43.3126 56.5278 43.4667 56.4765 43.6209C56.4765 43.6209 56.4252 43.6722 56.4765 43.7236C56.5791 43.8264 59.0413 42.285 59.0413 42.285C59.0413 42.285 59.0926 42.285 59.0926 42.2336Z" fill="white"/>
<path fill-rule="evenodd" clip-rule="evenodd" d="M49.8597 38.8426C49.7571 38.7912 49.6545 38.7912 49.6545 38.9454C49.6545 39.0481 49.911 40.7436 49.911 40.7436C50.0136 40.5895 50.1675 40.384 50.2701 40.1271C50.3214 39.973 50.5266 39.5619 50.4753 39.4078C50.4753 39.3564 50.4753 39.305 50.424 39.305C50.424 39.2537 50.3727 39.2537 50.3214 39.2023L49.8597 38.8426ZM59.2469 41.9767C59.1956 41.9767 59.2469 41.9767 59.2469 41.9767C58.9391 41.8226 58.7339 41.7712 58.4774 41.7198C58.221 41.7198 58.0158 41.7199 57.7593 41.8226C57.6567 41.874 57.5541 41.9254 57.5028 41.9767C57.4002 42.0795 57.3489 42.1309 57.2976 42.2336C57.2463 42.3364 57.195 42.4392 57.1437 42.5419C57.0924 42.6447 57.0412 42.7474 56.9386 42.8502C56.8873 42.9529 56.7847 43.1071 56.7334 43.2098C56.7334 43.2098 56.6821 43.2612 56.7334 43.3126C56.836 43.4154 59.1443 41.9254 59.1956 41.9254C59.1956 42.0281 59.2469 42.0281 59.2469 41.9767Z" fill="#151B19"/>
<path fill-rule="evenodd" clip-rule="evenodd" d="M49.5002 35.6572C49.5515 35.76 49.5515 35.8627 49.6028 36.0169C49.7054 36.0683 49.808 36.1196 49.9619 36.171C49.9619 36.171 50.0132 36.1196 50.0645 36.1196C50.1671 35.9655 50.2697 35.8627 50.3723 35.7086C50.5262 35.4517 50.7313 35.0921 50.6288 34.7838C50.5775 34.5269 51.2443 33.6534 51.193 33.3452C51.0904 32.9855 50.8852 32.8827 50.9878 32.7286C51.0391 32.5745 51.2443 32.6772 51.5008 32.4717C51.5521 32.4203 51.706 32.3176 51.7573 32.1634C51.8086 32.0093 51.7573 31.9065 51.706 31.7524C51.6547 31.6496 51.5521 31.5469 51.4495 31.4441C51.3469 31.3414 51.193 31.2386 51.0391 31.0845C50.7826 30.879 50.4749 30.6734 50.2184 30.4679C49.9619 30.3138 49.7054 30.1597 49.3977 30.1083C49.2951 30.1083 49.1412 30.1083 49.0386 30.1597C48.936 30.211 48.8334 30.3652 48.8334 30.4679C48.7308 30.7762 48.7821 31.1359 48.8334 31.4441C48.8847 31.8038 48.936 32.1634 48.9873 32.5231C49.0899 33.2424 49.1925 33.9617 49.3464 34.6296C49.3464 34.9893 49.3977 35.3489 49.5002 35.6572Z" fill="white"/>
<path fill-rule="evenodd" clip-rule="evenodd" d="M51.7575 49.067C51.6036 48.9129 49.0901 46.9091 48.9362 46.755C48.8336 46.7036 48.7824 46.6522 48.6798 46.6008C48.6285 46.6008 48.5772 46.5494 48.5772 46.5494C48.5259 46.5494 48.4746 46.5494 48.4233 46.5494C48.4233 46.5494 48.4233 46.6008 48.372 46.6008C48.372 46.6008 48.372 46.6522 48.3207 46.6522C48.3207 46.7036 48.2694 46.755 48.2694 46.8063C48.2181 46.9091 48.1668 47.0118 48.1155 47.0632C48.0129 47.2174 47.9616 47.4229 47.9616 47.6284C47.9103 47.9881 47.9616 48.3991 48.1155 48.7074C48.3207 49.1184 48.6798 49.4267 49.0388 49.6322C49.1927 49.7349 49.3979 49.7863 49.6031 49.8377C49.8083 49.8891 50.9881 49.9918 51.0907 49.9918C51.1933 49.9918 51.2959 49.9918 51.3984 49.9405C51.501 49.9405 51.6036 49.9405 51.7062 49.8891C51.8088 49.8891 51.9114 49.8891 51.9627 49.8377C52.014 49.7863 52.1166 49.7349 52.1166 49.6836C52.1166 49.5808 52.1166 49.478 52.0653 49.4267C52.0653 49.3753 51.9114 49.2725 51.7575 49.067C51.8088 49.1184 51.8088 49.1184 51.7575 49.067Z" fill="#1B201C"/>
</svg>
