<svg width="101" height="37" viewBox="0 0 101 37" fill="none" xmlns="http://www.w3.org/2000/svg">
<path opacity="0.5" d="M100.187 4.39453H45.521V34.0648H100.187V4.39453Z" fill="white"/>
<path d="M10.2424 9.42131H4.22712V11.4238H9.42954V14.489H4.22712V19.1479H0.284668V6.15186H10.2424V9.42131Z" fill="#FF7D00"/>
<path d="M24.7115 12.6499C24.7115 16.6959 22.1103 19.434 18.2491 19.434C14.3066 19.434 11.6648 16.7367 11.6648 12.6499C11.6648 8.52224 14.3066 5.86581 18.2897 5.86581C22.1103 5.82494 24.7115 8.5631 24.7115 12.6499ZM15.6479 12.5682C15.6479 14.8977 16.5827 16.2054 18.2085 16.2054C19.8342 16.2054 20.6877 14.8977 20.6877 12.4456C20.6877 10.2796 19.7529 8.97178 18.2085 8.97178C16.6233 9.01265 15.6479 10.3613 15.6479 12.5682Z" fill="#FF7D00"/>
<path d="M33.5312 12.2412L38.124 19.107H33.3686L32.1087 16.9819C31.7429 16.3689 31.4584 15.7559 31.1739 15.1428C30.8487 15.7967 30.5236 16.4506 30.1578 17.0636L28.9385 19.107H24.3457L29.0604 12.2412L24.7928 6.15186H29.4262L30.4016 7.86832C30.7674 8.48134 31.0519 9.13523 31.3771 9.78912C31.6616 9.21696 31.9055 8.64481 32.2306 8.07266L33.2874 6.15186H37.6769L33.5312 12.2412Z" fill="#FF7D00"/>
<path d="M3.3328 23.1121C4.9992 23.1121 6.17787 23.8886 6.17787 25.6459C6.17787 27.3624 4.95855 28.1389 3.41408 28.1389H1.70704V30.9588H0V23.1121H3.3328ZM1.70704 26.7494H3.21087C3.9831 26.7494 4.55211 26.5042 4.55211 25.6459C4.55211 24.8286 3.9831 24.5016 3.21087 24.5016H1.70704V26.7494Z" fill="black"/>
<path d="M14.2252 30.9179H12.5181V27.5667H9.34791V30.9179H7.64087V23.1121H9.34791V26.0546H12.5181V23.1121H14.2252V30.9179Z" fill="black"/>
<path d="M23.4517 27.0355C23.4517 29.4876 21.9072 31.1223 19.6312 31.1223C17.3145 31.1223 15.77 29.4876 15.77 27.0355C15.77 24.5425 17.3145 22.9487 19.6312 22.9487C21.9072 22.9078 23.4517 24.5834 23.4517 27.0355ZM17.5177 26.9946C17.5177 28.6702 18.3306 29.6919 19.6312 29.6919C20.9318 29.6919 21.704 28.6702 21.704 26.9946C21.704 25.3599 20.8911 24.3382 19.5905 24.3382C18.3306 24.3382 17.5177 25.3599 17.5177 26.9946Z" fill="black"/>
<path d="M30.4425 24.5834H28.0851V30.9588H26.3781V24.5834H24.0208V23.1121H30.4018L30.4425 24.5834Z" fill="black"/>
<path d="M38.6929 27.0355C38.6929 29.4876 37.1485 31.1223 34.8724 31.1223C32.5557 31.1223 31.0112 29.4876 31.0112 27.0355C31.0112 24.5425 32.5557 22.9487 34.8724 22.9487C37.1891 22.9078 38.6929 24.5834 38.6929 27.0355ZM32.7589 26.9946C32.7589 28.6702 33.5718 29.6919 34.8724 29.6919C36.173 29.6919 36.9452 28.6702 36.9452 26.9946C36.9452 25.3599 36.1324 24.3382 34.8318 24.3382C33.5718 24.3382 32.7589 25.3599 32.7589 26.9946Z" fill="black"/>
<path d="M65.1113 17.5949C65.5991 18.0036 66.29 18.1262 66.859 17.9628C66.2494 18.0036 65.6397 17.9628 65.1113 17.5949C65.1113 17.5541 65.0707 17.5949 65.1113 17.5949Z" fill="#1A1D1E"/>
<path d="M80.4341 12.4864C79.9057 12.0777 80.0683 10.443 80.556 9.29871C81.0438 8.1544 81.816 7.58225 82.954 7.70485C84.0921 7.82745 85.6365 8.68568 85.7585 9.38044C85.8804 10.0752 84.6204 10.6065 83.4011 11.3012C82.1818 11.996 80.9625 12.8542 80.4341 12.4864Z" fill="#1B1918"/>
<path d="M91.6519 12.1595C91.4893 11.5873 91.2454 11.0152 90.9609 10.5248C90.7984 10.2796 90.6358 10.0343 90.4326 9.83C90.2294 9.58479 90.0261 9.38045 89.8229 9.17611C89.6197 8.97177 89.4165 8.72656 89.2539 8.48135C89.0913 8.23614 88.9694 7.95007 89.01 7.62312C89.01 7.50052 89.0913 7.37791 89.01 7.25531C88.9694 7.21444 88.9287 7.21444 88.8475 7.17357C88.8068 7.17357 88.7255 7.13271 88.6849 7.09184C88.4817 6.8875 88.4817 6.56055 88.4817 6.31534C88.4817 6.15187 88.4817 6.02927 88.441 5.86579C88.4004 5.74319 88.3191 5.62059 88.2378 5.53885C88.1565 5.45711 88.0346 5.37538 87.9939 5.25277C87.9533 5.13017 87.9939 5.00756 88.0346 4.88496C88.0752 4.76235 88.1565 4.68062 88.2784 4.59888C88.4004 4.47628 88.5223 4.39454 88.6442 4.31281C88.8881 4.10846 89.132 3.94499 89.4165 3.78152C89.6197 3.61805 89.9042 3.49544 90.1481 3.45457C90.27 3.45457 90.3919 3.45457 90.4732 3.49544C90.5951 3.57718 90.6358 3.65892 90.6764 3.78152C90.7577 4.0676 90.7171 4.35367 90.6764 4.63975C90.6358 4.96669 90.5951 5.29364 90.5545 5.62058C90.4732 6.27448 90.3513 6.92836 90.2294 7.54139C90.1481 7.86833 90.1074 8.15441 90.0261 8.48135C89.9855 8.64483 89.9448 8.76743 89.9042 8.9309C89.8636 9.01264 89.8229 9.17611 89.9042 9.25785C89.9855 9.29872 90.1074 9.25785 90.1887 9.21698C90.3106 9.17611 90.3919 9.09438 90.4732 8.97177C90.6358 8.76743 90.7171 8.48135 90.7984 8.19528C90.9609 7.58225 91.1235 6.96923 91.2454 6.31534C91.4893 5.00756 91.5706 3.69978 91.4487 2.392C91.408 2.06506 91.408 1.73811 91.3674 1.41117C91.3267 1.12509 91.2861 0.839015 91.1642 0.593807C91.0422 0.348598 90.8797 0.144257 90.5951 0.185125C90.3106 0.225993 90.1074 0.471202 89.9042 0.634675C89.701 0.839015 89.4978 1.08422 89.2945 1.28856C89.0913 1.49291 88.8475 1.69725 88.6036 1.86072C88.1159 2.18766 87.5875 2.47374 87.0185 2.67808C86.4088 2.88242 85.7992 3.00503 85.1895 3.08676C84.5392 3.12763 83.8889 3.12763 83.2386 3.08676C82.5883 3.04589 81.938 2.96416 81.2877 2.88242C80.6374 2.80068 79.9871 2.71895 79.3368 2.59634C78.1175 2.392 76.8982 2.06506 75.7601 1.53377C75.1911 1.28856 74.6627 0.96162 74.1344 0.634675C74.0124 0.552938 73.8905 0.471202 73.7686 0.389466C73.6467 0.30773 73.5247 0.185125 73.4028 0.103389C73.2402 0.0216528 73.037 -0.0600834 72.8744 0.062521C72.7525 0.144257 72.6712 0.348598 72.6306 0.471202C72.5899 0.634675 72.5493 0.798147 72.5086 0.96162C72.3867 1.57464 72.3867 2.22853 72.468 2.88242C72.5899 4.14933 72.9963 5.37538 73.3215 6.60142C73.6467 7.86833 73.8499 9.13524 73.8905 10.443C73.8905 11.0969 73.8905 11.7508 73.8092 12.4047C73.7279 13.0586 73.606 13.6716 73.4434 14.2846C73.3621 14.5707 73.2809 14.8976 73.3215 15.2246C73.3621 15.4698 73.6873 15.3881 73.8905 15.5515C74.0937 15.7559 74.3376 15.8785 74.5408 16.0828C74.7847 16.2463 74.7847 16.8185 74.9473 17.0637C75.0285 17.1863 75.1505 17.3089 75.2318 17.4723C75.2724 17.5541 75.3537 17.6358 75.3943 17.7176C75.2724 17.7176 75.1098 17.6358 75.0285 17.6358C74.744 17.5949 74.5815 17.6358 74.297 17.5541C74.0531 17.4723 74.0531 17.3497 73.8905 17.1454C73.5247 16.7367 73.037 16.4915 73.0776 15.9602C73.1183 15.3063 73.3215 14.6933 73.3621 14.0394C73.4028 13.3855 73.3621 12.7725 73.1996 12.1595C73.037 11.5873 72.7525 11.0969 72.4273 10.6065C71.777 9.7074 70.8829 8.97177 69.9074 8.44049C68.8507 7.82746 67.7126 7.41878 66.534 7.17357C65.3147 6.92837 64.0547 6.8875 62.8354 7.13271C61.6974 7.37791 60.6406 7.86833 59.7058 8.56309C59.4619 8.72656 59.2587 8.9309 59.0555 9.17611C58.9742 9.29872 58.8523 9.38045 58.771 9.50306C58.7304 9.58479 58.6897 9.62566 58.6491 9.7074C58.6084 9.74826 58.5678 9.83 58.5271 9.83C58.4458 9.78913 58.6491 9.54392 58.6491 9.50306C58.7304 9.38045 58.8116 9.25785 58.9336 9.13524C59.0961 8.89003 59.2994 8.68569 59.5026 8.48135C60.2748 7.70486 61.2909 7.17357 62.3477 6.8875C63.567 6.56055 64.8269 6.56055 66.0463 6.76489C66.6559 6.8875 67.3062 7.05097 67.9159 7.21444C68.4849 7.37791 69.0539 7.58225 69.6229 7.86833C69.7042 7.9092 69.7855 7.95007 69.8261 7.95007C69.8668 7.95007 69.9074 7.95007 69.9074 7.95007C69.9074 7.9092 69.8668 7.86833 69.8261 7.86833C69.6229 7.70486 69.3384 7.62312 69.0945 7.50052C68.81 7.37791 68.5255 7.21444 68.2004 7.09184C67.9159 6.96923 67.5907 6.8875 67.3062 6.76489C66.6966 6.56055 66.0869 6.43795 65.4772 6.35621C65.1521 6.31534 64.8676 6.27448 64.5424 6.23361C64.2173 6.19274 63.9328 6.19274 63.6076 6.19274C63.445 6.19274 63.2825 6.23361 63.1199 6.23361C63.0386 6.23361 62.9573 6.23361 62.9167 6.23361C62.876 6.23361 62.7947 6.23361 62.7947 6.19274C62.7947 6.111 62.998 6.07013 62.998 6.07013C63.1605 6.02927 63.2825 6.02927 63.445 6.02927C63.7702 6.02927 64.0953 5.94753 64.3798 5.94753C64.705 5.90666 65.0302 5.90666 65.3553 5.90666C66.6153 5.90666 67.9159 6.15187 69.0945 6.60142C69.379 6.72402 69.6636 6.84663 69.9074 7.0101C69.9887 7.05097 70.07 7.09184 70.1106 7.13271C70.1513 7.17357 70.1919 7.17357 70.2326 7.21444C70.2732 7.21444 70.3139 7.25531 70.3139 7.17357C70.3139 7.13271 70.2732 7.13271 70.2732 7.09184C70.2326 7.05097 70.1513 7.0101 70.1106 6.96923C69.9887 6.8875 69.8668 6.80576 69.7042 6.72402C69.4197 6.56055 69.1758 6.35621 68.8913 6.19274C68.6475 5.9884 68.363 5.82493 68.1191 5.62058C67.9972 5.53885 67.8752 5.45711 67.7127 5.37538C67.6314 5.33451 67.5907 5.29364 67.5094 5.25277C67.4688 5.25277 67.4281 5.2119 67.3875 5.17104C67.3469 5.13017 67.3469 5.0893 67.3875 5.0893C67.4281 5.0893 67.4688 5.0893 67.5094 5.0893C67.672 5.13017 67.7939 5.17104 67.9565 5.25277C68.241 5.33451 68.5662 5.45711 68.8507 5.57972C69.9481 6.02927 71.0048 6.64229 71.899 7.37791C72.3867 7.74573 72.7931 8.15441 73.1996 8.64483C73.2809 8.76743 73.4028 8.89003 73.4841 8.97177C73.4841 8.97177 73.5654 9.09438 73.606 9.05351C73.6467 9.01264 73.5654 8.9309 73.5247 8.89003C73.3621 8.64483 73.1589 8.39962 72.9557 8.19528C72.5493 7.70486 72.1428 7.25531 71.6551 6.80576C71.208 6.39708 70.6796 6.02927 70.1919 5.70232C69.1758 5.04843 68.0784 4.55801 66.8998 4.27194C66.2901 4.10846 65.6805 3.98586 65.0302 3.94499C64.4205 3.86326 63.7702 3.82239 63.1199 3.90412C62.8354 3.94499 62.5509 4.02673 62.2257 4.02673C62.1851 4.02673 62.1038 4.0676 62.0225 4.02673C61.9412 3.98586 62.1444 3.90412 62.1851 3.90412C62.5102 3.82239 62.7947 3.78152 63.1199 3.69978C63.445 3.61805 63.7702 3.57718 64.0547 3.53631C64.3799 3.49544 64.705 3.53631 65.0302 3.53631C65.1114 3.53631 65.1927 3.53631 65.274 3.53631C65.3147 3.53631 65.3959 3.53631 65.3959 3.49544C65.3959 3.45457 65.274 3.41371 65.2334 3.41371C65.1521 3.41371 65.1114 3.41371 65.0302 3.41371C64.3799 3.37284 63.7702 3.33197 63.1199 3.37284C61.9006 3.45457 60.6813 3.78152 59.5839 4.31281C58.5271 4.84409 57.5923 5.49798 56.7794 6.35621C56.373 6.80576 55.9666 7.25531 55.6414 7.7866C55.4788 8.0318 55.3163 8.31788 55.1943 8.60396C55.0724 8.89003 54.9911 9.17611 54.8692 9.46219C54.8692 9.50306 54.8285 9.58479 54.7879 9.62566C54.7473 9.66653 54.7473 9.66653 54.7066 9.62566C54.7066 9.58479 54.7066 9.50306 54.7473 9.42132C54.8285 9.13524 54.9098 8.84917 55.0318 8.56309C55.235 7.99094 55.4788 7.41878 55.8446 6.92836C56.4543 5.9884 57.2672 5.17104 58.202 4.55801C59.1774 3.90412 60.2748 3.45457 61.4129 3.25023C62.6322 3.00503 63.9734 3.00503 65.1927 3.2911C65.5179 3.37284 65.8024 3.45457 66.0869 3.53631C66.1275 3.53631 66.1682 3.53631 66.2088 3.57718C66.2495 3.57718 66.2901 3.61805 66.3308 3.57718C66.412 3.53631 66.2495 3.49544 66.2495 3.49544C66.0463 3.41371 65.8024 3.33197 65.5992 3.2911C65.274 3.20937 64.9489 3.12763 64.6644 3.08676C63.4044 2.84155 62.1444 2.84155 60.8845 3.08676C59.7465 3.33197 58.6491 3.78152 57.6736 4.43541C56.7388 5.0893 55.8853 5.90666 55.235 6.80576C54.544 7.74573 54.0563 8.84917 53.7312 9.99347C53.406 11.2195 53.3654 12.5273 53.4873 13.7533C53.6499 14.9794 53.975 16.1646 54.4627 17.3089C54.666 17.7993 54.9098 18.2488 55.1537 18.6984C56.0885 20.3331 57.3078 21.8044 58.6491 23.153C59.5839 24.093 60.5187 24.9921 61.4535 25.8912C62.3883 26.7903 63.3638 27.6485 64.3392 28.5476C66.3714 30.3458 68.5255 32.1849 70.5577 33.9422C70.8829 34.2283 72.5493 35.4543 73.3621 36.1491C73.6873 36.4351 74.0531 36.7621 74.4595 36.9256C74.8253 37.089 74.9066 36.9664 75.1098 36.7212C75.3943 36.3943 75.7601 36.1082 76.0853 35.7813C76.4104 35.4543 76.7356 35.1274 77.0201 34.7596C78.1988 33.4518 79.4587 32.2666 80.7187 31.0814C81.6941 30.1823 82.629 29.2832 83.5638 28.3841C84.4579 27.485 85.3521 26.5451 86.2056 25.6051C87.0185 24.6651 87.8314 23.6843 88.5223 22.6217C89.2539 21.6 89.8636 20.5374 90.4326 19.3931C91.0016 18.2897 91.408 17.1045 91.6519 15.8785C91.977 14.6524 91.977 13.3855 91.6519 12.1595ZM77.3452 32.9205C77.3046 33.3292 77.142 33.7379 76.9794 34.1465C76.573 34.9639 75.9227 35.6586 75.1911 36.1899C74.9473 36.3943 74.744 36.5986 74.4595 36.3534C74.4595 36.2717 74.0124 36.0265 73.9312 35.9447C73.7279 35.7813 73.5247 35.6587 73.3215 35.4952C72.9557 35.2091 72.5899 34.9639 72.2648 34.6778C71.5738 34.1465 70.9235 33.5335 70.2732 32.9614C69.8668 32.6344 69.4603 32.3075 69.0539 31.9397C68.6881 31.6127 68.241 31.3675 67.9159 30.9997H67.9565C68.6068 30.7136 69.2165 30.4275 69.9074 30.2641C70.1513 30.2232 70.2326 30.2232 70.1106 29.978C69.9481 29.6919 69.8668 29.365 69.9074 29.038C69.9481 28.5067 70.5171 29.038 70.7203 29.1606C70.9642 29.3241 71.2487 29.4876 71.4925 29.6102C71.6551 29.6919 72.1428 30.1006 72.0615 29.651C72.0615 29.5693 72.0209 29.4876 72.0615 29.4058C72.1428 28.8745 72.9964 29.8962 73.0776 30.0597C73.1589 30.2232 73.1996 30.1823 73.2402 30.0597C73.2809 29.8962 73.1996 29.5693 73.1589 29.4058C73.1183 28.9971 73.0776 28.5476 73.037 28.0981C73.037 28.0572 73.037 28.0163 73.037 27.9754C73.1589 27.7302 74.0937 28.8745 74.2157 29.038C74.297 29.1198 74.3376 29.2424 74.5002 29.2424C74.5815 29.2424 74.6628 29.1606 74.7034 29.1198C74.866 28.9972 75.0285 28.8337 75.1911 28.6702C75.3537 28.5476 75.4756 28.5476 75.4756 28.7519C75.5163 29.0789 75.5569 29.4058 75.5569 29.6919C75.5569 29.8145 75.5163 30.1006 75.5976 30.2232C75.7601 30.3867 76.0446 29.9371 76.2479 29.8554C76.5324 29.7328 76.7762 29.7328 76.9794 29.4876C77.0201 29.4467 77.0607 29.365 77.1014 29.365C77.2233 29.3241 77.264 29.4467 77.264 29.5284C77.3452 29.8962 77.264 30.3049 77.3046 30.7136C77.3452 31.4901 77.4265 32.1849 77.3452 32.9205Z" fill="#FF7D00"/>
<path d="M77.3449 32.9205C77.3043 33.3292 77.1417 33.7379 76.9791 34.1465C76.5727 34.9639 75.9224 35.6587 75.1908 36.19C74.9469 36.3943 74.7437 36.5986 74.4592 36.3534C74.4592 36.2717 74.0121 36.0265 73.9308 35.9447C73.7276 35.7813 73.5244 35.6587 73.3212 35.4952C72.9554 35.2091 72.5896 34.9639 72.2644 34.6778C71.5735 34.1465 70.9232 33.5335 70.2729 32.9614C69.8664 32.6344 69.46 32.3075 69.0536 31.9397C68.6878 31.6127 68.2407 31.3675 67.9155 30.9997H67.9562C68.6065 30.7136 69.2161 30.4275 69.9071 30.2641C70.1509 30.2232 70.2322 30.2232 70.1103 29.978C69.9477 29.6919 69.8664 29.365 69.9071 29.038C69.9477 28.5067 70.5167 29.038 70.72 29.1606C70.9638 29.3241 71.2483 29.4876 71.4922 29.6102C71.6548 29.6919 72.1425 30.1006 72.0612 29.6511C72.0612 29.5693 72.0206 29.4876 72.0612 29.4058C72.1425 28.8746 72.996 29.8963 73.0773 30.0597C73.1586 30.2232 73.1992 30.1823 73.2399 30.0597C73.2805 29.8963 73.1992 29.5693 73.1586 29.4058C73.1179 28.9972 73.0773 28.5476 73.0367 28.0981C73.0367 28.0572 73.0367 28.0163 73.0367 27.9755C73.1586 27.7303 74.0934 28.8746 74.2153 29.038C74.2966 29.1198 74.3373 29.2424 74.4998 29.2424C74.5811 29.2424 74.6624 29.1606 74.7031 29.1198C74.8656 28.9972 75.0282 28.8337 75.1908 28.6702C75.3534 28.5476 75.4753 28.5476 75.4753 28.752C75.5159 29.0789 75.5566 29.4058 75.5566 29.6919C75.5566 29.8145 75.5159 30.1006 75.5972 30.2232C75.7598 30.3867 76.0443 29.9371 76.2475 29.8554C76.532 29.7328 76.7759 29.7328 76.9791 29.4876C77.0197 29.4467 77.0604 29.365 77.101 29.365C77.223 29.3241 77.2636 29.4467 77.2636 29.5285C77.3449 29.8963 77.2636 30.3049 77.3043 30.7136C77.3449 31.4901 77.4262 32.1849 77.3449 32.9205Z" fill="white"/>
<path d="M73.4029 20.5375C72.712 20.0471 71.9804 19.6384 71.2488 19.2706C69.4605 18.4532 67.5909 17.9628 65.6806 17.4724C64.5832 17.1863 63.4452 16.9411 62.4697 16.3281C61.4943 15.715 60.7221 14.6933 60.7221 13.549C60.6814 12.4047 61.6569 11.2604 62.7949 11.3421C61.6975 11.0969 60.6408 12.0778 60.5188 13.2221C60.3563 14.9385 61.7788 16.2055 63.1607 16.9002C64.6239 17.6767 66.2496 18.0445 67.8347 18.4941C69.5011 18.9845 71.1675 19.5566 72.5901 20.6192C75.2726 22.6217 76.8577 25.8912 77.386 29.1606C77.4267 29.4059 77.4673 29.6511 77.4673 29.8963C77.4673 30.0189 77.508 30.1006 77.508 30.2232C77.508 30.1415 77.7112 29.8554 77.7518 29.7737C77.7925 29.5693 77.7518 29.365 77.7925 29.1606C77.8738 27.5668 79.2557 26.6677 80.353 25.8095C81.7349 24.7469 82.873 23.3574 83.8078 21.8453C83.8078 21.8044 83.8484 21.8044 83.8484 21.7635C84.8239 20.1288 85.5148 18.1671 85.0677 16.2872C86.287 15.5924 87.7909 15.3881 89.1728 15.715C89.1321 14.5299 88.9695 13.1812 88.0347 12.4865C87.0593 11.7508 85.6367 12.1186 84.58 12.7317C82.0601 14.2029 80.3124 16.9411 77.5893 17.9628C79.7027 17.9219 81.4911 16.2055 83.6046 16.0828C81.4911 17.3498 79.2557 18.0854 76.8577 18.6984C75.9635 18.9027 76.1261 19.761 76.0448 20.4966C76.0448 21.314 75.8822 22.1313 75.8009 22.9078C75.1506 21.9679 74.3378 21.1914 73.4029 20.5375ZM82.9543 11.1787C82.9543 11.1378 82.9136 11.1378 82.873 11.1378C82.5072 10.9743 82.182 10.8517 81.7756 10.8109C81.4504 10.77 81.044 10.8109 80.7188 10.9743C80.5969 11.0152 80.4343 11.0969 80.353 11.2195C80.2311 11.3421 80.1092 11.4648 80.0279 11.6282C79.9466 11.7917 79.8653 11.9552 79.784 12.0778C79.7027 12.2412 79.5808 12.4047 79.4995 12.5682C79.3776 12.7317 79.2963 12.936 79.215 13.1403C79.215 13.1812 79.1744 13.2629 79.215 13.2629C79.3369 13.4264 82.8323 11.2195 82.873 11.2195C82.873 11.1787 82.9136 11.1787 82.9543 11.1787ZM74.419 8.35878C74.2565 8.23617 74.1345 8.31791 74.1345 8.48138C74.1345 8.64485 74.4597 11.0561 74.5003 11.0561C74.6629 10.8517 74.8661 10.5657 75.0287 10.1978C75.11 9.95263 75.3538 9.38048 75.3538 9.17614C75.3538 9.0944 75.3132 9.05353 75.3132 9.01267C75.2726 8.9718 75.2319 8.93093 75.1913 8.84919L74.419 8.35878ZM81.8569 11.6282C81.8162 11.6282 81.8569 11.6282 81.8569 11.6282C81.613 11.5056 81.4504 11.4239 81.2066 11.4239C81.0033 11.4239 80.8001 11.4239 80.6375 11.5056C80.5563 11.5465 80.475 11.5874 80.4343 11.6282C80.353 11.71 80.3124 11.7917 80.2718 11.8734C80.2311 11.9552 80.1905 12.0369 80.1092 12.1186C80.0685 12.2004 79.9872 12.2821 79.9466 12.4047C79.906 12.4865 79.8247 12.6091 79.784 12.7317C79.784 12.7317 79.7434 12.7725 79.784 12.8134C79.8653 12.8951 81.8162 11.6691 81.8162 11.6691C81.8162 11.6691 81.8162 11.6691 81.8569 11.6282Z" fill="white"/>
<path d="M74.5407 8.93088C74.4595 8.89001 74.3782 8.89001 74.3782 9.01261C74.3782 9.09435 74.5814 10.443 74.5814 10.443C74.6627 10.3204 74.7846 10.1569 74.8659 9.95258C74.9065 9.82997 75.0691 9.50303 75.0285 9.38042C75.0285 9.33956 75.0285 9.29869 74.9878 9.29869C74.9878 9.25782 74.9472 9.25782 74.9065 9.21695L74.5407 8.93088ZM81.9379 11.4647C81.9379 11.4238 81.9379 11.4238 81.9379 11.4647C81.6941 11.3421 81.5315 11.3012 81.3283 11.2604C81.1251 11.2604 80.9625 11.2604 80.7593 11.3421C80.678 11.383 80.5967 11.4238 80.556 11.4647C80.4748 11.5464 80.4341 11.5873 80.3935 11.669C80.3528 11.7508 80.3122 11.8325 80.2715 11.9142C80.2309 11.996 80.1902 12.0777 80.109 12.1595C80.0683 12.2412 79.987 12.3638 79.9464 12.4455C79.9464 12.4455 79.9057 12.4864 79.9464 12.5273C80.0277 12.609 81.8566 11.4238 81.9379 11.4647Z" fill="#151B19"/>
<path d="M74.2562 6.43793C74.2969 6.51966 74.2969 6.6014 74.3375 6.724C74.4188 6.76487 74.5001 6.80574 74.622 6.84661C74.622 6.84661 74.6626 6.80574 74.7033 6.80574C74.7846 6.68314 74.8659 6.6014 74.9472 6.47879C75.0691 6.27445 75.2317 5.98838 75.1504 5.74317C75.1097 5.53883 75.6381 4.84407 75.5975 4.59886C75.5162 4.31278 75.3536 4.23105 75.4349 4.10844C75.4755 3.98584 75.6381 4.06758 75.8413 3.9041C75.882 3.86324 76.0039 3.7815 76.0445 3.65889C76.0852 3.53629 76.0445 3.45455 76.0039 3.33195C75.9633 3.25021 75.882 3.16848 75.8007 3.08674C75.7194 3.005 75.5975 2.92327 75.4755 2.80066C75.2723 2.63719 75.0284 2.47372 74.8252 2.31025C74.622 2.18764 74.4188 2.06504 74.1749 2.02417C74.0936 2.02417 73.9717 2.02417 73.8904 2.06504C73.8091 2.10591 73.7278 2.22851 73.7278 2.31025C73.6465 2.55546 73.6872 2.84153 73.7278 3.08674C73.7685 3.37282 73.8091 3.65889 73.8498 3.94497C73.9311 4.51712 74.0123 5.08928 74.1343 5.62056C74.0936 5.86577 74.1749 6.15185 74.2562 6.43793Z" fill="white"/>
<path d="M76.0446 17.1045C75.9227 16.9819 73.9311 15.3881 73.8092 15.2655C73.7279 15.2246 73.6873 15.1837 73.606 15.1429C73.5653 15.1429 73.5247 15.102 73.5247 15.102C73.484 15.102 73.4434 15.102 73.4028 15.102C73.4028 15.102 73.4028 15.1429 73.3621 15.1429C73.3621 15.1429 73.3621 15.1837 73.3215 15.1837C73.3215 15.2246 73.2808 15.2655 73.2808 15.3063C73.2402 15.3881 73.1995 15.4698 73.1589 15.5107C73.0776 15.6333 73.037 15.7967 73.037 15.9602C72.9963 16.2463 73.037 16.5732 73.1589 16.8185C73.3215 17.1454 73.606 17.3906 73.8905 17.5541C74.0124 17.6358 74.175 17.6767 74.3376 17.7176C74.5001 17.7584 75.435 17.8402 75.5162 17.8402C75.5975 17.8402 75.6788 17.8402 75.7601 17.7993C75.8414 17.7993 75.9227 17.7993 76.004 17.7584C76.0853 17.7584 76.1665 17.7584 76.2072 17.7176C76.2478 17.6767 76.3291 17.6358 76.3291 17.5949C76.3291 17.5132 76.3291 17.4315 76.2885 17.3906C76.2885 17.3089 76.1665 17.2271 76.0446 17.1045Z" fill="#1B201C"/>
<path d="M98.1552 34.8822H80.3532C79.9061 34.8822 79.5403 34.5143 79.5403 34.0648C79.5403 33.6152 79.9061 33.2474 80.3532 33.2474H98.1552C98.8461 33.2474 99.3745 32.7162 99.3745 32.0214V6.43795C99.3745 5.74319 98.8461 5.2119 98.1552 5.2119H93.4405C92.9934 5.2119 92.6276 4.84409 92.6276 4.39454C92.6276 3.94499 92.9934 3.57718 93.4405 3.57718H98.1552C99.7403 3.57718 101 4.84409 101 6.43795V32.0214C101 33.6152 99.7403 34.8822 98.1552 34.8822Z" fill="black"/>
<path d="M67.3065 34.8822H47.5536C45.9685 34.8822 44.7085 33.6152 44.7085 32.0214V6.43795C44.7085 4.84409 45.9685 3.57718 47.5536 3.57718H54.7475C55.1946 3.57718 55.5604 3.94499 55.5604 4.39454C55.5604 4.84409 55.1946 5.2119 54.7475 5.2119H47.5536C46.8626 5.2119 46.3343 5.74319 46.3343 6.43795V32.0214C46.3343 32.7162 46.8626 33.2474 47.5536 33.2474H67.3471C67.7942 33.2474 68.16 33.6152 68.16 34.0648C68.16 34.5143 67.7536 34.8822 67.3065 34.8822Z" fill="black"/>
<path d="M96.407 9.50309C96.407 9.95264 96.0412 10.3204 95.5941 10.3204H93.5619C93.1148 10.3204 92.749 9.95264 92.749 9.50309V8.56312C92.749 8.11357 93.1148 7.74576 93.5619 7.74576H95.5941C96.0412 7.74576 96.407 8.11357 96.407 8.56312V9.50309Z" fill="black"/>
<path d="M54.016 4.39455H47.7568L48.3259 2.51461C48.4884 1.98333 48.9762 1.57465 49.5452 1.57465H52.187C52.756 1.57465 53.2438 1.94246 53.4063 2.51461L54.016 4.39455Z" fill="black"/>
</svg>
